AnekTelugu-ExpandedMedium.ufo
<glyph name="greater" format="2">
  <advance width="1382"/>
  <unicode hex="003E"/>
  <outline>
    <contour>
      <point x="1079" y="614" type="line"/>
      <point x="1079" y="593" type="line"/>
      <point x="186" y="373" type="line"/>
      <point x="186" y="181" type="line"/>
      <point x="1241" y="458" type="line"/>
      <point x="1241" y="747" type="line"/>
      <point x="186" y="1022" type="line"/>
      <point x="186" y="831" type="line"/>
    </contour>
  </outline>
</glyph>
<glyph name="Candrabindu_above.te" format="2">
  <unicode hex="0C00"/>
  <outline>
    <contour>
      <point x="-747" y="1258" type="curve" smooth="yes"/>
      <point x="-420" y="1258"/>
      <point x="-279" y="1417"/>
      <point x="-279" y="1599" type="curve" smooth="yes"/>
      <point x="-279" y="1607" type="line"/>
      <point x="-458" y="1607" type="line"/>
      <point x="-461" y="1488"/>
      <point x="-543" y="1414"/>
      <point x="-747" y="1414" type="curve" smooth="yes"/>
      <point x="-951" y="1414"/>
      <point x="-1033" y="1488"/>
      <point x="-1035" y="1607" type="curve"/>
      <point x="-1214" y="1607" type="line"/>
      <point x="-1214" y="1599" type="line" smooth="yes"/>
      <point x="-1214" y="1417"/>
      <point x="-1073" y="1258"/>
    </contour>
    <contour>
      <point x="-747" y="1525" type="curve" smooth="yes"/>
      <point x="-668" y="1525"/>
      <point x="-624" y="1558"/>
      <point x="-624" y="1625" type="curve" smooth="yes"/>
      <point x="-624" y="1690"/>
      <point x="-668" y="1722"/>
      <point x="-747" y="1722" type="curve" smooth="yes"/>
      <point x="-825" y="1722"/>
      <point x="-870" y="1690"/>
      <point x="-870" y="1625" type="curve" smooth="yes"/>
      <point x="-870" y="1558"/>
      <point x="-825" y="1525"/>
    </contour>
  </outline>
</glyph>
<glyph name="Candrabindu.te" format="2">
  <advance width="926"/>
  <unicode hex="0C01"/>
  <outline>
    <contour>
      <point x="811" y="-34" type="curve"/>
      <point x="830" y="-34" type="line"/>
      <point x="864" y="152" type="line"/>
      <point x="829" y="152" type="line" smooth="yes"/>
      <point x="512" y="152"/>
      <point x="337" y="297"/>
      <point x="337" y="559" type="curve" smooth="yes"/>
      <point x="337" y="579" type="line" smooth="yes"/>
      <point x="337" y="842"/>
      <point x="512" y="986"/>
      <point x="829" y="986" type="curve" smooth="yes"/>
      <point x="864" y="986" type="line"/>
      <point x="830" y="1171" type="line"/>
      <point x="811" y="1171" type="line"/>
      <point x="388" y="1171"/>
      <point x="123" y="962"/>
      <point x="123" y="576" type="curve" smooth="yes"/>
      <point x="123" y="557" type="line" smooth="yes"/>
      <point x="123" y="176"/>
      <point x="388" y="-34"/>
    </contour>
  </outline>
</glyph>
<glyph name="Visarga.te" format="2">
  <advance width="1023"/>
  <unicode hex="0C03"/>
  <outline>
    <contour>
      <point x="512" y="601" type="curve" smooth="yes"/>
      <point x="776" y="601"/>
      <point x="913" y="699"/>
      <point x="913" y="879" type="curve" smooth="yes"/>
      <point x="913" y="884" type="line" smooth="yes"/>
      <point x="913" y="1064"/>
      <point x="776" y="1162"/>
      <point x="512" y="1162" type="curve" smooth="yes"/>
      <point x="248" y="1162"/>
      <point x="110" y="1064"/>
      <point x="110" y="884" type="curve" smooth="yes"/>
      <point x="110" y="879" type="line" smooth="yes"/>
      <point x="110" y="699"/>
      <point x="248" y="601"/>
    </contour>
    <contour>
      <point x="512" y="-40" type="curve" smooth="yes"/>
      <point x="776" y="-40"/>
      <point x="913" y="58"/>
      <point x="913" y="238" type="curve" smooth="yes"/>
      <point x="913" y="243" type="line" smooth="yes"/>
      <point x="913" y="423"/>
      <point x="776" y="521"/>
      <point x="512" y="521" type="curve" smooth="yes"/>
      <point x="248" y="521"/>
      <point x="110" y="423"/>
      <point x="110" y="243" type="curve" smooth="yes"/>
      <point x="110" y="238" type="line" smooth="yes"/>
      <point x="110" y="58"/>
      <point x="248" y="-40"/>
    </contour>
    <contour>
      <point x="512" y="108" type="curve" smooth="yes"/>
      <point x="378" y="108"/>
      <point x="310" y="153"/>
      <point x="310" y="239" type="curve" smooth="yes"/>
      <point x="310" y="242" type="line" smooth="yes"/>
      <point x="310" y="328"/>
      <point x="378" y="373"/>
      <point x="512" y="373" type="curve" smooth="yes"/>
      <point x="646" y="373"/>
      <point x="713" y="328"/>
      <point x="713" y="242" type="curve" smooth="yes"/>
      <point x="713" y="239" type="line" smooth="yes"/>
      <point x="713" y="153"/>
      <point x="646" y="108"/>
    </contour>
    <contour>
      <point x="512" y="749" type="curve" smooth="yes"/>
      <point x="379" y="749"/>
      <point x="310" y="794"/>
      <point x="310" y="880" type="curve" smooth="yes"/>
      <point x="310" y="883" type="line" smooth="yes"/>
      <point x="310" y="969"/>
      <point x="379" y="1014"/>
      <point x="512" y="1014" type="curve" smooth="yes"/>
      <point x="645" y="1014"/>
      <point x="713" y="969"/>
      <point x="713" y="883" type="curve" smooth="yes"/>
      <point x="713" y="880" type="line" smooth="yes"/>
      <point x="713" y="794"/>
      <point x="645" y="749"/>
    </contour>
  </outline>
</glyph>
<glyph name="vowelA.te" format="2">
  <advance width="2080"/>
  <unicode hex="0C05"/>
  <outline>
    <contour>
      <point x="1437" y="1161" type="curve" smooth="yes"/>
      <point x="1153" y="1161"/>
      <point x="1007" y="1048"/>
      <point x="1007" y="865" type="curve" smooth="yes"/>
      <point x="1007" y="861" type="line" smooth="yes"/>
      <point x="1007" y="751"/>
      <point x="1068" y="678"/>
      <point x="1170" y="639" type="curve"/>
      <point x="1170" y="633" type="line"/>
      <point x="656" y="635" type="line"/>
      <point x="690" y="460" type="line"/>
      <point x="1420" y="461" type="line"/>
      <point x="1420" y="628" type="line"/>
      <point x="1336" y="637" type="line"/>
      <point x="1242" y="667"/>
      <point x="1196" y="715"/>
      <point x="1196" y="795" type="curve" smooth="yes"/>
      <point x="1196" y="799" type="line" smooth="yes"/>
      <point x="1196" y="910"/>
      <point x="1278" y="977"/>
      <point x="1439" y="977" type="curve" smooth="yes"/>
      <point x="1635" y="977"/>
      <point x="1738" y="864"/>
      <point x="1738" y="634" type="curve" smooth="yes"/>
      <point x="1738" y="624" type="line" smooth="yes"/>
      <point x="1738" y="314"/>
      <point x="1511" y="150"/>
      <point x="1040" y="150" type="curve" smooth="yes"/>
      <point x="575" y="150"/>
      <point x="342" y="299"/>
      <point x="342" y="582" type="curve" smooth="yes"/>
      <point x="342" y="594" type="line" smooth="yes"/>
      <point x="342" y="828"/>
      <point x="495" y="958"/>
      <point x="773" y="958" type="curve" smooth="yes"/>
      <point x="786" y="958" type="line"/>
      <point x="752" y="1143" type="line"/>
      <point x="731" y="1143" type="line" smooth="yes"/>
      <point x="350" y="1143"/>
      <point x="128" y="940"/>
      <point x="128" y="593" type="curve" smooth="yes"/>
      <point x="128" y="581" type="line" smooth="yes"/>
      <point x="128" y="179"/>
      <point x="433" y="-39"/>
      <point x="1040" y="-39" type="curve" smooth="yes"/>
      <point x="1647" y="-39"/>
      <point x="1952" y="193"/>
      <point x="1952" y="616" type="curve" smooth="yes"/>
      <point x="1952" y="627" type="line" smooth="yes"/>
      <point x="1952" y="975"/>
      <point x="1774" y="1161"/>
    </contour>
  </outline>
</glyph>
<glyph name="vowelAa.te" format="2">
  <advance width="2076"/>
  <unicode hex="0C06"/>
  <outline>
    <contour>
      <point x="1040" y="-39" type="curve" smooth="yes"/>
      <point x="1632" y="-39"/>
      <point x="1937" y="182"/>
      <point x="1951" y="584" type="curve"/>
      <point x="1951" y="635" type="line"/>
      <point x="1712" y="633" type="line"/>
      <point x="1712" y="639" type="line"/>
      <point x="1799" y="677"/>
      <point x="1867" y="746"/>
      <point x="1867" y="859" type="curve" smooth="yes"/>
      <point x="1867" y="863" type="line" smooth="yes"/>
      <point x="1867" y="1046"/>
      <point x="1712" y="1161"/>
      <point x="1410" y="1161" type="curve" smooth="yes"/>
      <point x="1107" y="1161"/>
      <point x="953" y="1046"/>
      <point x="953" y="863" type="curve" smooth="yes"/>
      <point x="953" y="859" type="line" smooth="yes"/>
      <point x="953" y="746"/>
      <point x="1021" y="677"/>
      <point x="1108" y="639" type="curve"/>
      <point x="1108" y="633" type="line"/>
      <point x="656" y="635" type="line"/>
      <point x="690" y="461" type="line"/>
      <point x="1710" y="464" type="line"/>
      <point x="1710" y="458" type="line"/>
      <point x="1646" y="259"/>
      <point x="1423" y="150"/>
      <point x="1040" y="150" type="curve" smooth="yes"/>
      <point x="575" y="150"/>
      <point x="342" y="299"/>
      <point x="342" y="582" type="curve" smooth="yes"/>
      <point x="342" y="594" type="line" smooth="yes"/>
      <point x="342" y="828"/>
      <point x="495" y="958"/>
      <point x="773" y="958" type="curve" smooth="yes"/>
      <point x="786" y="958" type="line"/>
      <point x="752" y="1143" type="line"/>
      <point x="731" y="1143" type="line" smooth="yes"/>
      <point x="350" y="1143"/>
      <point x="128" y="940"/>
      <point x="128" y="593" type="curve" smooth="yes"/>
      <point x="128" y="581" type="line" smooth="yes"/>
      <point x="128" y="176"/>
      <point x="433" y="-39"/>
    </contour>
    <contour>
      <point x="1282" y="632" type="line"/>
      <point x="1193" y="667"/>
      <point x="1145" y="722"/>
      <point x="1145" y="795" type="curve" smooth="yes"/>
      <point x="1145" y="799" type="line" smooth="yes"/>
      <point x="1145" y="909"/>
      <point x="1234" y="977"/>
      <point x="1409" y="977" type="curve" smooth="yes"/>
      <point x="1585" y="977"/>
      <point x="1675" y="909"/>
      <point x="1675" y="799" type="curve" smooth="yes"/>
      <point x="1675" y="795" type="line" smooth="yes"/>
      <point x="1675" y="722"/>
      <point x="1628" y="667"/>
      <point x="1538" y="632" type="curve"/>
    </contour>
  </outline>
</glyph>
<glyph name="vowelI.te" format="2">
  <advance width="1906"/>
  <unicode hex="0C07"/>
  <outline>
    <contour>
      <point x="890" y="-30" type="curve" smooth="yes"/>
      <point x="1426" y="-30"/>
      <point x="1772" y="219"/>
      <point x="1772" y="672" type="curve" smooth="yes"/>
      <point x="1772" y="684" type="line" smooth="yes"/>
      <point x="1772" y="998"/>
      <point x="1610" y="1161"/>
      <point x="1310" y="1161" type="curve" smooth="yes"/>
      <point x="1072" y="1161"/>
      <point x="958" y="1059"/>
      <point x="930" y="891" type="curve"/>
      <point x="924" y="891" type="line"/>
      <point x="895" y="1059"/>
      <point x="778" y="1161"/>
      <point x="542" y="1161" type="curve" smooth="yes"/>
      <point x="259" y="1161"/>
      <point x="110" y="1027"/>
      <point x="110" y="786" type="curve" smooth="yes"/>
      <point x="110" y="782" type="line" smooth="yes"/>
      <point x="110" y="751"/>
      <point x="116" y="708"/>
      <point x="128" y="668" type="curve"/>
      <point x="334" y="668" type="line"/>
      <point x="325" y="702"/>
      <point x="321" y="732"/>
      <point x="321" y="761" type="curve" smooth="yes"/>
      <point x="321" y="764" type="line" smooth="yes"/>
      <point x="321" y="903"/>
      <point x="400" y="977"/>
      <point x="570" y="977" type="curve" smooth="yes"/>
      <point x="747" y="977"/>
      <point x="806" y="890"/>
      <point x="824" y="754" type="curve" smooth="yes"/>
      <point x="828" y="723" type="line"/>
      <point x="1025" y="723" type="line"/>
      <point x="1029" y="754" type="line" smooth="yes"/>
      <point x="1048" y="902"/>
      <point x="1120" y="977"/>
      <point x="1282" y="977" type="curve" smooth="yes"/>
      <point x="1466" y="977"/>
      <point x="1558" y="875"/>
      <point x="1558" y="668" type="curve" smooth="yes"/>
      <point x="1558" y="657" type="line" smooth="yes"/>
      <point x="1558" y="534"/>
      <point x="1526" y="432"/>
      <point x="1468" y="352" type="curve"/>
      <point x="1437" y="317" type="line"/>
      <point x="1326" y="209"/>
      <point x="1145" y="152"/>
      <point x="875" y="152" type="curve" smooth="yes"/>
      <point x="595" y="152"/>
      <point x="457" y="197"/>
      <point x="457" y="301" type="curve" smooth="yes"/>
      <point x="457" y="302" type="line" smooth="yes"/>
      <point x="457" y="410"/>
      <point x="589" y="453"/>
      <point x="855" y="453" type="curve" smooth="yes"/>
      <point x="1132" y="453"/>
      <point x="1341" y="382"/>
      <point x="1448" y="232" type="curve"/>
      <point x="1470" y="200" type="line"/>
      <point x="1520" y="119"/>
      <point x="1553" y="17"/>
      <point x="1572" y="-96" type="curve"/>
      <point x="1784" y="-96" type="line"/>
      <point x="1747" y="72"/>
      <point x="1687" y="200"/>
      <point x="1606" y="309" type="curve"/>
      <point x="1577" y="347" type="line"/>
      <point x="1407" y="544"/>
      <point x="1188" y="623"/>
      <point x="848" y="623" type="curve" smooth="yes"/>
      <point x="452" y="623"/>
      <point x="249" y="522"/>
      <point x="249" y="298" type="curve" smooth="yes"/>
      <point x="249" y="296" type="line" smooth="yes"/>
      <point x="249" y="74"/>
      <point x="461" y="-30"/>
    </contour>
  </outline>
</glyph>
<glyph name="vowelIi.te" format="2">
  <advance width="2817"/>
  <unicode hex="0C08"/>
  <outline>
    <contour>
      <point x="2239" y="-38" type="curve" smooth="yes"/>
      <point x="2536" y="-38"/>
      <point x="2690" y="86"/>
      <point x="2690" y="291" type="curve" smooth="yes"/>
      <point x="2690" y="298" type="line" smooth="yes"/>
      <point x="2690" y="456"/>
      <point x="2590" y="565"/>
      <point x="2382" y="607" type="curve" smooth="yes"/>
      <point x="2365" y="616"/>
      <point x="2346" y="648"/>
      <point x="2327" y="648" type="curve"/>
      <point x="1535" y="648" type="line"/>
      <point x="1506" y="647" type="line"/>
      <point x="321" y="647" type="line"/>
      <point x="298" y="648" type="line"/>
      <point x="55" y="648" type="line"/>
      <point x="55" y="483" type="line"/>
      <point x="304" y="483" type="line"/>
      <point x="323" y="485" type="line"/>
      <point x="1502" y="485" type="line"/>
      <point x="1534" y="483" type="line"/>
      <point x="1957" y="483" type="line"/>
      <point x="1851" y="442"/>
      <point x="1801" y="369"/>
      <point x="1801" y="255" type="curve" smooth="yes"/>
      <point x="1801" y="252" type="line" smooth="yes"/>
      <point x="1801" y="80"/>
      <point x="1952" y="-38"/>
    </contour>
    <contour>
      <point x="923" y="-39" type="curve" smooth="yes"/>
      <point x="1391" y="-39"/>
      <point x="1638" y="166"/>
      <point x="1638" y="544" type="curve" smooth="yes"/>
      <point x="1638" y="556" type="line" smooth="yes"/>
      <point x="1638" y="930"/>
      <point x="1391" y="1133"/>
      <point x="923" y="1133" type="curve" smooth="yes"/>
      <point x="455" y="1133"/>
      <point x="208" y="930"/>
      <point x="208" y="556" type="curve" smooth="yes"/>
      <point x="208" y="544" type="line" smooth="yes"/>
      <point x="208" y="166"/>
      <point x="455" y="-39"/>
    </contour>
    <contour>
      <point x="923" y="144" type="curve" smooth="yes"/>
      <point x="590" y="144"/>
      <point x="415" y="284"/>
      <point x="415" y="554" type="curve" smooth="yes"/>
      <point x="415" y="564" type="line" smooth="yes"/>
      <point x="415" y="831"/>
      <point x="590" y="973"/>
      <point x="923" y="973" type="curve" smooth="yes"/>
      <point x="1256" y="973"/>
      <point x="1431" y="831"/>
      <point x="1431" y="564" type="curve" smooth="yes"/>
      <point x="1431" y="554" type="line" smooth="yes"/>
      <point x="1431" y="284"/>
      <point x="1256" y="144"/>
    </contour>
    <contour>
      <point x="2242" y="144" type="curve" smooth="yes"/>
      <point x="2077" y="144"/>
      <point x="1992" y="201"/>
      <point x="1992" y="308" type="curve" smooth="yes"/>
      <point x="1992" y="310" type="line" smooth="yes"/>
      <point x="1992" y="397"/>
      <point x="2047" y="454"/>
      <point x="2170" y="483" type="curve"/>
      <point x="2315" y="483" type="line"/>
      <point x="2438" y="454"/>
      <point x="2492" y="397"/>
      <point x="2492" y="310" type="curve" smooth="yes"/>
      <point x="2492" y="308" type="line" smooth="yes"/>
      <point x="2492" y="201"/>
      <point x="2408" y="144"/>
    </contour>
    <contour>
      <point x="862" y="1052" type="curve"/>
      <point x="999" y="1062" type="line"/>
      <point x="1170" y="1062"/>
      <point x="1256" y="1131"/>
      <point x="1340" y="1216" type="curve" smooth="yes"/>
      <point x="1480" y="1369" type="line" smooth="yes"/>
      <point x="1551" y="1441"/>
      <point x="1612" y="1466"/>
      <point x="1697" y="1466" type="curve" smooth="yes"/>
      <point x="1763" y="1466" type="line"/>
      <point x="1745" y="1654" type="line"/>
      <point x="1672" y="1654" type="line" smooth="yes"/>
      <point x="1533" y="1654"/>
      <point x="1441" y="1610"/>
      <point x="1343" y="1502" type="curve" smooth="yes"/>
      <point x="1124" y="1263" type="line" smooth="yes"/>
      <point x="1052" y="1183"/>
      <point x="989" y="1143"/>
      <point x="907" y="1143" type="curve"/>
      <point x="896" y="1143" type="line"/>
      <point x="811" y="1143"/>
      <point x="757" y="1193"/>
      <point x="715" y="1269" type="curve" smooth="yes"/>
      <point x="634" y="1417" type="line"/>
      <point x="403" y="1417" type="line"/>
      <point x="497" y="1241" type="line" smooth="yes"/>
      <point x="563" y="1118"/>
      <point x="657" y="1052"/>
    </contour>
    <contour>
      <point x="2377" y="569" type="line"/>
      <point x="2565" y="599"/>
      <point x="2684" y="693"/>
      <point x="2684" y="857" type="curve" smooth="yes"/>
      <point x="2684" y="863" type="line" smooth="yes"/>
      <point x="2684" y="1052"/>
      <point x="2540" y="1154"/>
      <point x="2277" y="1154" type="curve" smooth="yes"/>
      <point x="2136" y="1154"/>
      <point x="2031" y="1127"/>
      <point x="1912" y="1085" type="curve"/>
      <point x="1890" y="904" type="line"/>
      <point x="1983" y="947"/>
      <point x="2096" y="978"/>
      <point x="2224" y="978" type="curve" smooth="yes"/>
      <point x="2396" y="978"/>
      <point x="2475" y="921"/>
      <point x="2475" y="808" type="curve" smooth="yes"/>
      <point x="2475" y="806" type="line" smooth="yes"/>
      <point x="2475" y="722"/>
      <point x="2415" y="672"/>
      <point x="2303" y="646" type="curve"/>
    </contour>
  </outline>
</glyph>
<glyph name="vowelU.te" format="2">
  <advance width="2148"/>
  <unicode hex="0C09"/>
  <outline>
    <contour>
      <point x="681" y="-35" type="curve" smooth="yes"/>
      <point x="922" y="-35"/>
      <point x="1053" y="85"/>
      <point x="1080" y="264" type="curve"/>
      <point x="1086" y="264" type="line"/>
      <point x="1114" y="85"/>
      <point x="1255" y="-35"/>
      <point x="1514" y="-35" type="curve" smooth="yes"/>
      <point x="1793" y="-35"/>
      <point x="1953" y="106"/>
      <point x="1953" y="335" type="curve" smooth="yes"/>
      <point x="1953" y="339" type="line" smooth="yes"/>
      <point x="1953" y="431"/>
      <point x="1919" y="501"/>
      <point x="1879" y="556" type="curve"/>
      <point x="1685" y="556" type="line"/>
      <point x="1731" y="502"/>
      <point x="1750" y="440"/>
      <point x="1750" y="376" type="curve" smooth="yes"/>
      <point x="1750" y="375" type="line" smooth="yes"/>
      <point x="1750" y="240"/>
      <point x="1655" y="161"/>
      <point x="1483" y="161" type="curve" smooth="yes"/>
      <point x="1304" y="161"/>
      <point x="1215" y="252"/>
      <point x="1196" y="397" type="curve" smooth="yes"/>
      <point x="1193" y="420" type="line"/>
      <point x="973" y="420" type="line"/>
      <point x="970" y="397" type="line" smooth="yes"/>
      <point x="951" y="252"/>
      <point x="870" y="161"/>
      <point x="710" y="161" type="curve" smooth="yes"/>
      <point x="520" y="161"/>
      <point x="422" y="264"/>
      <point x="422" y="468" type="curve" smooth="yes"/>
      <point x="422" y="484" type="line" smooth="yes"/>
      <point x="422" y="804"/>
      <point x="642" y="966"/>
      <point x="1087" y="966" type="curve" smooth="yes"/>
      <point x="1409" y="966"/>
      <point x="1596" y="911"/>
      <point x="1742" y="849" type="curve"/>
      <point x="1711" y="1033" type="line"/>
      <point x="1561" y="1101"/>
      <point x="1352" y="1146"/>
      <point x="1087" y="1146" type="curve" smooth="yes"/>
      <point x="505" y="1146"/>
      <point x="208" y="916"/>
      <point x="208" y="469" type="curve" smooth="yes"/>
      <point x="208" y="454" type="line" smooth="yes"/>
      <point x="208" y="137"/>
      <point x="373" y="-35"/>
    </contour>
    <contour>
      <point x="55" y="488" type="line"/>
      <point x="2075" y="488" type="line"/>
      <point x="2075" y="653" type="line"/>
      <point x="55" y="653" type="line"/>
    </contour>
    <contour>
      <point x="1032" y="1079" type="curve"/>
      <point x="1129" y="1079" type="line"/>
      <point x="1167" y="1197"/>
      <point x="1194" y="1294"/>
      <point x="1194" y="1362" type="curve" smooth="yes"/>
      <point x="1194" y="1434"/>
      <point x="1174" y="1475"/>
      <point x="1163" y="1497" type="curve"/>
      <point x="998" y="1497" type="line"/>
      <point x="987" y="1475"/>
      <point x="967" y="1433"/>
      <point x="967" y="1362" type="curve" smooth="yes"/>
      <point x="967" y="1295"/>
      <point x="992" y="1197"/>
    </contour>
  </outline>
</glyph>
<glyph name="vowelUu.te" format="2">
  <advance width="3162"/>
  <unicode hex="0C0A"/>
  <outline>
    <contour>
      <point x="2584" y="-38" type="curve" smooth="yes"/>
      <point x="2881" y="-38"/>
      <point x="3035" y="86"/>
      <point x="3035" y="291" type="curve" smooth="yes"/>
      <point x="3035" y="298" type="line" smooth="yes"/>
      <point x="3035" y="456"/>
      <point x="2935" y="565"/>
      <point x="2726" y="607" type="curve" smooth="yes"/>
      <point x="2707" y="611"/>
      <point x="2690" y="648"/>
      <point x="2671" y="648" type="curve"/>
      <point x="55" y="648" type="line"/>
      <point x="55" y="483" type="line"/>
      <point x="2302" y="483" type="line"/>
      <point x="2196" y="442"/>
      <point x="2146" y="369"/>
      <point x="2146" y="255" type="curve" smooth="yes"/>
      <point x="2146" y="252" type="line" smooth="yes"/>
      <point x="2146" y="80"/>
      <point x="2297" y="-38"/>
    </contour>
    <contour>
      <point x="681" y="-35" type="curve" smooth="yes"/>
      <point x="922" y="-35"/>
      <point x="1053" y="85"/>
      <point x="1080" y="264" type="curve"/>
      <point x="1086" y="264" type="line"/>
      <point x="1114" y="85"/>
      <point x="1255" y="-35"/>
      <point x="1514" y="-35" type="curve" smooth="yes"/>
      <point x="1793" y="-35"/>
      <point x="1953" y="106"/>
      <point x="1953" y="335" type="curve" smooth="yes"/>
      <point x="1953" y="339" type="line" smooth="yes"/>
      <point x="1953" y="431"/>
      <point x="1919" y="501"/>
      <point x="1879" y="556" type="curve"/>
      <point x="1685" y="556" type="line"/>
      <point x="1731" y="502"/>
      <point x="1750" y="440"/>
      <point x="1750" y="376" type="curve" smooth="yes"/>
      <point x="1750" y="375" type="line" smooth="yes"/>
      <point x="1750" y="240"/>
      <point x="1655" y="161"/>
      <point x="1483" y="161" type="curve" smooth="yes"/>
      <point x="1304" y="161"/>
      <point x="1215" y="252"/>
      <point x="1196" y="397" type="curve" smooth="yes"/>
      <point x="1193" y="420" type="line"/>
      <point x="973" y="420" type="line"/>
      <point x="970" y="397" type="line" smooth="yes"/>
      <point x="951" y="252"/>
      <point x="870" y="161"/>
      <point x="710" y="161" type="curve" smooth="yes"/>
      <point x="520" y="161"/>
      <point x="422" y="264"/>
      <point x="422" y="468" type="curve" smooth="yes"/>
      <point x="422" y="484" type="line" smooth="yes"/>
      <point x="422" y="804"/>
      <point x="642" y="966"/>
      <point x="1087" y="966" type="curve" smooth="yes"/>
      <point x="1409" y="966"/>
      <point x="1596" y="911"/>
      <point x="1742" y="849" type="curve"/>
      <point x="1711" y="1033" type="line"/>
      <point x="1561" y="1101"/>
      <point x="1352" y="1146"/>
      <point x="1087" y="1146" type="curve" smooth="yes"/>
      <point x="505" y="1146"/>
      <point x="208" y="916"/>
      <point x="208" y="469" type="curve" smooth="yes"/>
      <point x="208" y="454" type="line" smooth="yes"/>
      <point x="208" y="137"/>
      <point x="373" y="-35"/>
    </contour>
    <contour>
      <point x="819" y="1079" type="curve"/>
      <point x="916" y="1079" type="line"/>
      <point x="955" y="1197"/>
      <point x="981" y="1296"/>
      <point x="981" y="1362" type="curve" smooth="yes"/>
      <point x="981" y="1433"/>
      <point x="961" y="1475"/>
      <point x="951" y="1497" type="curve"/>
      <point x="785" y="1497" type="line"/>
      <point x="774" y="1475"/>
      <point x="755" y="1435"/>
      <point x="755" y="1362" type="curve" smooth="yes"/>
      <point x="755" y="1293"/>
      <point x="779" y="1197"/>
    </contour>
    <contour>
      <point x="1236" y="1079" type="curve"/>
      <point x="1332" y="1079" type="line"/>
      <point x="1371" y="1197"/>
      <point x="1397" y="1297"/>
      <point x="1397" y="1362" type="curve" smooth="yes"/>
      <point x="1397" y="1434"/>
      <point x="1378" y="1475"/>
      <point x="1367" y="1497" type="curve"/>
      <point x="1201" y="1497" type="line"/>
      <point x="1191" y="1475"/>
      <point x="1171" y="1435"/>
      <point x="1171" y="1362" type="curve" smooth="yes"/>
      <point x="1171" y="1293"/>
      <point x="1196" y="1197"/>
    </contour>
    <contour>
      <point x="2586" y="144" type="curve" smooth="yes"/>
      <point x="2422" y="144"/>
      <point x="2337" y="200"/>
      <point x="2337" y="308" type="curve" smooth="yes"/>
      <point x="2337" y="310" type="line" smooth="yes"/>
      <point x="2337" y="397"/>
      <point x="2392" y="454"/>
      <point x="2515" y="483" type="curve"/>
      <point x="2660" y="483" type="line"/>
      <point x="2783" y="454"/>
      <point x="2837" y="397"/>
      <point x="2837" y="310" type="curve" smooth="yes"/>
      <point x="2837" y="308" type="line" smooth="yes"/>
      <point x="2837" y="200"/>
      <point x="2751" y="144"/>
    </contour>
    <contour>
      <point x="2722" y="569" type="line"/>
      <point x="2910" y="599"/>
      <point x="3029" y="693"/>
      <point x="3029" y="857" type="curve" smooth="yes"/>
      <point x="3029" y="863" type="line" smooth="yes"/>
      <point x="3029" y="1052"/>
      <point x="2885" y="1154"/>
      <point x="2621" y="1154" type="curve" smooth="yes"/>
      <point x="2481" y="1154"/>
      <point x="2374" y="1127"/>
      <point x="2256" y="1085" type="curve"/>
      <point x="2235" y="904" type="line"/>
      <point x="2326" y="947"/>
      <point x="2440" y="978"/>
      <point x="2568" y="978" type="curve" smooth="yes"/>
      <point x="2740" y="978"/>
      <point x="2820" y="921"/>
      <point x="2820" y="808" type="curve" smooth="yes"/>
      <point x="2820" y="806" type="line" smooth="yes"/>
      <point x="2820" y="722"/>
      <point x="2760" y="672"/>
      <point x="2647" y="646" type="curve"/>
    </contour>
  </outline>
</glyph>
<glyph name="vowelVocalicR.te" format="2">
  <advance width="3855"/>
  <unicode hex="0C0B"/>
  <anchor x="1017" y="-19" name="bottom"/>
  <outline>
    <contour>
      <point x="572" y="-35" type="curve" smooth="yes"/>
      <point x="837" y="-35"/>
      <point x="981" y="76"/>
      <point x="1012" y="254" type="curve"/>
      <point x="1018" y="254" type="line"/>
      <point x="1048" y="76"/>
      <point x="1184" y="-35"/>
      <point x="1439" y="-35" type="curve" smooth="yes"/>
      <point x="1687" y="-35"/>
      <point x="1851" y="101"/>
      <point x="1884" y="348" type="curve"/>
      <point x="1906" y="403"/>
      <point x="1918" y="456"/>
      <point x="1918" y="517" type="curve" smooth="yes"/>
      <point x="1918" y="524" type="line"/>
      <point x="1704" y="524" type="line"/>
      <point x="1704" y="519" type="line" smooth="yes"/>
      <point x="1704" y="281"/>
      <point x="1603" y="161"/>
      <point x="1406" y="161" type="curve" smooth="yes"/>
      <point x="1233" y="161"/>
      <point x="1141" y="250"/>
      <point x="1122" y="422" type="curve" smooth="yes"/>
      <point x="1118" y="459" type="line"/>
      <point x="912" y="459" type="line"/>
      <point x="908" y="421" type="line" smooth="yes"/>
      <point x="890" y="250"/>
      <point x="785" y="154"/>
      <point x="595" y="154" type="curve" smooth="yes"/>
      <point x="425" y="154"/>
      <point x="332" y="209"/>
      <point x="332" y="308" type="curve" smooth="yes"/>
      <point x="332" y="311" type="line" smooth="yes"/>
      <point x="332" y="400"/>
      <point x="384" y="443"/>
      <point x="637" y="514" type="curve" smooth="yes"/>
      <point x="923" y="595"/>
      <point x="1022" y="683"/>
      <point x="1022" y="849" type="curve" smooth="yes"/>
      <point x="1022" y="852" type="line" smooth="yes"/>
      <point x="1022" y="1050"/>
      <point x="863" y="1161"/>
      <point x="576" y="1161" type="curve" smooth="yes"/>
      <point x="291" y="1161"/>
      <point x="135" y="1050"/>
      <point x="135" y="845" type="curve" smooth="yes"/>
      <point x="135" y="843" type="line" smooth="yes"/>
      <point x="135" y="791"/>
      <point x="149" y="732"/>
      <point x="176" y="676" type="curve"/>
      <point x="372" y="676" type="line"/>
      <point x="346" y="726"/>
      <point x="335" y="771"/>
      <point x="335" y="816" type="curve" smooth="yes"/>
      <point x="335" y="817" type="line" smooth="yes"/>
      <point x="335" y="930"/>
      <point x="420" y="989"/>
      <point x="578" y="989" type="curve" smooth="yes"/>
      <point x="733" y="989"/>
      <point x="817" y="935"/>
      <point x="817" y="845" type="curve" smooth="yes"/>
      <point x="817" y="843" type="line" smooth="yes"/>
      <point x="817" y="760"/>
      <point x="755" y="723"/>
      <point x="527" y="657" type="curve" smooth="yes"/>
      <point x="207" y="568"/>
      <point x="115" y="471"/>
      <point x="115" y="291" type="curve" smooth="yes"/>
      <point x="115" y="286" type="line" smooth="yes"/>
      <point x="115" y="81"/>
      <point x="277" y="-35"/>
    </contour>
    <component base="matraUVar1.te" xOffset="2015"/>
    <component base="Terminals.te" xOffset="1197"/>
  </outline>
</glyph>
<glyph name="vowelVocalicL.te" format="2">
  <advance width="2510"/>
  <unicode hex="0C0C"/>
  <outline>
    <contour>
      <point x="1562" y="-39" type="curve" smooth="yes"/>
      <point x="2104" y="-39"/>
      <point x="2382" y="180"/>
      <point x="2382" y="589" type="curve" smooth="yes"/>
      <point x="2382" y="598" type="line" smooth="yes"/>
      <point x="2382" y="938"/>
      <point x="2192" y="1143"/>
      <point x="1851" y="1143" type="curve" smooth="yes"/>
      <point x="1829" y="1143" type="line"/>
      <point x="1796" y="958" type="line"/>
      <point x="1808" y="958" type="line" smooth="yes"/>
      <point x="2046" y="958"/>
      <point x="2167" y="823"/>
      <point x="2167" y="598" type="curve" smooth="yes"/>
      <point x="2167" y="590" type="line" smooth="yes"/>
      <point x="2167" y="299"/>
      <point x="1962" y="145"/>
      <point x="1562" y="145" type="curve" smooth="yes"/>
      <point x="1260" y="145"/>
      <point x="1104" y="209"/>
      <point x="1104" y="320" type="curve" smooth="yes"/>
      <point x="1104" y="322" type="line" smooth="yes"/>
      <point x="1104" y="409"/>
      <point x="1174" y="450"/>
      <point x="1394" y="493" type="curve" smooth="yes"/>
      <point x="1670" y="547"/>
      <point x="1753" y="652"/>
      <point x="1753" y="825" type="curve" smooth="yes"/>
      <point x="1753" y="828" type="line" smooth="yes"/>
      <point x="1753" y="1042"/>
      <point x="1603" y="1161"/>
      <point x="1314" y="1161" type="curve" smooth="yes"/>
      <point x="1070" y="1161"/>
      <point x="949" y="1063"/>
      <point x="920" y="904" type="curve"/>
      <point x="914" y="904" type="line"/>
      <point x="884" y="1063"/>
      <point x="768" y="1161"/>
      <point x="532" y="1161" type="curve" smooth="yes"/>
      <point x="249" y="1161"/>
      <point x="100" y="1027"/>
      <point x="100" y="786" type="curve" smooth="yes"/>
      <point x="100" y="782" type="line" smooth="yes"/>
      <point x="100" y="751"/>
      <point x="106" y="708"/>
      <point x="118" y="668" type="curve"/>
      <point x="324" y="668" type="line"/>
      <point x="315" y="702"/>
      <point x="311" y="732"/>
      <point x="311" y="761" type="curve" smooth="yes"/>
      <point x="311" y="764" type="line" smooth="yes"/>
      <point x="311" y="903"/>
      <point x="390" y="977"/>
      <point x="560" y="977" type="curve" smooth="yes"/>
      <point x="737" y="977"/>
      <point x="796" y="884"/>
      <point x="814" y="746" type="curve" smooth="yes"/>
      <point x="818" y="715" type="line"/>
      <point x="1015" y="715" type="line"/>
      <point x="1019" y="746" type="line" smooth="yes"/>
      <point x="1038" y="896"/>
      <point x="1119" y="977"/>
      <point x="1293" y="977" type="curve" smooth="yes"/>
      <point x="1467" y="977"/>
      <point x="1547" y="919"/>
      <point x="1547" y="817" type="curve" smooth="yes"/>
      <point x="1547" y="812" type="line" smooth="yes"/>
      <point x="1547" y="742"/>
      <point x="1516" y="683"/>
      <point x="1295" y="641" type="curve" smooth="yes"/>
      <point x="1014" y="587"/>
      <point x="886" y="502"/>
      <point x="886" y="311" type="curve" smooth="yes"/>
      <point x="886" y="308" type="line" smooth="yes"/>
      <point x="886" y="90"/>
      <point x="1124" y="-39"/>
    </contour>
  </outline>
</glyph>
<glyph name="vowelE.te" format="2">
  <advance width="1945"/>
  <unicode hex="0C0E"/>
  <outline>
    <contour>
      <point x="518" y="-35" type="curve" smooth="yes"/>
      <point x="742" y="-35"/>
      <point x="875" y="61"/>
      <point x="902" y="218" type="curve"/>
      <point x="908" y="218" type="line"/>
      <point x="950" y="60"/>
      <point x="1090" y="-35"/>
      <point x="1319" y="-35" type="curve" smooth="yes"/>
      <point x="1647" y="-35"/>
      <point x="1817" y="171"/>
      <point x="1817" y="554" type="curve" smooth="yes"/>
      <point x="1817" y="568" type="line" smooth="yes"/>
      <point x="1817" y="1091"/>
      <point x="1522" y="1364"/>
      <point x="946" y="1364" type="curve" smooth="yes"/>
      <point x="859" y="1364" type="line"/>
      <point x="826" y="1180" type="line"/>
      <point x="909" y="1180" type="line"/>
      <point x="1372" y="1180"/>
      <point x="1602" y="981"/>
      <point x="1602" y="571" type="curve" smooth="yes"/>
      <point x="1602" y="559" type="line" smooth="yes"/>
      <point x="1602" y="295"/>
      <point x="1493" y="158"/>
      <point x="1278" y="158" type="curve" smooth="yes"/>
      <point x="1117" y="158"/>
      <point x="1013" y="235"/>
      <point x="980" y="401" type="curve" smooth="yes"/>
      <point x="978" y="411" type="line" smooth="yes"/>
      <point x="937" y="615"/>
      <point x="793" y="726"/>
      <point x="539" y="726" type="curve" smooth="yes"/>
      <point x="259" y="726"/>
      <point x="100" y="588"/>
      <point x="100" y="345" type="curve" smooth="yes"/>
      <point x="100" y="337" type="line" smooth="yes"/>
      <point x="100" y="99"/>
      <point x="250" y="-35"/>
    </contour>
    <contour>
      <point x="539" y="157" type="curve" smooth="yes"/>
      <point x="385" y="157"/>
      <point x="301" y="225"/>
      <point x="301" y="347" type="curve" smooth="yes"/>
      <point x="301" y="353" type="line" smooth="yes"/>
      <point x="301" y="475"/>
      <point x="385" y="543"/>
      <point x="540" y="543" type="curve" smooth="yes"/>
      <point x="696" y="543"/>
      <point x="780" y="475"/>
      <point x="780" y="354" type="curve" smooth="yes"/>
      <point x="780" y="350" type="line" smooth="yes"/>
      <point x="780" y="226"/>
      <point x="696" y="157"/>
    </contour>
  </outline>
</glyph>
<glyph name="vowelEe.te" format="2">
  <advance width="1945"/>
  <unicode hex="0C0F"/>
  <outline>
    <contour>
      <point x="1023" y="1778" type="line"/>
      <point x="1039" y="1591" type="line"/>
      <point x="920" y="1591" type="line" smooth="yes"/>
      <point x="646" y="1591"/>
      <point x="515" y="1464"/>
      <point x="515" y="1192" type="curve" smooth="yes"/>
      <point x="515" y="1103" type="line"/>
      <point x="307" y="1103" type="line"/>
      <point x="307" y="1199" type="line" smooth="yes"/>
      <point x="307" y="1579"/>
      <point x="512" y="1778"/>
      <point x="893" y="1778" type="curve" smooth="yes"/>
    </contour>
    <component base="vowelE.te"/>
  </outline>
</glyph>
<glyph name="vowelAi.te" format="2">
  <advance width="1951"/>
  <unicode hex="0C10"/>
  <outline>
    <contour>
      <point x="533" y="-35" type="curve" smooth="yes"/>
      <point x="756" y="-35"/>
      <point x="890" y="56"/>
      <point x="915" y="222" type="curve"/>
      <point x="922" y="222" type="line"/>
      <point x="961" y="55"/>
      <point x="1100" y="-35"/>
      <point x="1328" y="-35" type="curve" smooth="yes"/>
      <point x="1654" y="-35"/>
      <point x="1823" y="177"/>
      <point x="1823" y="571" type="curve" smooth="yes"/>
      <point x="1823" y="586" type="line" smooth="yes"/>
      <point x="1823" y="960"/>
      <point x="1666" y="1161"/>
      <point x="1345" y="1161" type="curve" smooth="yes"/>
      <point x="1103" y="1161"/>
      <point x="983" y="1059"/>
      <point x="957" y="911" type="curve"/>
      <point x="951" y="911" type="line"/>
      <point x="924" y="1059"/>
      <point x="802" y="1161"/>
      <point x="562" y="1161" type="curve" smooth="yes"/>
      <point x="271" y="1161"/>
      <point x="118" y="1028"/>
      <point x="118" y="789" type="curve" smooth="yes"/>
      <point x="118" y="785" type="line" smooth="yes"/>
      <point x="118" y="763"/>
      <point x="120" y="732"/>
      <point x="126" y="700" type="curve"/>
      <point x="335" y="700" type="line"/>
      <point x="330" y="724"/>
      <point x="328" y="744"/>
      <point x="328" y="764" type="curve" smooth="yes"/>
      <point x="328" y="766" type="line" smooth="yes"/>
      <point x="328" y="904"/>
      <point x="412" y="977"/>
      <point x="590" y="977" type="curve" smooth="yes"/>
      <point x="764" y="977"/>
      <point x="834" y="898"/>
      <point x="851" y="763" type="curve" smooth="yes"/>
      <point x="854" y="739" type="line"/>
      <point x="1054" y="739" type="line"/>
      <point x="1057" y="763" type="line" smooth="yes"/>
      <point x="1074" y="898"/>
      <point x="1150" y="977"/>
      <point x="1316" y="977" type="curve" smooth="yes"/>
      <point x="1522" y="977"/>
      <point x="1608" y="844"/>
      <point x="1608" y="588" type="curve" smooth="yes"/>
      <point x="1608" y="573" type="line" smooth="yes"/>
      <point x="1608" y="298"/>
      <point x="1501" y="158"/>
      <point x="1288" y="158" type="curve" smooth="yes"/>
      <point x="1122" y="158"/>
      <point x="1018" y="229"/>
      <point x="992" y="376" type="curve" smooth="yes"/>
      <point x="989" y="393" type="line" smooth="yes"/>
      <point x="957" y="575"/>
      <point x="817" y="686"/>
      <point x="555" y="686" type="curve" smooth="yes"/>
      <point x="277" y="686"/>
      <point x="118" y="554"/>
      <point x="118" y="326" type="curve" smooth="yes"/>
      <point x="118" y="318" type="line" smooth="yes"/>
      <point x="118" y="91"/>
      <point x="268" y="-35"/>
    </contour>
    <contour>
      <point x="554" y="149" type="curve" smooth="yes"/>
      <point x="401" y="149"/>
      <point x="317" y="214"/>
      <point x="317" y="330" type="curve" smooth="yes"/>
      <point x="317" y="336" type="line" smooth="yes"/>
      <point x="317" y="452"/>
      <point x="401" y="517"/>
      <point x="555" y="517" type="curve" smooth="yes"/>
      <point x="710" y="517"/>
      <point x="794" y="452"/>
      <point x="794" y="337" type="curve" smooth="yes"/>
      <point x="794" y="333" type="line" smooth="yes"/>
      <point x="794" y="215"/>
      <point x="710" y="149"/>
    </contour>
  </outline>
</glyph>
<glyph name="vowelO.te" format="2">
  <advance width="1992"/>
  <unicode hex="0C12"/>
  <outline>
    <contour>
      <point x="572" y="-35" type="curve" smooth="yes"/>
      <point x="837" y="-35"/>
      <point x="981" y="76"/>
      <point x="1012" y="254" type="curve"/>
      <point x="1018" y="254" type="line"/>
      <point x="1048" y="76"/>
      <point x="1186" y="-35"/>
      <point x="1450" y="-35" type="curve" smooth="yes"/>
      <point x="1731" y="-35"/>
      <point x="1887" y="101"/>
      <point x="1887" y="346" type="curve" smooth="yes"/>
      <point x="1887" y="349" type="line" smooth="yes"/>
      <point x="1887" y="424"/>
      <point x="1868" y="489"/>
      <point x="1843" y="542" type="curve"/>
      <point x="1640" y="542" type="line"/>
      <point x="1662" y="500"/>
      <point x="1674" y="445"/>
      <point x="1674" y="393" type="curve" smooth="yes"/>
      <point x="1674" y="392" type="line" smooth="yes"/>
      <point x="1674" y="240"/>
      <point x="1583" y="161"/>
      <point x="1406" y="161" type="curve" smooth="yes"/>
      <point x="1233" y="161"/>
      <point x="1141" y="250"/>
      <point x="1122" y="422" type="curve" smooth="yes"/>
      <point x="1118" y="459" type="line"/>
      <point x="912" y="459" type="line"/>
      <point x="908" y="421" type="line" smooth="yes"/>
      <point x="890" y="250"/>
      <point x="785" y="154"/>
      <point x="595" y="154" type="curve" smooth="yes"/>
      <point x="425" y="154"/>
      <point x="332" y="209"/>
      <point x="332" y="308" type="curve" smooth="yes"/>
      <point x="332" y="311" type="line" smooth="yes"/>
      <point x="332" y="400"/>
      <point x="384" y="443"/>
      <point x="637" y="514" type="curve" smooth="yes"/>
      <point x="923" y="595"/>
      <point x="1022" y="683"/>
      <point x="1022" y="849" type="curve" smooth="yes"/>
      <point x="1022" y="852" type="line" smooth="yes"/>
      <point x="1022" y="1050"/>
      <point x="863" y="1161"/>
      <point x="576" y="1161" type="curve" smooth="yes"/>
      <point x="291" y="1161"/>
      <point x="135" y="1050"/>
      <point x="135" y="845" type="curve" smooth="yes"/>
      <point x="135" y="843" type="line" smooth="yes"/>
      <point x="135" y="791"/>
      <point x="149" y="732"/>
      <point x="176" y="676" type="curve"/>
      <point x="372" y="676" type="line"/>
      <point x="346" y="726"/>
      <point x="335" y="771"/>
      <point x="335" y="816" type="curve" smooth="yes"/>
      <point x="335" y="817" type="line" smooth="yes"/>
      <point x="335" y="930"/>
      <point x="420" y="989"/>
      <point x="578" y="989" type="curve" smooth="yes"/>
      <point x="733" y="989"/>
      <point x="817" y="935"/>
      <point x="817" y="845" type="curve" smooth="yes"/>
      <point x="817" y="843" type="line" smooth="yes"/>
      <point x="817" y="760"/>
      <point x="755" y="723"/>
      <point x="527" y="657" type="curve" smooth="yes"/>
      <point x="207" y="568"/>
      <point x="115" y="471"/>
      <point x="115" y="291" type="curve" smooth="yes"/>
      <point x="115" y="286" type="line" smooth="yes"/>
      <point x="115" y="81"/>
      <point x="277" y="-35"/>
    </contour>
  </outline>
</glyph>
<glyph name="vowelOo.te" format="2">
  <advance width="1992"/>
  <unicode hex="0C13"/>
  <outline>
    <contour>
      <point x="990" y="1326" type="curve"/>
      <point x="974" y="1504" type="line"/>
      <point x="886" y="1550"/>
      <point x="768" y="1586"/>
      <point x="611" y="1586" type="curve" smooth="yes"/>
      <point x="356" y="1586"/>
      <point x="220" y="1496"/>
      <point x="220" y="1334" type="curve" smooth="yes"/>
      <point x="220" y="1205"/>
      <point x="317" y="1119"/>
      <point x="544" y="1103" type="curve"/>
      <point x="591" y="1158" type="line"/>
      <point x="467" y="1163"/>
      <point x="408" y="1212"/>
      <point x="408" y="1285" type="curve" smooth="yes"/>
      <point x="408" y="1375"/>
      <point x="488" y="1421"/>
      <point x="643" y="1421" type="curve" smooth="yes"/>
      <point x="787" y="1421"/>
      <point x="905" y="1380"/>
    </contour>
    <component base="vowelO.te"/>
  </outline>
</glyph>
<glyph name="vowelAu.te" format="2">
  <advance width="2068"/>
  <unicode hex="0C14"/>
  <outline>
    <contour>
      <point x="572" y="-35" type="curve" smooth="yes"/>
      <point x="837" y="-35"/>
      <point x="981" y="76"/>
      <point x="1012" y="254" type="curve"/>
      <point x="1018" y="254" type="line"/>
      <point x="1048" y="76"/>
      <point x="1186" y="-35"/>
      <point x="1450" y="-35" type="curve" smooth="yes"/>
      <point x="1734" y="-35"/>
      <point x="1887" y="99"/>
      <point x="1887" y="346" type="curve" smooth="yes"/>
      <point x="1887" y="349" type="line" smooth="yes"/>
      <point x="1887" y="419"/>
      <point x="1870" y="479"/>
      <point x="1848" y="528" type="curve"/>
      <point x="1645" y="528" type="line"/>
      <point x="1665" y="488"/>
      <point x="1674" y="437"/>
      <point x="1674" y="393" type="curve" smooth="yes"/>
      <point x="1674" y="392" type="line" smooth="yes"/>
      <point x="1674" y="240"/>
      <point x="1583" y="161"/>
      <point x="1406" y="161" type="curve" smooth="yes"/>
      <point x="1230" y="161"/>
      <point x="1141" y="250"/>
      <point x="1122" y="422" type="curve" smooth="yes"/>
      <point x="1118" y="459" type="line"/>
      <point x="912" y="459" type="line"/>
      <point x="908" y="421" type="line" smooth="yes"/>
      <point x="890" y="250"/>
      <point x="785" y="154"/>
      <point x="595" y="154" type="curve" smooth="yes"/>
      <point x="425" y="154"/>
      <point x="332" y="209"/>
      <point x="332" y="308" type="curve" smooth="yes"/>
      <point x="332" y="311" type="line" smooth="yes"/>
      <point x="332" y="400"/>
      <point x="384" y="441"/>
      <point x="637" y="514" type="curve" smooth="yes"/>
      <point x="923" y="595"/>
      <point x="1022" y="683"/>
      <point x="1022" y="849" type="curve" smooth="yes"/>
      <point x="1022" y="852" type="line" smooth="yes"/>
      <point x="1022" y="1050"/>
      <point x="863" y="1161"/>
      <point x="577" y="1161" type="curve" smooth="yes"/>
      <point x="291" y="1161"/>
      <point x="135" y="1050"/>
      <point x="135" y="845" type="curve" smooth="yes"/>
      <point x="135" y="843" type="line" smooth="yes"/>
      <point x="135" y="791"/>
      <point x="149" y="732"/>
      <point x="176" y="676" type="curve"/>
      <point x="372" y="676" type="line"/>
      <point x="346" y="726"/>
      <point x="335" y="771"/>
      <point x="335" y="816" type="curve" smooth="yes"/>
      <point x="335" y="817" type="line" smooth="yes"/>
      <point x="335" y="930"/>
      <point x="420" y="989"/>
      <point x="578" y="989" type="curve" smooth="yes"/>
      <point x="733" y="989"/>
      <point x="817" y="935"/>
      <point x="817" y="845" type="curve" smooth="yes"/>
      <point x="817" y="843" type="line" smooth="yes"/>
      <point x="817" y="760"/>
      <point x="755" y="723"/>
      <point x="527" y="657" type="curve" smooth="yes"/>
      <point x="207" y="568"/>
      <point x="115" y="471"/>
      <point x="115" y="291" type="curve" smooth="yes"/>
      <point x="115" y="286" type="line" smooth="yes"/>
      <point x="115" y="81"/>
      <point x="277" y="-35"/>
    </contour>
    <contour>
      <point x="634" y="1082" type="line"/>
      <point x="864" y="1082"/>
      <point x="938" y="1153"/>
      <point x="938" y="1255" type="curve" smooth="yes"/>
      <point x="938" y="1362"/>
      <point x="841" y="1428"/>
      <point x="650" y="1428" type="curve" smooth="yes"/>
      <point x="486" y="1428" type="line"/>
      <point x="486" y="1373" type="line"/>
      <point x="600" y="1373" type="line" smooth="yes"/>
      <point x="696" y="1373"/>
      <point x="744" y="1333"/>
      <point x="744" y="1269" type="curve" smooth="yes"/>
      <point x="744" y="1204"/>
      <point x="695" y="1161"/>
      <point x="577" y="1161" type="curve"/>
    </contour>
    <contour>
      <point x="1602" y="616" type="curve" smooth="yes"/>
      <point x="1870" y="616"/>
      <point x="2012" y="778"/>
      <point x="2012" y="1029" type="curve" smooth="yes"/>
      <point x="2012" y="1036" type="line" smooth="yes"/>
      <point x="2012" y="1347"/>
      <point x="1825" y="1548"/>
      <point x="1417" y="1548" type="curve" smooth="yes"/>
      <point x="215" y="1548" type="line"/>
      <point x="180" y="1373" type="line"/>
      <point x="795" y="1373" type="line"/>
      <point x="801" y="1378" type="line"/>
      <point x="1000" y="1373" type="line"/>
      <point x="1417" y="1373" type="line" smooth="yes"/>
      <point x="1708" y="1373"/>
      <point x="1828" y="1243"/>
      <point x="1828" y="1068" type="curve"/>
      <point x="1828" y="1067" type="line"/>
      <point x="1818" y="1067" type="line"/>
      <point x="1824" y="1000" type="line"/>
      <point x="1824" y="998" type="line"/>
      <point x="1824" y="868"/>
      <point x="1746" y="792"/>
      <point x="1602" y="792" type="curve" smooth="yes"/>
      <point x="1477" y="792"/>
      <point x="1410" y="845"/>
      <point x="1410" y="934" type="curve" smooth="yes"/>
      <point x="1410" y="936" type="line" smooth="yes"/>
      <point x="1410" y="1023"/>
      <point x="1477" y="1074"/>
      <point x="1594" y="1074" type="curve" smooth="yes"/>
      <point x="1698" y="1074"/>
      <point x="1784" y="1040"/>
      <point x="1830" y="969" type="curve"/>
      <point x="1823" y="1065" type="line"/>
      <point x="1787" y="1159"/>
      <point x="1703" y="1236"/>
      <point x="1538" y="1236" type="curve" smooth="yes"/>
      <point x="1342" y="1236"/>
      <point x="1214" y="1119"/>
      <point x="1214" y="939" type="curve" smooth="yes"/>
      <point x="1214" y="935" type="line" smooth="yes"/>
      <point x="1214" y="750"/>
      <point x="1357" y="616"/>
    </contour>
  </outline>
</glyph>
<glyph name="Ka.te" format="2">
  <advance width="1551"/>
  <unicode hex="0C15"/>
  <anchor x="773" y="-69" name="bottom"/>
  <outline>
    <contour>
      <point x="773" y="-39" type="curve" smooth="yes"/>
      <point x="1203" y="-39"/>
      <point x="1423" y="81"/>
      <point x="1423" y="314" type="curve" smooth="yes"/>
      <point x="1423" y="316" type="line" smooth="yes"/>
      <point x="1423" y="528"/>
      <point x="1280" y="624"/>
      <point x="997" y="644" type="curve" smooth="yes"/>
      <point x="592" y="672" type="line" smooth="yes"/>
      <point x="420" y="684"/>
      <point x="353" y="720"/>
      <point x="353" y="797" type="curve" smooth="yes"/>
      <point x="353" y="799" type="line" smooth="yes"/>
      <point x="353" y="909"/>
      <point x="488" y="966"/>
      <point x="762" y="966" type="curve" smooth="yes"/>
      <point x="1051" y="966"/>
      <point x="1189" y="909"/>
      <point x="1189" y="790" type="curve" smooth="yes"/>
      <point x="1189" y="788" type="line" smooth="yes"/>
      <point x="1189" y="775"/>
      <point x="1189" y="762"/>
      <point x="1185" y="743" type="curve"/>
      <point x="1389" y="743" type="line"/>
      <point x="1395" y="772"/>
      <point x="1396" y="794"/>
      <point x="1396" y="816" type="curve" smooth="yes"/>
      <point x="1396" y="819" type="line" smooth="yes"/>
      <point x="1396" y="1014"/>
      <point x="1221" y="1132"/>
      <point x="762" y="1132" type="curve" smooth="yes"/>
      <point x="346" y="1132"/>
      <point x="143" y="1013"/>
      <point x="143" y="794" type="curve" smooth="yes"/>
      <point x="143" y="792" type="line" smooth="yes"/>
      <point x="143" y="599"/>
      <point x="279" y="510"/>
      <point x="548" y="491" type="curve" smooth="yes"/>
      <point x="954" y="463" type="line" smooth="yes"/>
      <point x="1142" y="450"/>
      <point x="1211" y="411"/>
      <point x="1211" y="318" type="curve" smooth="yes"/>
      <point x="1211" y="317" type="line" smooth="yes"/>
      <point x="1211" y="202"/>
      <point x="1072" y="148"/>
      <point x="774" y="148" type="curve" smooth="yes"/>
      <point x="478" y="148"/>
      <point x="335" y="206"/>
      <point x="335" y="331" type="curve" smooth="yes"/>
      <point x="335" y="332" type="line" smooth="yes"/>
      <point x="335" y="347"/>
      <point x="336" y="362"/>
      <point x="339" y="380" type="curve"/>
      <point x="135" y="380" type="line"/>
      <point x="130" y="355"/>
      <point x="128" y="333"/>
      <point x="128" y="310" type="curve" smooth="yes"/>
      <point x="128" y="308" type="line" smooth="yes"/>
      <point x="128" y="78"/>
      <point x="346" y="-39"/>
    </contour>
    <contour>
      <point x="701" y="1052" type="curve"/>
      <point x="837" y="1062" type="line"/>
      <point x="1008" y="1062"/>
      <point x="1099" y="1133"/>
      <point x="1175" y="1216" type="curve" smooth="yes"/>
      <point x="1315" y="1369" type="line" smooth="yes"/>
      <point x="1384" y="1444"/>
      <point x="1448" y="1466"/>
      <point x="1535" y="1466" type="curve" smooth="yes"/>
      <point x="1603" y="1466" type="line"/>
      <point x="1585" y="1654" type="line"/>
      <point x="1509" y="1654" type="line" smooth="yes"/>
      <point x="1365" y="1654"/>
      <point x="1273" y="1606"/>
      <point x="1178" y="1503" type="curve" smooth="yes"/>
      <point x="957" y="1264" type="line" smooth="yes"/>
      <point x="880" y="1181"/>
      <point x="823" y="1143"/>
      <point x="745" y="1143" type="curve" smooth="yes"/>
      <point x="735" y="1143" type="line" smooth="yes"/>
      <point x="645" y="1143"/>
      <point x="591" y="1191"/>
      <point x="548" y="1269" type="curve" smooth="yes"/>
      <point x="467" y="1417" type="line"/>
      <point x="236" y="1417" type="line"/>
      <point x="331" y="1241" type="line" smooth="yes"/>
      <point x="396" y="1121"/>
      <point x="489" y="1052"/>
    </contour>
  </outline>
</glyph>
<glyph name="Ga.te" format="2">
  <advance width="1613"/>
  <unicode hex="0C17"/>
  <anchor x="804" y="-69" name="bottom"/>
  <outline>
    <contour>
      <point x="266" y="0" type="curve"/>
      <point x="503" y="0" type="line"/>
      <point x="402" y="167"/>
      <point x="347" y="329"/>
      <point x="347" y="505" type="curve" smooth="yes"/>
      <point x="347" y="518" type="line" smooth="yes"/>
      <point x="347" y="814"/>
      <point x="501" y="965"/>
      <point x="807" y="965" type="curve" smooth="yes"/>
      <point x="1113" y="965"/>
      <point x="1267" y="814"/>
      <point x="1267" y="518" type="curve" smooth="yes"/>
      <point x="1267" y="505" type="line" smooth="yes"/>
      <point x="1267" y="329"/>
      <point x="1211" y="167"/>
      <point x="1110" y="0" type="curve"/>
      <point x="1348" y="0" type="line"/>
      <point x="1441" y="164"/>
      <point x="1486" y="327"/>
      <point x="1486" y="500" type="curve" smooth="yes"/>
      <point x="1486" y="516" type="line" smooth="yes"/>
      <point x="1486" y="925"/>
      <point x="1264" y="1128"/>
      <point x="807" y="1128" type="curve" smooth="yes"/>
      <point x="350" y="1128"/>
      <point x="128" y="925"/>
      <point x="128" y="516" type="curve" smooth="yes"/>
      <point x="128" y="500" type="line" smooth="yes"/>
      <point x="128" y="327"/>
      <point x="171" y="166"/>
    </contour>
    <contour>
      <point x="737" y="1052" type="curve"/>
      <point x="873" y="1062" type="line"/>
      <point x="1044" y="1062"/>
      <point x="1135" y="1133"/>
      <point x="1211" y="1216" type="curve" smooth="yes"/>
      <point x="1351" y="1369" type="line" smooth="yes"/>
      <point x="1420" y="1444"/>
      <point x="1484" y="1466"/>
      <point x="1571" y="1466" type="curve" smooth="yes"/>
      <point x="1637" y="1466" type="line"/>
      <point x="1619" y="1654" type="line"/>
      <point x="1545" y="1654" type="line" smooth="yes"/>
      <point x="1401" y="1654"/>
      <point x="1309" y="1606"/>
      <point x="1214" y="1503" type="curve" smooth="yes"/>
      <point x="993" y="1264" type="line" smooth="yes"/>
      <point x="916" y="1181"/>
      <point x="859" y="1143"/>
      <point x="781" y="1143" type="curve" smooth="yes"/>
      <point x="771" y="1143" type="line" smooth="yes"/>
      <point x="681" y="1143"/>
      <point x="627" y="1191"/>
      <point x="584" y="1269" type="curve" smooth="yes"/>
      <point x="503" y="1417" type="line"/>
      <point x="272" y="1417" type="line"/>
      <point x="367" y="1241" type="line" smooth="yes"/>
      <point x="432" y="1121"/>
      <point x="525" y="1052"/>
    </contour>
  </outline>
</glyph>
<glyph name="Gha.te" format="2">
  <advance width="2840"/>
  <unicode hex="0C18"/>
  <anchor x="1403" y="-203" name="bottom"/>
  <outline>
    <contour>
      <point x="518" y="-35" type="curve" smooth="yes"/>
      <point x="742" y="-35"/>
      <point x="875" y="61"/>
      <point x="902" y="218" type="curve"/>
      <point x="908" y="218" type="line"/>
      <point x="950" y="60"/>
      <point x="1091" y="-35"/>
      <point x="1324" y="-35" type="curve" smooth="yes"/>
      <point x="1572" y="-35"/>
      <point x="1731" y="92"/>
      <point x="1772" y="330" type="curve"/>
      <point x="1791" y="388"/>
      <point x="1808" y="444"/>
      <point x="1808" y="513" type="curve" smooth="yes"/>
      <point x="1808" y="525" type="line"/>
      <point x="1594" y="529" type="line"/>
      <point x="1594" y="519" type="line" smooth="yes"/>
      <point x="1594" y="281"/>
      <point x="1488" y="158"/>
      <point x="1282" y="158" type="curve" smooth="yes"/>
      <point x="1117" y="158"/>
      <point x="1013" y="235"/>
      <point x="980" y="401" type="curve" smooth="yes"/>
      <point x="978" y="411" type="line" smooth="yes"/>
      <point x="937" y="615"/>
      <point x="793" y="726"/>
      <point x="539" y="726" type="curve" smooth="yes"/>
      <point x="259" y="726"/>
      <point x="100" y="588"/>
      <point x="100" y="345" type="curve" smooth="yes"/>
      <point x="100" y="337" type="line" smooth="yes"/>
      <point x="100" y="99"/>
      <point x="250" y="-35"/>
    </contour>
    <contour>
      <point x="539" y="157" type="curve" smooth="yes"/>
      <point x="385" y="157"/>
      <point x="301" y="225"/>
      <point x="301" y="347" type="curve" smooth="yes"/>
      <point x="301" y="353" type="line" smooth="yes"/>
      <point x="301" y="475"/>
      <point x="385" y="543"/>
      <point x="540" y="543" type="curve" smooth="yes"/>
      <point x="696" y="543"/>
      <point x="780" y="475"/>
      <point x="780" y="354" type="curve" smooth="yes"/>
      <point x="780" y="350" type="line" smooth="yes"/>
      <point x="780" y="226"/>
      <point x="696" y="157"/>
    </contour>
    <contour>
      <point x="1594" y="525" type="line"/>
      <point x="1808" y="521" type="line"/>
      <point x="1808" y="529" type="line" smooth="yes"/>
      <point x="1808" y="925"/>
      <point x="1598" y="1143"/>
      <point x="1203" y="1143" type="curve"/>
      <point x="1182" y="1143" type="line"/>
      <point x="1148" y="958" type="line"/>
      <point x="1161" y="958" type="line"/>
      <point x="1447" y="958"/>
      <point x="1594" y="812"/>
      <point x="1594" y="532" type="curve" smooth="yes"/>
    </contour>
    <contour>
      <point x="577" y="966" type="curve" smooth="yes"/>
      <point x="598" y="966" type="line" smooth="yes"/>
      <point x="744" y="966"/>
      <point x="864" y="1036"/>
      <point x="983" y="1163" type="curve" smooth="yes"/>
      <point x="1174" y="1367" type="line" smooth="yes"/>
      <point x="1248" y="1447"/>
      <point x="1316" y="1463"/>
      <point x="1394" y="1463" type="curve" smooth="yes"/>
      <point x="1544" y="1463" type="line"/>
      <point x="1525" y="1651" type="line"/>
      <point x="1368" y="1651" type="line" smooth="yes"/>
      <point x="1227" y="1651"/>
      <point x="1137" y="1606"/>
      <point x="1039" y="1501" type="curve" smooth="yes"/>
      <point x="816" y="1260" type="line" smooth="yes"/>
      <point x="744" y="1183"/>
      <point x="681" y="1143"/>
      <point x="598" y="1143" type="curve" smooth="yes"/>
      <point x="588" y="1143" type="line" smooth="yes"/>
      <point x="498" y="1143"/>
      <point x="434" y="1184"/>
      <point x="391" y="1267" type="curve" smooth="yes"/>
      <point x="313" y="1417" type="line"/>
      <point x="92" y="1417" type="line"/>
      <point x="197" y="1217" type="line" smooth="yes"/>
      <point x="293" y="1034"/>
      <point x="401" y="966"/>
    </contour>
    <component base="kombu_1" xOffset="909" yOffset="-9"/>
    <component base="matraU.te" xOffset="1895"/>
  </outline>
</glyph>
<glyph name="Nga.te" format="2">
  <advance width="2007"/>
  <unicode hex="0C19"/>
  <anchor x="1014" y="-69" name="bottom"/>
  <outline>
    <contour>
      <point x="572" y="-35" type="curve" smooth="yes"/>
      <point x="837" y="-35"/>
      <point x="981" y="76"/>
      <point x="1012" y="254" type="curve"/>
      <point x="1018" y="254" type="line"/>
      <point x="1048" y="76"/>
      <point x="1186" y="-35"/>
      <point x="1450" y="-35" type="curve" smooth="yes"/>
      <point x="1731" y="-35"/>
      <point x="1887" y="101"/>
      <point x="1887" y="346" type="curve" smooth="yes"/>
      <point x="1887" y="349" type="line" smooth="yes"/>
      <point x="1887" y="424"/>
      <point x="1868" y="489"/>
      <point x="1843" y="542" type="curve"/>
      <point x="1640" y="542" type="line"/>
      <point x="1662" y="500"/>
      <point x="1674" y="445"/>
      <point x="1674" y="393" type="curve" smooth="yes"/>
      <point x="1674" y="392" type="line" smooth="yes"/>
      <point x="1674" y="240"/>
      <point x="1583" y="161"/>
      <point x="1406" y="161" type="curve" smooth="yes"/>
      <point x="1233" y="161"/>
      <point x="1141" y="250"/>
      <point x="1122" y="422" type="curve" smooth="yes"/>
      <point x="1118" y="459" type="line"/>
      <point x="912" y="459" type="line"/>
      <point x="908" y="421" type="line" smooth="yes"/>
      <point x="890" y="250"/>
      <point x="785" y="154"/>
      <point x="595" y="154" type="curve" smooth="yes"/>
      <point x="425" y="154"/>
      <point x="332" y="209"/>
      <point x="332" y="308" type="curve" smooth="yes"/>
      <point x="332" y="311" type="line" smooth="yes"/>
      <point x="332" y="400"/>
      <point x="384" y="443"/>
      <point x="637" y="514" type="curve" smooth="yes"/>
      <point x="923" y="595"/>
      <point x="1022" y="683"/>
      <point x="1022" y="849" type="curve" smooth="yes"/>
      <point x="1022" y="852" type="line" smooth="yes"/>
      <point x="1022" y="1050"/>
      <point x="863" y="1161"/>
      <point x="576" y="1161" type="curve" smooth="yes"/>
      <point x="291" y="1161"/>
      <point x="135" y="1050"/>
      <point x="135" y="845" type="curve" smooth="yes"/>
      <point x="135" y="843" type="line" smooth="yes"/>
      <point x="135" y="791"/>
      <point x="149" y="732"/>
      <point x="176" y="676" type="curve"/>
      <point x="372" y="676" type="line"/>
      <point x="346" y="726"/>
      <point x="335" y="771"/>
      <point x="335" y="816" type="curve" smooth="yes"/>
      <point x="335" y="817" type="line" smooth="yes"/>
      <point x="335" y="930"/>
      <point x="420" y="989"/>
      <point x="578" y="989" type="curve" smooth="yes"/>
      <point x="733" y="989"/>
      <point x="817" y="935"/>
      <point x="817" y="845" type="curve" smooth="yes"/>
      <point x="817" y="843" type="line" smooth="yes"/>
      <point x="817" y="760"/>
      <point x="755" y="723"/>
      <point x="527" y="657" type="curve" smooth="yes"/>
      <point x="207" y="568"/>
      <point x="115" y="471"/>
      <point x="115" y="291" type="curve" smooth="yes"/>
      <point x="115" y="286" type="line" smooth="yes"/>
      <point x="115" y="81"/>
      <point x="277" y="-35"/>
    </contour>
    <contour>
      <point x="949" y="689" type="line"/>
      <point x="1841" y="689" type="line"/>
      <point x="1841" y="854" type="line"/>
      <point x="949" y="854" type="line"/>
    </contour>
    <contour>
      <point x="1352" y="795" type="curve"/>
      <point x="1448" y="795" type="line"/>
      <point x="1485" y="896"/>
      <point x="1511" y="975"/>
      <point x="1511" y="1050" type="curve" smooth="yes"/>
      <point x="1511" y="1114"/>
      <point x="1492" y="1152"/>
      <point x="1482" y="1170" type="curve"/>
      <point x="1318" y="1170" type="line"/>
      <point x="1307" y="1152"/>
      <point x="1288" y="1115"/>
      <point x="1288" y="1050" type="curve" smooth="yes"/>
      <point x="1288" y="974"/>
      <point x="1313" y="896"/>
    </contour>
  </outline>
</glyph>
<glyph name="Ca.te" format="2">
  <advance width="2037"/>
  <unicode hex="0C1A"/>
  <anchor x="1035" y="-69" name="bottom"/>
  <outline>
    <contour>
      <point x="600" y="-35" type="curve" smooth="yes"/>
      <point x="858" y="-35"/>
      <point x="1002" y="76"/>
      <point x="1032" y="254" type="curve"/>
      <point x="1039" y="254" type="line"/>
      <point x="1068" y="76"/>
      <point x="1199" y="-35"/>
      <point x="1438" y="-35" type="curve" smooth="yes"/>
      <point x="1745" y="-35"/>
      <point x="1910" y="136"/>
      <point x="1910" y="454" type="curve" smooth="yes"/>
      <point x="1910" y="469" type="line" smooth="yes"/>
      <point x="1910" y="912"/>
      <point x="1638" y="1138"/>
      <point x="1101" y="1138" type="curve"/>
      <point x="981" y="1065" type="line"/>
      <point x="996" y="965" type="line"/>
      <point x="1059" y="965" type="line" smooth="yes"/>
      <point x="1485" y="965"/>
      <point x="1695" y="804"/>
      <point x="1695" y="484" type="curve" smooth="yes"/>
      <point x="1695" y="468" type="line" smooth="yes"/>
      <point x="1695" y="264"/>
      <point x="1598" y="161"/>
      <point x="1407" y="161" type="curve" smooth="yes"/>
      <point x="1244" y="161"/>
      <point x="1161" y="249"/>
      <point x="1142" y="422" type="curve" smooth="yes"/>
      <point x="1138" y="459" type="line"/>
      <point x="932" y="459" type="line"/>
      <point x="928" y="422" type="line" smooth="yes"/>
      <point x="909" y="249"/>
      <point x="815" y="161"/>
      <point x="640" y="161" type="curve" smooth="yes"/>
      <point x="468" y="161"/>
      <point x="377" y="228"/>
      <point x="377" y="353" type="curve" smooth="yes"/>
      <point x="377" y="356" type="line" smooth="yes"/>
      <point x="377" y="450"/>
      <point x="420" y="538"/>
      <point x="593" y="588" type="curve"/>
      <point x="716" y="596" type="line"/>
      <point x="716" y="754" type="line"/>
      <point x="78" y="773" type="line"/>
      <point x="78" y="588" type="line"/>
      <point x="365" y="591" type="line"/>
      <point x="365" y="586" type="line"/>
      <point x="243" y="528"/>
      <point x="175" y="439"/>
      <point x="175" y="310" type="curve" smooth="yes"/>
      <point x="175" y="304" type="line" smooth="yes"/>
      <point x="175" y="98"/>
      <point x="325" y="-35"/>
    </contour>
    <contour>
      <point x="996" y="965" type="curve"/>
      <point x="1100" y="1063" type="line"/>
      <point x="1273" y="1063"/>
      <point x="1356" y="1140"/>
      <point x="1434" y="1220" type="curve" smooth="yes"/>
      <point x="1579" y="1369" type="line" smooth="yes"/>
      <point x="1658" y="1450"/>
      <point x="1722" y="1466"/>
      <point x="1799" y="1466" type="curve" smooth="yes"/>
      <point x="1875" y="1466" type="line"/>
      <point x="1857" y="1654" type="line"/>
      <point x="1774" y="1654" type="line" smooth="yes"/>
      <point x="1633" y="1654"/>
      <point x="1541" y="1608"/>
      <point x="1445" y="1502" type="curve" smooth="yes"/>
      <point x="1227" y="1260" type="line" smooth="yes"/>
      <point x="1160" y="1185"/>
      <point x="1095" y="1143"/>
      <point x="1009" y="1143" type="curve" smooth="yes"/>
      <point x="999" y="1143" type="line" smooth="yes"/>
      <point x="900" y="1143"/>
      <point x="841" y="1192"/>
      <point x="802" y="1267" type="curve" smooth="yes"/>
      <point x="724" y="1417" type="line"/>
      <point x="500" y="1417" type="line"/>
      <point x="590" y="1241" type="line" smooth="yes"/>
      <point x="678" y="1069"/>
      <point x="766" y="965"/>
    </contour>
  </outline>
</glyph>
<glyph name="Ja.te" format="2">
  <advance width="2009"/>
  <unicode hex="0C1C"/>
  <anchor x="1018" y="-69" name="bottom"/>
  <outline>
    <contour>
      <point x="572" y="-35" type="curve" smooth="yes"/>
      <point x="837" y="-35"/>
      <point x="981" y="76"/>
      <point x="1012" y="254" type="curve"/>
      <point x="1018" y="254" type="line"/>
      <point x="1048" y="76"/>
      <point x="1186" y="-35"/>
      <point x="1450" y="-35" type="curve" smooth="yes"/>
      <point x="1731" y="-35"/>
      <point x="1887" y="101"/>
      <point x="1887" y="346" type="curve" smooth="yes"/>
      <point x="1887" y="349" type="line" smooth="yes"/>
      <point x="1887" y="424"/>
      <point x="1868" y="489"/>
      <point x="1843" y="542" type="curve"/>
      <point x="1640" y="542" type="line"/>
      <point x="1662" y="500"/>
      <point x="1674" y="445"/>
      <point x="1674" y="393" type="curve" smooth="yes"/>
      <point x="1674" y="392" type="line" smooth="yes"/>
      <point x="1674" y="240"/>
      <point x="1583" y="161"/>
      <point x="1406" y="161" type="curve" smooth="yes"/>
      <point x="1233" y="161"/>
      <point x="1141" y="250"/>
      <point x="1122" y="422" type="curve" smooth="yes"/>
      <point x="1118" y="459" type="line"/>
      <point x="912" y="459" type="line"/>
      <point x="908" y="421" type="line" smooth="yes"/>
      <point x="890" y="250"/>
      <point x="785" y="154"/>
      <point x="595" y="154" type="curve" smooth="yes"/>
      <point x="425" y="154"/>
      <point x="332" y="209"/>
      <point x="332" y="308" type="curve" smooth="yes"/>
      <point x="332" y="311" type="line" smooth="yes"/>
      <point x="332" y="400"/>
      <point x="384" y="443"/>
      <point x="637" y="514" type="curve" smooth="yes"/>
      <point x="923" y="595"/>
      <point x="1022" y="683"/>
      <point x="1022" y="849" type="curve" smooth="yes"/>
      <point x="1022" y="852" type="line" smooth="yes"/>
      <point x="1022" y="1050"/>
      <point x="863" y="1161"/>
      <point x="576" y="1161" type="curve" smooth="yes"/>
      <point x="291" y="1161"/>
      <point x="135" y="1050"/>
      <point x="135" y="845" type="curve" smooth="yes"/>
      <point x="135" y="843" type="line" smooth="yes"/>
      <point x="135" y="791"/>
      <point x="149" y="732"/>
      <point x="176" y="676" type="curve"/>
      <point x="372" y="676" type="line"/>
      <point x="346" y="726"/>
      <point x="335" y="771"/>
      <point x="335" y="816" type="curve" smooth="yes"/>
      <point x="335" y="817" type="line" smooth="yes"/>
      <point x="335" y="930"/>
      <point x="420" y="989"/>
      <point x="578" y="989" type="curve" smooth="yes"/>
      <point x="733" y="989"/>
      <point x="817" y="935"/>
      <point x="817" y="845" type="curve" smooth="yes"/>
      <point x="817" y="843" type="line" smooth="yes"/>
      <point x="817" y="760"/>
      <point x="755" y="723"/>
      <point x="527" y="657" type="curve" smooth="yes"/>
      <point x="207" y="568"/>
      <point x="115" y="471"/>
      <point x="115" y="291" type="curve" smooth="yes"/>
      <point x="115" y="286" type="line" smooth="yes"/>
      <point x="115" y="81"/>
      <point x="277" y="-35"/>
    </contour>
    <contour>
      <point x="1430" y="623" type="curve" smooth="yes"/>
      <point x="1712" y="623"/>
      <point x="1870" y="736"/>
      <point x="1870" y="943" type="curve" smooth="yes"/>
      <point x="1870" y="946" type="line" smooth="yes"/>
      <point x="1870" y="1028"/>
      <point x="1841" y="1094"/>
      <point x="1792" y="1143" type="curve"/>
      <point x="1592" y="1143" type="line"/>
      <point x="1644" y="1095"/>
      <point x="1660" y="1044"/>
      <point x="1660" y="987" type="curve" smooth="yes"/>
      <point x="1660" y="985" type="line" smooth="yes"/>
      <point x="1660" y="868"/>
      <point x="1571" y="798"/>
      <point x="1380" y="798" type="curve" smooth="yes"/>
      <point x="1212" y="798"/>
      <point x="1063" y="851"/>
      <point x="984" y="992" type="curve"/>
      <point x="917" y="858" type="line"/>
      <point x="1015" y="710"/>
      <point x="1178" y="623"/>
    </contour>
  </outline>
</glyph>
<glyph name="Nya.te" format="2">
  <advance width="2494"/>
  <unicode hex="0C1E"/>
  <anchor x="993" y="-69" name="bottom"/>
  <outline>
    <contour>
      <point x="2036" y="702" type="curve"/>
      <point x="2132" y="702" type="line"/>
      <point x="2170" y="828"/>
      <point x="2196" y="930"/>
      <point x="2196" y="1003" type="curve" smooth="yes"/>
      <point x="2196" y="1077"/>
      <point x="2177" y="1121"/>
      <point x="2166" y="1143" type="curve"/>
      <point x="2003" y="1143" type="line"/>
      <point x="1991" y="1121"/>
      <point x="1973" y="1075"/>
      <point x="1973" y="1003" type="curve" smooth="yes"/>
      <point x="1973" y="933"/>
      <point x="1997" y="828"/>
    </contour>
    <contour>
      <point x="1686" y="605" type="line"/>
      <point x="2442" y="605" type="line"/>
      <point x="2442" y="770" type="line"/>
      <point x="1686" y="770" type="line"/>
    </contour>
    <component base="vowelI.te"/>
  </outline>
</glyph>
<glyph name="Tta.te" format="2">
  <advance width="2085"/>
  <unicode hex="0C1F"/>
  <anchor x="1054" y="-69" name="bottom"/>
  <outline>
    <contour>
      <point x="639" y="-35" type="curve" smooth="yes"/>
      <point x="887" y="-35"/>
      <point x="1024" y="79"/>
      <point x="1051" y="254" type="curve"/>
      <point x="1057" y="254" type="line"/>
      <point x="1084" y="79"/>
      <point x="1224" y="-35"/>
      <point x="1477" y="-35" type="curve" smooth="yes"/>
      <point x="1790" y="-35"/>
      <point x="1957" y="158"/>
      <point x="1957" y="517" type="curve"/>
      <point x="1957" y="524" type="line"/>
      <point x="1743" y="524" type="line"/>
      <point x="1743" y="519" type="line"/>
      <point x="1743" y="281"/>
      <point x="1642" y="161"/>
      <point x="1445" y="161" type="curve" smooth="yes"/>
      <point x="1273" y="161"/>
      <point x="1182" y="248"/>
      <point x="1162" y="422" type="curve" smooth="yes"/>
      <point x="1158" y="457" type="line"/>
      <point x="950" y="457" type="line"/>
      <point x="946" y="421" type="line" smooth="yes"/>
      <point x="927" y="249"/>
      <point x="841" y="161"/>
      <point x="670" y="161" type="curve" smooth="yes"/>
      <point x="431" y="161"/>
      <point x="341" y="320"/>
      <point x="341" y="583" type="curve" smooth="yes"/>
      <point x="341" y="600" type="line" smooth="yes"/>
      <point x="341" y="621"/>
      <point x="342" y="639"/>
      <point x="345" y="663" type="curve"/>
      <point x="355" y="663" type="line"/>
      <point x="351" y="686" type="line"/>
      <point x="351" y="693" type="line"/>
      <point x="367" y="890"/>
      <point x="459" y="987"/>
      <point x="631" y="987" type="curve" smooth="yes"/>
      <point x="770" y="987"/>
      <point x="847" y="926"/>
      <point x="847" y="817" type="curve" smooth="yes"/>
      <point x="847" y="814" type="line" smooth="yes"/>
      <point x="847" y="711"/>
      <point x="774" y="654"/>
      <point x="637" y="654" type="curve" smooth="yes"/>
      <point x="507" y="654"/>
      <point x="400" y="700"/>
      <point x="341" y="797" type="curve"/>
      <point x="335" y="702" type="line"/>
      <point x="386" y="554"/>
      <point x="514" y="489"/>
      <point x="694" y="489" type="curve" smooth="yes"/>
      <point x="917" y="489"/>
      <point x="1045" y="610"/>
      <point x="1045" y="814" type="curve" smooth="yes"/>
      <point x="1045" y="819" type="line" smooth="yes"/>
      <point x="1045" y="1036"/>
      <point x="900" y="1161"/>
      <point x="632" y="1161" type="curve" smooth="yes"/>
      <point x="317" y="1161"/>
      <point x="128" y="971"/>
      <point x="128" y="597" type="curve" smooth="yes"/>
      <point x="128" y="576" type="line" smooth="yes"/>
      <point x="128" y="172"/>
      <point x="304" y="-35"/>
    </contour>
    <contour>
      <point x="584" y="1082" type="curve"/>
      <point x="680" y="1082" type="line"/>
      <point x="718" y="1199"/>
      <point x="745" y="1293"/>
      <point x="745" y="1363" type="curve" smooth="yes"/>
      <point x="745" y="1432"/>
      <point x="725" y="1470"/>
      <point x="715" y="1491" type="curve"/>
      <point x="549" y="1491" type="line"/>
      <point x="538" y="1470"/>
      <point x="518" y="1432"/>
      <point x="518" y="1363" type="curve" smooth="yes"/>
      <point x="518" y="1293"/>
      <point x="544" y="1199"/>
    </contour>
    <component base="Terminals.te" xOffset="1236"/>
  </outline>
</glyph>
<glyph name="Ttha.te" format="2">
  <advance width="1700"/>
  <unicode hex="0C20"/>
  <anchor x="848" y="-69" name="bottom"/>
  <outline>
    <contour>
      <point x="847" y="-39" type="curve" smooth="yes"/>
      <point x="1320" y="-39"/>
      <point x="1567" y="164"/>
      <point x="1567" y="544" type="curve" smooth="yes"/>
      <point x="1567" y="556" type="line" smooth="yes"/>
      <point x="1567" y="927"/>
      <point x="1320" y="1133"/>
      <point x="847" y="1133" type="curve" smooth="yes"/>
      <point x="375" y="1133"/>
      <point x="128" y="927"/>
      <point x="128" y="556" type="curve" smooth="yes"/>
      <point x="128" y="544" type="line" smooth="yes"/>
      <point x="128" y="164"/>
      <point x="375" y="-39"/>
    </contour>
    <contour>
      <point x="847" y="152" type="curve" smooth="yes"/>
      <point x="515" y="152"/>
      <point x="342" y="288"/>
      <point x="342" y="554" type="curve" smooth="yes"/>
      <point x="342" y="564" type="line" smooth="yes"/>
      <point x="342" y="827"/>
      <point x="515" y="964"/>
      <point x="847" y="964" type="curve" smooth="yes"/>
      <point x="1180" y="964"/>
      <point x="1352" y="827"/>
      <point x="1352" y="564" type="curve" smooth="yes"/>
      <point x="1352" y="554" type="line" smooth="yes"/>
      <point x="1352" y="288"/>
      <point x="1181" y="152"/>
    </contour>
    <contour>
      <point x="786" y="1052" type="curve"/>
      <point x="922" y="1062" type="line"/>
      <point x="1093" y="1062"/>
      <point x="1184" y="1133"/>
      <point x="1260" y="1216" type="curve" smooth="yes"/>
      <point x="1400" y="1369" type="line" smooth="yes"/>
      <point x="1469" y="1444"/>
      <point x="1533" y="1466"/>
      <point x="1620" y="1466" type="curve" smooth="yes"/>
      <point x="1688" y="1466" type="line"/>
      <point x="1670" y="1654" type="line"/>
      <point x="1594" y="1654" type="line" smooth="yes"/>
      <point x="1450" y="1654"/>
      <point x="1358" y="1606"/>
      <point x="1263" y="1503" type="curve" smooth="yes"/>
      <point x="1042" y="1264" type="line" smooth="yes"/>
      <point x="965" y="1181"/>
      <point x="908" y="1143"/>
      <point x="830" y="1143" type="curve" smooth="yes"/>
      <point x="820" y="1143" type="line" smooth="yes"/>
      <point x="730" y="1143"/>
      <point x="676" y="1191"/>
      <point x="633" y="1269" type="curve" smooth="yes"/>
      <point x="552" y="1417" type="line"/>
      <point x="321" y="1417" type="line"/>
      <point x="416" y="1241" type="line" smooth="yes"/>
      <point x="481" y="1121"/>
      <point x="574" y="1052"/>
    </contour>
    <component base="chukka" xScale="1.025" yScale="1.05" xOffset="849" yOffset="-153"/>
  </outline>
</glyph>
<glyph name="Dda.te" format="2">
  <advance width="1977"/>
  <unicode hex="0C21"/>
  <anchor x="1003" y="-69" name="bottom"/>
  <outline>
    <contour>
      <point x="599" y="-35" type="curve" smooth="yes"/>
      <point x="841" y="-35"/>
      <point x="977" y="82"/>
      <point x="1000" y="264" type="curve"/>
      <point x="1006" y="264" type="line"/>
      <point x="1030" y="82"/>
      <point x="1174" y="-35"/>
      <point x="1435" y="-35" type="curve" smooth="yes"/>
      <point x="1720" y="-35"/>
      <point x="1877" y="99"/>
      <point x="1877" y="338" type="curve" smooth="yes"/>
      <point x="1877" y="342" type="line" smooth="yes"/>
      <point x="1877" y="442"/>
      <point x="1851" y="520"/>
      <point x="1812" y="583" type="curve"/>
      <point x="1599" y="583" type="line"/>
      <point x="1642" y="528"/>
      <point x="1664" y="463"/>
      <point x="1664" y="394" type="curve" smooth="yes"/>
      <point x="1664" y="391" type="line" smooth="yes"/>
      <point x="1664" y="241"/>
      <point x="1573" y="161"/>
      <point x="1397" y="161" type="curve" smooth="yes"/>
      <point x="1222" y="161"/>
      <point x="1127" y="250"/>
      <point x="1113" y="428" type="curve" smooth="yes"/>
      <point x="1109" y="478" type="line"/>
      <point x="897" y="478" type="line"/>
      <point x="893" y="428" type="line" smooth="yes"/>
      <point x="879" y="249"/>
      <point x="791" y="161"/>
      <point x="631" y="161" type="curve" smooth="yes"/>
      <point x="440" y="161"/>
      <point x="342" y="264"/>
      <point x="342" y="468" type="curve" smooth="yes"/>
      <point x="342" y="484" type="line" smooth="yes"/>
      <point x="342" y="804"/>
      <point x="561" y="966"/>
      <point x="1003" y="966" type="curve" smooth="yes"/>
      <point x="1309" y="966"/>
      <point x="1509" y="903"/>
      <point x="1657" y="832" type="curve"/>
      <point x="1626" y="1033" type="line"/>
      <point x="1475" y="1093"/>
      <point x="1267" y="1133"/>
      <point x="1003" y="1133" type="curve" smooth="yes"/>
      <point x="424" y="1133"/>
      <point x="128" y="908"/>
      <point x="128" y="469" type="curve" smooth="yes"/>
      <point x="128" y="454" type="line" smooth="yes"/>
      <point x="128" y="136"/>
      <point x="292" y="-35"/>
    </contour>
    <contour>
      <point x="927" y="1052" type="curve"/>
      <point x="1065" y="1062" type="line"/>
      <point x="1240" y="1062"/>
      <point x="1325" y="1137"/>
      <point x="1407" y="1220" type="curve" smooth="yes"/>
      <point x="1542" y="1369" type="line" smooth="yes"/>
      <point x="1613" y="1442"/>
      <point x="1676" y="1466"/>
      <point x="1763" y="1466" type="curve" smooth="yes"/>
      <point x="1840" y="1466" type="line"/>
      <point x="1821" y="1654" type="line"/>
      <point x="1738" y="1654" type="line" smooth="yes"/>
      <point x="1594" y="1654"/>
      <point x="1501" y="1610"/>
      <point x="1405" y="1503" type="curve" smooth="yes"/>
      <point x="1184" y="1263" type="line" smooth="yes"/>
      <point x="1110" y="1180"/>
      <point x="1051" y="1143"/>
      <point x="974" y="1143" type="curve"/>
      <point x="963" y="1143" type="line"/>
      <point x="870" y="1143"/>
      <point x="812" y="1189"/>
      <point x="771" y="1267" type="curve" smooth="yes"/>
      <point x="692" y="1417" type="line"/>
      <point x="465" y="1417" type="line"/>
      <point x="555" y="1241" type="line" smooth="yes"/>
      <point x="618" y="1118"/>
      <point x="713" y="1052"/>
    </contour>
  </outline>
</glyph>
<glyph name="Nna.te" format="2">
  <advance width="2173"/>
  <unicode hex="0C23"/>
  <anchor x="1067" y="-69" name="bottom"/>
  <outline>
    <contour>
      <point x="1555" y="-39" type="curve" smooth="yes"/>
      <point x="1880" y="-39"/>
      <point x="2045" y="159"/>
      <point x="2045" y="504" type="curve" smooth="yes"/>
      <point x="2045" y="539" type="line" smooth="yes"/>
      <point x="2045" y="951"/>
      <point x="1861" y="1161"/>
      <point x="1502" y="1161" type="curve" smooth="yes"/>
      <point x="1244" y="1161"/>
      <point x="1116" y="1064"/>
      <point x="1082" y="913" type="curve"/>
      <point x="1076" y="913" type="line"/>
      <point x="1042" y="1064"/>
      <point x="895" y="1161"/>
      <point x="613" y="1161" type="curve" smooth="yes"/>
      <point x="304" y="1161"/>
      <point x="136" y="1046"/>
      <point x="136" y="835" type="curve" smooth="yes"/>
      <point x="136" y="832" type="line" smooth="yes"/>
      <point x="136" y="669"/>
      <point x="264" y="579"/>
      <point x="445" y="565" type="curve"/>
      <point x="445" y="559" type="line"/>
      <point x="257" y="547"/>
      <point x="118" y="456"/>
      <point x="118" y="279" type="curve" smooth="yes"/>
      <point x="118" y="275" type="line" smooth="yes"/>
      <point x="118" y="72"/>
      <point x="284" y="-38"/>
      <point x="601" y="-38" type="curve" smooth="yes"/>
      <point x="731" y="-38"/>
      <point x="822" y="-22"/>
      <point x="910" y="6" type="curve"/>
      <point x="927" y="191" type="line"/>
      <point x="832" y="159"/>
      <point x="734" y="142"/>
      <point x="620" y="142" type="curve" smooth="yes"/>
      <point x="414" y="142"/>
      <point x="328" y="199"/>
      <point x="328" y="303" type="curve" smooth="yes"/>
      <point x="328" y="306" type="line" smooth="yes"/>
      <point x="328" y="411"/>
      <point x="426" y="465"/>
      <point x="621" y="472" type="curve" smooth="yes"/>
      <point x="790" y="478" type="line"/>
      <point x="790" y="644" type="line"/>
      <point x="625" y="650" type="line" smooth="yes"/>
      <point x="453" y="656"/>
      <point x="346" y="702"/>
      <point x="346" y="809" type="curve" smooth="yes"/>
      <point x="346" y="812" type="line" smooth="yes"/>
      <point x="346" y="925"/>
      <point x="440" y="982"/>
      <point x="648" y="982" type="curve" smooth="yes"/>
      <point x="856" y="982"/>
      <point x="956" y="906"/>
      <point x="973" y="771" type="curve" smooth="yes"/>
      <point x="977" y="740" type="line"/>
      <point x="1181" y="740" type="line"/>
      <point x="1185" y="768" type="line" smooth="yes"/>
      <point x="1204" y="899"/>
      <point x="1293" y="977"/>
      <point x="1478" y="977" type="curve" smooth="yes"/>
      <point x="1724" y="977"/>
      <point x="1842" y="831"/>
      <point x="1842" y="545" type="curve" smooth="yes"/>
      <point x="1842" y="511" type="line"/>
      <point x="1826" y="511" type="line"/>
      <point x="1835" y="470" type="line"/>
      <point x="1835" y="461" type="line"/>
      <point x="1830" y="246"/>
      <point x="1738" y="142"/>
      <point x="1555" y="142" type="curve" smooth="yes"/>
      <point x="1406" y="142"/>
      <point x="1317" y="206"/>
      <point x="1317" y="321" type="curve" smooth="yes"/>
      <point x="1317" y="323" type="line" smooth="yes"/>
      <point x="1317" y="438"/>
      <point x="1404" y="502"/>
      <point x="1563" y="502" type="curve" smooth="yes"/>
      <point x="1685" y="502"/>
      <point x="1782" y="464"/>
      <point x="1840" y="392" type="curve"/>
      <point x="1855" y="471" type="line"/>
      <point x="1805" y="597"/>
      <point x="1683" y="667"/>
      <point x="1510" y="667" type="curve" smooth="yes"/>
      <point x="1262" y="667"/>
      <point x="1116" y="534"/>
      <point x="1116" y="321" type="curve" smooth="yes"/>
      <point x="1116" y="317" type="line" smooth="yes"/>
      <point x="1116" y="95"/>
      <point x="1275" y="-39"/>
    </contour>
  </outline>
</glyph>
<glyph name="Da.te" format="2">
  <advance width="2005"/>
  <unicode hex="0C26"/>
  <anchor x="1001" y="-69" name="bottom"/>
  <outline>
    <contour>
      <point x="599" y="-35" type="curve" smooth="yes"/>
      <point x="840" y="-35"/>
      <point x="977" y="82"/>
      <point x="1000" y="264" type="curve"/>
      <point x="1006" y="264" type="line"/>
      <point x="1029" y="82"/>
      <point x="1166" y="-35"/>
      <point x="1407" y="-35" type="curve" smooth="yes"/>
      <point x="1714" y="-35"/>
      <point x="1878" y="137"/>
      <point x="1878" y="454" type="curve" smooth="yes"/>
      <point x="1878" y="469" type="line" smooth="yes"/>
      <point x="1878" y="912"/>
      <point x="1583" y="1135"/>
      <point x="1003" y="1135" type="curve" smooth="yes"/>
      <point x="422" y="1135"/>
      <point x="128" y="912"/>
      <point x="128" y="469" type="curve" smooth="yes"/>
      <point x="128" y="454" type="line" smooth="yes"/>
      <point x="128" y="137"/>
      <point x="292" y="-35"/>
    </contour>
    <contour>
      <point x="631" y="161" type="curve" smooth="yes"/>
      <point x="440" y="161"/>
      <point x="342" y="264"/>
      <point x="342" y="468" type="curve" smooth="yes"/>
      <point x="342" y="484" type="line" smooth="yes"/>
      <point x="342" y="804"/>
      <point x="561" y="966"/>
      <point x="1003" y="966" type="curve" smooth="yes"/>
      <point x="1446" y="966"/>
      <point x="1664" y="804"/>
      <point x="1664" y="484" type="curve" smooth="yes"/>
      <point x="1664" y="468" type="line" smooth="yes"/>
      <point x="1664" y="264"/>
      <point x="1567" y="161"/>
      <point x="1375" y="161" type="curve" smooth="yes"/>
      <point x="1216" y="161"/>
      <point x="1127" y="249"/>
      <point x="1113" y="419" type="curve" smooth="yes"/>
      <point x="1109" y="469" type="line"/>
      <point x="897" y="469" type="line"/>
      <point x="893" y="419" type="line" smooth="yes"/>
      <point x="879" y="249"/>
      <point x="794" y="161"/>
    </contour>
    <contour>
      <point x="929" y="1052" type="curve"/>
      <point x="1067" y="1062" type="line"/>
      <point x="1242" y="1062"/>
      <point x="1327" y="1137"/>
      <point x="1409" y="1220" type="curve" smooth="yes"/>
      <point x="1544" y="1369" type="line" smooth="yes"/>
      <point x="1615" y="1442"/>
      <point x="1678" y="1466"/>
      <point x="1765" y="1466" type="curve" smooth="yes"/>
      <point x="1842" y="1466" type="line"/>
      <point x="1823" y="1654" type="line"/>
      <point x="1740" y="1654" type="line" smooth="yes"/>
      <point x="1596" y="1654"/>
      <point x="1503" y="1610"/>
      <point x="1407" y="1503" type="curve" smooth="yes"/>
      <point x="1186" y="1263" type="line" smooth="yes"/>
      <point x="1112" y="1180"/>
      <point x="1053" y="1143"/>
      <point x="976" y="1143" type="curve"/>
      <point x="965" y="1143" type="line"/>
      <point x="872" y="1143"/>
      <point x="814" y="1189"/>
      <point x="773" y="1267" type="curve" smooth="yes"/>
      <point x="694" y="1417" type="line"/>
      <point x="467" y="1417" type="line"/>
      <point x="557" y="1241" type="line" smooth="yes"/>
      <point x="620" y="1118"/>
      <point x="715" y="1052"/>
    </contour>
  </outline>
</glyph>
<glyph name="Ba.te" format="2">
  <advance width="2046"/>
  <unicode hex="0C2C"/>
  <anchor x="1017" y="-69" name="bottom"/>
  <outline>
    <contour>
      <point x="572" y="-35" type="curve" smooth="yes"/>
      <point x="837" y="-35"/>
      <point x="981" y="76"/>
      <point x="1012" y="254" type="curve"/>
      <point x="1018" y="254" type="line"/>
      <point x="1048" y="76"/>
      <point x="1184" y="-35"/>
      <point x="1439" y="-35" type="curve" smooth="yes"/>
      <point x="1751" y="-35"/>
      <point x="1918" y="158"/>
      <point x="1918" y="517" type="curve" smooth="yes"/>
      <point x="1918" y="524" type="line"/>
      <point x="1704" y="524" type="line"/>
      <point x="1704" y="519" type="line" smooth="yes"/>
      <point x="1704" y="281"/>
      <point x="1603" y="161"/>
      <point x="1406" y="161" type="curve" smooth="yes"/>
      <point x="1233" y="161"/>
      <point x="1140" y="250"/>
      <point x="1122" y="422" type="curve" smooth="yes"/>
      <point x="1118" y="459" type="line"/>
      <point x="912" y="459" type="line"/>
      <point x="908" y="421" type="line" smooth="yes"/>
      <point x="890" y="250"/>
      <point x="785" y="154"/>
      <point x="595" y="154" type="curve" smooth="yes"/>
      <point x="425" y="154"/>
      <point x="332" y="209"/>
      <point x="332" y="308" type="curve" smooth="yes"/>
      <point x="332" y="311" type="line" smooth="yes"/>
      <point x="332" y="400"/>
      <point x="384" y="443"/>
      <point x="637" y="514" type="curve" smooth="yes"/>
      <point x="923" y="595"/>
      <point x="1022" y="683"/>
      <point x="1022" y="849" type="curve" smooth="yes"/>
      <point x="1022" y="852" type="line" smooth="yes"/>
      <point x="1022" y="1050"/>
      <point x="863" y="1161"/>
      <point x="576" y="1161" type="curve" smooth="yes"/>
      <point x="291" y="1161"/>
      <point x="135" y="1050"/>
      <point x="135" y="845" type="curve" smooth="yes"/>
      <point x="135" y="843" type="line" smooth="yes"/>
      <point x="135" y="791"/>
      <point x="149" y="732"/>
      <point x="176" y="676" type="curve"/>
      <point x="372" y="676" type="line"/>
      <point x="346" y="726"/>
      <point x="335" y="771"/>
      <point x="335" y="816" type="curve" smooth="yes"/>
      <point x="335" y="817" type="line" smooth="yes"/>
      <point x="335" y="930"/>
      <point x="420" y="989"/>
      <point x="578" y="989" type="curve" smooth="yes"/>
      <point x="733" y="989"/>
      <point x="817" y="935"/>
      <point x="817" y="845" type="curve" smooth="yes"/>
      <point x="817" y="843" type="line" smooth="yes"/>
      <point x="817" y="760"/>
      <point x="755" y="723"/>
      <point x="527" y="657" type="curve" smooth="yes"/>
      <point x="207" y="568"/>
      <point x="115" y="471"/>
      <point x="115" y="291" type="curve" smooth="yes"/>
      <point x="115" y="286" type="line" smooth="yes"/>
      <point x="115" y="81"/>
      <point x="277" y="-35"/>
    </contour>
    <component base="Terminals.te" xOffset="1197"/>
  </outline>
</glyph>
<glyph name="Ya.te" format="2">
  <advance width="3469"/>
  <unicode hex="0C2F"/>
  <anchor x="1734" y="-69" name="bottom"/>
  <outline>
    <contour>
      <point x="830" y="-37" type="curve" smooth="yes"/>
      <point x="1198" y="-37"/>
      <point x="1424" y="100"/>
      <point x="1497" y="353" type="curve" smooth="yes"/>
      <point x="1515" y="413"/>
      <point x="1532" y="481"/>
      <point x="1532" y="555" type="curve" smooth="yes"/>
      <point x="1532" y="568" type="line" smooth="yes"/>
      <point x="1532" y="953"/>
      <point x="1291" y="1161"/>
      <point x="830" y="1161" type="curve" smooth="yes"/>
      <point x="370" y="1161"/>
      <point x="128" y="953"/>
      <point x="128" y="568" type="curve" smooth="yes"/>
      <point x="128" y="555" type="line" smooth="yes"/>
      <point x="128" y="170"/>
      <point x="370" y="-37"/>
    </contour>
    <contour>
      <point x="830" y="154" type="curve" smooth="yes"/>
      <point x="509" y="154"/>
      <point x="342" y="293"/>
      <point x="342" y="556" type="curve" smooth="yes"/>
      <point x="342" y="567" type="line" smooth="yes"/>
      <point x="342" y="830"/>
      <point x="509" y="971"/>
      <point x="830" y="971" type="curve" smooth="yes"/>
      <point x="1150" y="971"/>
      <point x="1318" y="830"/>
      <point x="1318" y="567" type="curve" smooth="yes"/>
      <point x="1318" y="556" type="line" smooth="yes"/>
      <point x="1318" y="293"/>
      <point x="1150" y="154"/>
    </contour>
    <contour>
      <point x="1915" y="-35" type="curve" smooth="yes"/>
      <point x="2174" y="-35"/>
      <point x="2346" y="89"/>
      <point x="2395" y="326" type="curve"/>
      <point x="2410" y="384"/>
      <point x="2437" y="447"/>
      <point x="2437" y="517" type="curve"/>
      <point x="2437" y="529" type="line" smooth="yes"/>
      <point x="2437" y="907"/>
      <point x="2243" y="1118"/>
      <point x="1844" y="1123" type="curve"/>
      <point x="1827" y="970" type="line"/>
      <point x="2087" y="963"/>
      <point x="2222" y="816"/>
      <point x="2222" y="537" type="curve" smooth="yes"/>
      <point x="2222" y="528" type="line" smooth="yes"/>
      <point x="2222" y="286"/>
      <point x="2103" y="157"/>
      <point x="1875" y="157" type="curve" smooth="yes"/>
      <point x="1661" y="157"/>
      <point x="1532" y="261"/>
      <point x="1532" y="462" type="curve" smooth="yes"/>
      <point x="1532" y="556" type="line"/>
      <point x="1445" y="556" type="line"/>
      <point x="1445" y="353" type="line" smooth="yes"/>
      <point x="1445" y="105"/>
      <point x="1622" y="-35"/>
    </contour>
    <contour>
      <point x="1827" y="970" type="curve"/>
      <point x="1895" y="1009" type="line"/>
      <point x="2047" y="1009"/>
      <point x="2142" y="1071"/>
      <point x="2221" y="1161" type="curve" smooth="yes"/>
      <point x="2396" y="1365" type="line" smooth="yes"/>
      <point x="2468" y="1444"/>
      <point x="2535" y="1466"/>
      <point x="2619" y="1466" type="curve" smooth="yes"/>
      <point x="2668" y="1466" type="line"/>
      <point x="2649" y="1654" type="line"/>
      <point x="2594" y="1654" type="line" smooth="yes"/>
      <point x="2454" y="1654"/>
      <point x="2359" y="1613"/>
      <point x="2265" y="1502" type="curve" smooth="yes"/>
      <point x="2063" y="1261" type="line" smooth="yes"/>
      <point x="1992" y="1181"/>
      <point x="1939" y="1143"/>
      <point x="1862" y="1143" type="curve"/>
      <point x="1852" y="1143" type="line"/>
      <point x="1763" y="1143"/>
      <point x="1712" y="1191"/>
      <point x="1668" y="1267" type="curve" smooth="yes"/>
      <point x="1588" y="1417" type="line"/>
      <point x="1369" y="1417" type="line"/>
      <point x="1459" y="1241" type="line" smooth="yes"/>
      <point x="1539" y="1066"/>
      <point x="1630" y="970"/>
    </contour>
    <component base="matraU.te" xOffset="2524"/>
  </outline>
</glyph>
<glyph name="Ra.te" format="2">
  <advance width="1694"/>
  <unicode hex="0C30"/>
  <anchor x="847" y="-69" name="bottom"/>
  <outline>
    <contour>
      <point x="847" y="-39" type="curve" smooth="yes"/>
      <point x="1320" y="-39"/>
      <point x="1567" y="164"/>
      <point x="1567" y="544" type="curve" smooth="yes"/>
      <point x="1567" y="556" type="line" smooth="yes"/>
      <point x="1567" y="930"/>
      <point x="1320" y="1133"/>
      <point x="847" y="1133" type="curve" smooth="yes"/>
      <point x="375" y="1133"/>
      <point x="128" y="930"/>
      <point x="128" y="556" type="curve" smooth="yes"/>
      <point x="128" y="544" type="line" smooth="yes"/>
      <point x="128" y="164"/>
      <point x="375" y="-39"/>
    </contour>
    <contour>
      <point x="847" y="152" type="curve" smooth="yes"/>
      <point x="515" y="152"/>
      <point x="342" y="288"/>
      <point x="342" y="554" type="curve" smooth="yes"/>
      <point x="342" y="564" type="line" smooth="yes"/>
      <point x="342" y="827"/>
      <point x="515" y="964"/>
      <point x="847" y="964" type="curve" smooth="yes"/>
      <point x="1180" y="964"/>
      <point x="1352" y="827"/>
      <point x="1352" y="564" type="curve" smooth="yes"/>
      <point x="1352" y="554" type="line" smooth="yes"/>
      <point x="1352" y="288"/>
      <point x="1180" y="152"/>
    </contour>
    <contour>
      <point x="785" y="1052" type="curve"/>
      <point x="923" y="1062" type="line"/>
      <point x="1098" y="1062"/>
      <point x="1183" y="1137"/>
      <point x="1265" y="1220" type="curve" smooth="yes"/>
      <point x="1400" y="1369" type="line" smooth="yes"/>
      <point x="1471" y="1442"/>
      <point x="1534" y="1466"/>
      <point x="1621" y="1466" type="curve" smooth="yes"/>
      <point x="1698" y="1466" type="line"/>
      <point x="1679" y="1654" type="line"/>
      <point x="1596" y="1654" type="line" smooth="yes"/>
      <point x="1452" y="1654"/>
      <point x="1359" y="1610"/>
      <point x="1263" y="1503" type="curve" smooth="yes"/>
      <point x="1042" y="1263" type="line" smooth="yes"/>
      <point x="968" y="1180"/>
      <point x="909" y="1143"/>
      <point x="832" y="1143" type="curve"/>
      <point x="821" y="1143" type="line"/>
      <point x="728" y="1143"/>
      <point x="670" y="1189"/>
      <point x="629" y="1267" type="curve" smooth="yes"/>
      <point x="550" y="1417" type="line"/>
      <point x="323" y="1417" type="line"/>
      <point x="413" y="1241" type="line" smooth="yes"/>
      <point x="476" y="1118"/>
      <point x="571" y="1052"/>
    </contour>
  </outline>
</glyph>
<glyph name="Rra.te" format="2">
  <advance width="2223"/>
  <unicode hex="0C31"/>
  <anchor x="1111" y="-69" name="bottom"/>
  <outline>
    <contour>
      <point x="663" y="-35" type="curve" smooth="yes"/>
      <point x="941" y="-35"/>
      <point x="1079" y="79"/>
      <point x="1108" y="254" type="curve"/>
      <point x="1114" y="254" type="line"/>
      <point x="1144" y="79"/>
      <point x="1281" y="-35"/>
      <point x="1560" y="-35" type="curve" smooth="yes"/>
      <point x="1912" y="-35"/>
      <point x="2095" y="173"/>
      <point x="2095" y="576" type="curve" smooth="yes"/>
      <point x="2095" y="599" type="line" smooth="yes"/>
      <point x="2095" y="979"/>
      <point x="1911" y="1161"/>
      <point x="1597" y="1161" type="curve" smooth="yes"/>
      <point x="1336" y="1161"/>
      <point x="1195" y="1052"/>
      <point x="1195" y="875" type="curve" smooth="yes"/>
      <point x="1195" y="870" type="line" smooth="yes"/>
      <point x="1195" y="764"/>
      <point x="1247" y="691"/>
      <point x="1345" y="657" type="curve"/>
      <point x="1345" y="650" type="line"/>
      <point x="985" y="650" type="line"/>
      <point x="994" y="492" type="line"/>
      <point x="1591" y="497" type="line"/>
      <point x="1591" y="643" type="line"/>
      <point x="1511" y="653" type="line"/>
      <point x="1417" y="683"/>
      <point x="1383" y="738"/>
      <point x="1383" y="810" type="curve" smooth="yes"/>
      <point x="1383" y="814" type="line" smooth="yes"/>
      <point x="1383" y="924"/>
      <point x="1458" y="988"/>
      <point x="1599" y="988" type="curve" smooth="yes"/>
      <point x="1771" y="988"/>
      <point x="1881" y="868"/>
      <point x="1881" y="611" type="curve" smooth="yes"/>
      <point x="1881" y="589" type="line" smooth="yes"/>
      <point x="1881" y="316"/>
      <point x="1779" y="161"/>
      <point x="1528" y="161" type="curve" smooth="yes"/>
      <point x="1335" y="161"/>
      <point x="1237" y="251"/>
      <point x="1219" y="410" type="curve" smooth="yes"/>
      <point x="1216" y="437" type="line"/>
      <point x="1007" y="437" type="line"/>
      <point x="1003" y="410" type="line" smooth="yes"/>
      <point x="979" y="251"/>
      <point x="888" y="161"/>
      <point x="695" y="161" type="curve" smooth="yes"/>
      <point x="438" y="161"/>
      <point x="341" y="320"/>
      <point x="341" y="583" type="curve" smooth="yes"/>
      <point x="341" y="600" type="line" smooth="yes"/>
      <point x="341" y="621"/>
      <point x="342" y="639"/>
      <point x="345" y="663" type="curve"/>
      <point x="355" y="663" type="line"/>
      <point x="351" y="686" type="line"/>
      <point x="351" y="693" type="line"/>
      <point x="367" y="897"/>
      <point x="459" y="997"/>
      <point x="631" y="997" type="curve" smooth="yes"/>
      <point x="770" y="997"/>
      <point x="847" y="934"/>
      <point x="847" y="821" type="curve" smooth="yes"/>
      <point x="847" y="818" type="line" smooth="yes"/>
      <point x="847" y="712"/>
      <point x="774" y="654"/>
      <point x="637" y="654" type="curve" smooth="yes"/>
      <point x="499" y="654"/>
      <point x="400" y="699"/>
      <point x="341" y="797" type="curve"/>
      <point x="335" y="702" type="line"/>
      <point x="386" y="554"/>
      <point x="514" y="489"/>
      <point x="694" y="489" type="curve" smooth="yes"/>
      <point x="917" y="489"/>
      <point x="1045" y="616"/>
      <point x="1045" y="818" type="curve" smooth="yes"/>
      <point x="1045" y="823" type="line" smooth="yes"/>
      <point x="1045" y="1038"/>
      <point x="900" y="1161"/>
      <point x="632" y="1161" type="curve" smooth="yes"/>
      <point x="317" y="1161"/>
      <point x="128" y="971"/>
      <point x="128" y="597" type="curve" smooth="yes"/>
      <point x="128" y="576" type="line" smooth="yes"/>
      <point x="128" y="173"/>
      <point x="311" y="-35"/>
    </contour>
  </outline>
</glyph>
<glyph name="La.te" format="2">
  <advance width="1923"/>
  <unicode hex="0C32"/>
  <anchor x="967" y="-69" name="bottom"/>
  <outline>
    <contour>
      <point x="967" y="-39" type="curve" smooth="yes"/>
      <point x="1515" y="-39"/>
      <point x="1795" y="181"/>
      <point x="1795" y="598" type="curve" smooth="yes"/>
      <point x="1795" y="607" type="line" smooth="yes"/>
      <point x="1795" y="941"/>
      <point x="1605" y="1143"/>
      <point x="1264" y="1143" type="curve" smooth="yes"/>
      <point x="1243" y="1143" type="line"/>
      <point x="1209" y="958" type="line"/>
      <point x="1222" y="958" type="line" smooth="yes"/>
      <point x="1458" y="958"/>
      <point x="1581" y="827"/>
      <point x="1581" y="607" type="curve" smooth="yes"/>
      <point x="1581" y="599" type="line" smooth="yes"/>
      <point x="1581" y="310"/>
      <point x="1373" y="157"/>
      <point x="967" y="157" type="curve" smooth="yes"/>
      <point x="551" y="157"/>
      <point x="341" y="320"/>
      <point x="341" y="627" type="curve" smooth="yes"/>
      <point x="341" y="632" type="line" smooth="yes"/>
      <point x="341" y="642"/>
      <point x="343" y="651"/>
      <point x="345" y="663" type="curve"/>
      <point x="353" y="663" type="line"/>
      <point x="351" y="689" type="line"/>
      <point x="351" y="693" type="line"/>
      <point x="367" y="889"/>
      <point x="459" y="987"/>
      <point x="631" y="987" type="curve" smooth="yes"/>
      <point x="770" y="987"/>
      <point x="847" y="925"/>
      <point x="847" y="818" type="curve" smooth="yes"/>
      <point x="847" y="815" type="line" smooth="yes"/>
      <point x="847" y="711"/>
      <point x="774" y="654"/>
      <point x="637" y="654" type="curve" smooth="yes"/>
      <point x="507" y="654"/>
      <point x="400" y="700"/>
      <point x="341" y="797" type="curve"/>
      <point x="335" y="702" type="line"/>
      <point x="386" y="554"/>
      <point x="514" y="489"/>
      <point x="694" y="489" type="curve" smooth="yes"/>
      <point x="917" y="489"/>
      <point x="1045" y="612"/>
      <point x="1045" y="817" type="curve" smooth="yes"/>
      <point x="1045" y="822" type="line" smooth="yes"/>
      <point x="1045" y="1038"/>
      <point x="900" y="1161"/>
      <point x="632" y="1161" type="curve" smooth="yes"/>
      <point x="317" y="1161"/>
      <point x="128" y="967"/>
      <point x="128" y="626" type="curve" smooth="yes"/>
      <point x="128" y="621" type="line" smooth="yes"/>
      <point x="128" y="197"/>
      <point x="413" y="-39"/>
    </contour>
  </outline>
</glyph>
<glyph name="Llla.te" format="2">
  <advance width="2221"/>
  <unicode hex="0C34"/>
  <anchor x="1111" y="-69" name="bottom"/>
  <outline>
    <contour>
      <point x="663" y="-35" type="curve" smooth="yes"/>
      <point x="936" y="-35"/>
      <point x="1080" y="74"/>
      <point x="1108" y="254" type="curve"/>
      <point x="1114" y="254" type="line"/>
      <point x="1143" y="74"/>
      <point x="1286" y="-35"/>
      <point x="1560" y="-35" type="curve" smooth="yes"/>
      <point x="1910" y="-35"/>
      <point x="2093" y="172"/>
      <point x="2093" y="576" type="curve" smooth="yes"/>
      <point x="2093" y="597" type="line" smooth="yes"/>
      <point x="2093" y="972"/>
      <point x="1903" y="1161"/>
      <point x="1589" y="1161" type="curve" smooth="yes"/>
      <point x="1320" y="1161"/>
      <point x="1176" y="1038"/>
      <point x="1176" y="823" type="curve" smooth="yes"/>
      <point x="1176" y="818" type="line" smooth="yes"/>
      <point x="1176" y="611"/>
      <point x="1304" y="489"/>
      <point x="1527" y="489" type="curve" smooth="yes"/>
      <point x="1707" y="489"/>
      <point x="1835" y="554"/>
      <point x="1886" y="702" type="curve"/>
      <point x="1880" y="797" type="line"/>
      <point x="1821" y="700"/>
      <point x="1714" y="654"/>
      <point x="1584" y="654" type="curve" smooth="yes"/>
      <point x="1447" y="654"/>
      <point x="1374" y="712"/>
      <point x="1374" y="818" type="curve" smooth="yes"/>
      <point x="1374" y="821" type="line" smooth="yes"/>
      <point x="1374" y="934"/>
      <point x="1452" y="997"/>
      <point x="1590" y="997" type="curve" smooth="yes"/>
      <point x="1761" y="997"/>
      <point x="1854" y="897"/>
      <point x="1870" y="693" type="curve"/>
      <point x="1870" y="686" type="line"/>
      <point x="1866" y="663" type="line"/>
      <point x="1876" y="663" type="line"/>
      <point x="1879" y="639"/>
      <point x="1880" y="622"/>
      <point x="1880" y="600" type="curve" smooth="yes"/>
      <point x="1880" y="583" type="line" smooth="yes"/>
      <point x="1880" y="314"/>
      <point x="1780" y="161"/>
      <point x="1528" y="161" type="curve" smooth="yes"/>
      <point x="1336" y="161"/>
      <point x="1239" y="248"/>
      <point x="1219" y="422" type="curve" smooth="yes"/>
      <point x="1215" y="457" type="line"/>
      <point x="1007" y="457" type="line"/>
      <point x="1003" y="422" type="line" smooth="yes"/>
      <point x="983" y="249"/>
      <point x="886" y="161"/>
      <point x="695" y="161" type="curve" smooth="yes"/>
      <point x="438" y="161"/>
      <point x="341" y="320"/>
      <point x="341" y="583" type="curve" smooth="yes"/>
      <point x="341" y="600" type="line" smooth="yes"/>
      <point x="341" y="621"/>
      <point x="342" y="639"/>
      <point x="345" y="663" type="curve"/>
      <point x="355" y="663" type="line"/>
      <point x="351" y="686" type="line"/>
      <point x="351" y="693" type="line"/>
      <point x="367" y="897"/>
      <point x="460" y="997"/>
      <point x="631" y="997" type="curve" smooth="yes"/>
      <point x="769" y="997"/>
      <point x="847" y="934"/>
      <point x="847" y="821" type="curve" smooth="yes"/>
      <point x="847" y="818" type="line" smooth="yes"/>
      <point x="847" y="712"/>
      <point x="774" y="654"/>
      <point x="637" y="654" type="curve" smooth="yes"/>
      <point x="507" y="654"/>
      <point x="400" y="700"/>
      <point x="341" y="797" type="curve"/>
      <point x="335" y="702" type="line"/>
      <point x="386" y="554"/>
      <point x="514" y="489"/>
      <point x="694" y="489" type="curve" smooth="yes"/>
      <point x="917" y="489"/>
      <point x="1045" y="611"/>
      <point x="1045" y="818" type="curve" smooth="yes"/>
      <point x="1045" y="823" type="line" smooth="yes"/>
      <point x="1045" y="1038"/>
      <point x="901" y="1161"/>
      <point x="632" y="1161" type="curve" smooth="yes"/>
      <point x="318" y="1161"/>
      <point x="128" y="972"/>
      <point x="128" y="597" type="curve" smooth="yes"/>
      <point x="128" y="576" type="line" smooth="yes"/>
      <point x="128" y="173"/>
      <point x="311" y="-35"/>
    </contour>
  </outline>
</glyph>
<glyph name="Sha.te" format="2">
  <advance width="1672"/>
  <unicode hex="0C36"/>
  <anchor x="837" y="-69" name="bottom"/>
  <outline>
    <contour>
      <point x="1076" y="-39" type="curve" smooth="yes"/>
      <point x="1387" y="-39"/>
      <point x="1554" y="127"/>
      <point x="1554" y="345" type="curve" smooth="yes"/>
      <point x="1554" y="349" type="line" smooth="yes"/>
      <point x="1554" y="535"/>
      <point x="1454" y="663"/>
      <point x="1275" y="744" type="curve"/>
      <point x="1207" y="773" type="line"/>
      <point x="1094" y="816"/>
      <point x="936" y="843"/>
      <point x="800" y="843" type="curve" smooth="yes"/>
      <point x="794" y="843" type="line" smooth="yes"/>
      <point x="357" y="843"/>
      <point x="100" y="659"/>
      <point x="100" y="320" type="curve" smooth="yes"/>
      <point x="100" y="318" type="line" smooth="yes"/>
      <point x="100" y="253"/>
      <point x="111" y="188"/>
      <point x="129" y="132" type="curve"/>
      <point x="343" y="132" type="line"/>
      <point x="325" y="185"/>
      <point x="314" y="245"/>
      <point x="314" y="302" type="curve" smooth="yes"/>
      <point x="314" y="304" type="line" smooth="yes"/>
      <point x="314" y="539"/>
      <point x="491" y="663"/>
      <point x="805" y="663" type="curve" smooth="yes"/>
      <point x="811" y="663" type="line" smooth="yes"/>
      <point x="891" y="663"/>
      <point x="943" y="657"/>
      <point x="1023" y="646" type="curve"/>
      <point x="1064" y="635" type="line"/>
      <point x="1243" y="595"/>
      <point x="1340" y="501"/>
      <point x="1340" y="361" type="curve" smooth="yes"/>
      <point x="1340" y="357" type="line" smooth="yes"/>
      <point x="1340" y="239"/>
      <point x="1251" y="157"/>
      <point x="1077" y="157" type="curve" smooth="yes"/>
      <point x="904" y="157"/>
      <point x="815" y="233"/>
      <point x="815" y="335" type="curve" smooth="yes"/>
      <point x="815" y="340" type="line" smooth="yes"/>
      <point x="815" y="472"/>
      <point x="960" y="553"/>
      <point x="1209" y="642" type="curve"/>
      <point x="1248" y="663" type="line"/>
      <point x="1413" y="738"/>
      <point x="1497" y="807"/>
      <point x="1497" y="922" type="curve" smooth="yes"/>
      <point x="1497" y="1051"/>
      <point x="1399" y="1127"/>
      <point x="1207" y="1127" type="curve" smooth="yes"/>
      <point x="947" y="1127" type="line"/>
      <point x="870" y="969" type="line"/>
      <point x="1178" y="969" type="line" smooth="yes"/>
      <point x="1252" y="969"/>
      <point x="1283" y="941"/>
      <point x="1283" y="904" type="curve" smooth="yes"/>
      <point x="1283" y="855"/>
      <point x="1226" y="816"/>
      <point x="1088" y="761" type="curve"/>
      <point x="1002" y="717" type="line"/>
      <point x="731" y="627"/>
      <point x="601" y="524"/>
      <point x="601" y="319" type="curve" smooth="yes"/>
      <point x="601" y="313" type="line" smooth="yes"/>
      <point x="601" y="119"/>
      <point x="759" y="-39"/>
    </contour>
    <contour>
      <point x="870" y="969" type="curve"/>
      <point x="985" y="1062" type="line"/>
      <point x="1150" y="1062"/>
      <point x="1232" y="1132"/>
      <point x="1318" y="1220" type="curve" smooth="yes"/>
      <point x="1464" y="1369" type="line" smooth="yes"/>
      <point x="1543" y="1449"/>
      <point x="1606" y="1466"/>
      <point x="1684" y="1466" type="curve" smooth="yes"/>
      <point x="1743" y="1466" type="line"/>
      <point x="1724" y="1654" type="line"/>
      <point x="1658" y="1654" type="line" smooth="yes"/>
      <point x="1525" y="1654"/>
      <point x="1428" y="1612"/>
      <point x="1329" y="1502" type="curve" smooth="yes"/>
      <point x="1111" y="1261" type="line" smooth="yes"/>
      <point x="1030" y="1171"/>
      <point x="966" y="1143"/>
      <point x="894" y="1143" type="curve" smooth="yes"/>
      <point x="883" y="1143" type="line" smooth="yes"/>
      <point x="788" y="1143"/>
      <point x="728" y="1188"/>
      <point x="687" y="1267" type="curve" smooth="yes"/>
      <point x="609" y="1417" type="line"/>
      <point x="385" y="1417" type="line"/>
      <point x="472" y="1250" type="line" smooth="yes"/>
      <point x="563" y="1076"/>
      <point x="646" y="969"/>
    </contour>
  </outline>
</glyph>
<glyph name="Ssa.te" format="2">
  <advance width="1950"/>
  <unicode hex="0C37"/>
  <anchor x="928" y="-69" name="bottom"/>
  <outline>
    <contour>
      <point x="518" y="-35" type="curve" smooth="yes"/>
      <point x="742" y="-35"/>
      <point x="875" y="61"/>
      <point x="902" y="218" type="curve"/>
      <point x="908" y="218" type="line"/>
      <point x="950" y="60"/>
      <point x="1091" y="-35"/>
      <point x="1324" y="-35" type="curve" smooth="yes"/>
      <point x="1575" y="-35"/>
      <point x="1735" y="96"/>
      <point x="1774" y="339" type="curve" smooth="yes"/>
      <point x="1783" y="395"/>
      <point x="1808" y="448"/>
      <point x="1808" y="513" type="curve" smooth="yes"/>
      <point x="1808" y="526" type="line"/>
      <point x="1594" y="530" type="line"/>
      <point x="1594" y="519" type="line" smooth="yes"/>
      <point x="1594" y="281"/>
      <point x="1488" y="158"/>
      <point x="1282" y="158" type="curve" smooth="yes"/>
      <point x="1117" y="158"/>
      <point x="1013" y="235"/>
      <point x="980" y="401" type="curve" smooth="yes"/>
      <point x="978" y="411" type="line" smooth="yes"/>
      <point x="937" y="615"/>
      <point x="793" y="726"/>
      <point x="539" y="726" type="curve" smooth="yes"/>
      <point x="259" y="726"/>
      <point x="100" y="588"/>
      <point x="100" y="345" type="curve" smooth="yes"/>
      <point x="100" y="337" type="line" smooth="yes"/>
      <point x="100" y="99"/>
      <point x="250" y="-35"/>
    </contour>
    <contour>
      <point x="539" y="157" type="curve" smooth="yes"/>
      <point x="385" y="157"/>
      <point x="301" y="225"/>
      <point x="301" y="347" type="curve" smooth="yes"/>
      <point x="301" y="353" type="line" smooth="yes"/>
      <point x="301" y="475"/>
      <point x="385" y="543"/>
      <point x="540" y="543" type="curve" smooth="yes"/>
      <point x="696" y="543"/>
      <point x="780" y="475"/>
      <point x="780" y="354" type="curve" smooth="yes"/>
      <point x="780" y="350" type="line" smooth="yes"/>
      <point x="780" y="226"/>
      <point x="696" y="157"/>
    </contour>
    <contour>
      <point x="1784" y="-213" type="curve"/>
      <point x="2006" y="-213" type="line"/>
      <point x="1874" y="-9"/>
      <point x="1808" y="155"/>
      <point x="1808" y="401" type="curve"/>
      <point x="1808" y="519" type="line"/>
      <point x="1670" y="414" type="line"/>
      <point x="1670" y="347" type="line"/>
      <point x="1670" y="99"/>
      <point x="1707" y="-52"/>
    </contour>
    <contour>
      <point x="577" y="964" type="curve"/>
      <point x="598" y="964" type="line" smooth="yes"/>
      <point x="747" y="964"/>
      <point x="868" y="1040"/>
      <point x="983" y="1163" type="curve" smooth="yes"/>
      <point x="1173" y="1367" type="line" smooth="yes"/>
      <point x="1248" y="1447"/>
      <point x="1316" y="1464"/>
      <point x="1394" y="1464" type="curve" smooth="yes"/>
      <point x="1544" y="1464" type="line"/>
      <point x="1525" y="1651" type="line"/>
      <point x="1368" y="1651" type="line" smooth="yes"/>
      <point x="1226" y="1651"/>
      <point x="1135" y="1603"/>
      <point x="1040" y="1501" type="curve" smooth="yes"/>
      <point x="815" y="1261" type="line" smooth="yes"/>
      <point x="742" y="1184"/>
      <point x="681" y="1142"/>
      <point x="598" y="1142" type="curve" smooth="yes"/>
      <point x="588" y="1142" type="line" smooth="yes"/>
      <point x="499" y="1142"/>
      <point x="434" y="1184"/>
      <point x="391" y="1267" type="curve" smooth="yes"/>
      <point x="313" y="1418" type="line"/>
      <point x="92" y="1418" type="line"/>
      <point x="197" y="1217" type="line" smooth="yes"/>
      <point x="289" y="1042"/>
      <point x="393" y="964"/>
    </contour>
    <contour>
      <point x="1594" y="525" type="line"/>
      <point x="1808" y="521" type="line"/>
      <point x="1808" y="529" type="line" smooth="yes"/>
      <point x="1808" y="925"/>
      <point x="1598" y="1143"/>
      <point x="1203" y="1143" type="curve"/>
      <point x="1182" y="1143" type="line"/>
      <point x="1148" y="958" type="line"/>
      <point x="1161" y="958" type="line"/>
      <point x="1447" y="958"/>
      <point x="1594" y="812"/>
      <point x="1594" y="532" type="curve" smooth="yes"/>
    </contour>
  </outline>
</glyph>
<glyph name="Sa.te" format="2">
  <advance width="1906"/>
  <unicode hex="0C38"/>
  <anchor x="907" y="-69" name="bottom"/>
  <outline>
    <contour>
      <point x="1289" y="-33" type="curve" smooth="yes"/>
      <point x="1606" y="-33"/>
      <point x="1778" y="164"/>
      <point x="1778" y="501" type="curve" smooth="yes"/>
      <point x="1778" y="511" type="line"/>
      <point x="1563" y="513" type="line"/>
      <point x="1563" y="503" type="line" smooth="yes"/>
      <point x="1563" y="279"/>
      <point x="1468" y="158"/>
      <point x="1285" y="158" type="curve" smooth="yes"/>
      <point x="1128" y="158"/>
      <point x="1054" y="230"/>
      <point x="1002" y="362" type="curve" smooth="yes"/>
      <point x="981" y="415" type="line" smooth="yes"/>
      <point x="911" y="593"/>
      <point x="807" y="718"/>
      <point x="531" y="718" type="curve" smooth="yes"/>
      <point x="262" y="718"/>
      <point x="100" y="558"/>
      <point x="100" y="305" type="curve" smooth="yes"/>
      <point x="100" y="293" type="line" smooth="yes"/>
      <point x="100" y="187"/>
      <point x="130" y="85"/>
      <point x="172" y="-3" type="curve"/>
      <point x="396" y="-3" type="line"/>
      <point x="341" y="101"/>
      <point x="315" y="196"/>
      <point x="315" y="288" type="curve" smooth="yes"/>
      <point x="315" y="297" type="line" smooth="yes"/>
      <point x="315" y="440"/>
      <point x="403" y="530"/>
      <point x="545" y="530" type="curve" smooth="yes"/>
      <point x="696" y="530"/>
      <point x="753" y="457"/>
      <point x="803" y="325" type="curve" smooth="yes"/>
      <point x="825" y="267" type="line" smooth="yes"/>
      <point x="898" y="74"/>
      <point x="1022" y="-33"/>
    </contour>
    <contour>
      <point x="577" y="964" type="curve" smooth="yes"/>
      <point x="598" y="964" type="line" smooth="yes"/>
      <point x="747" y="964"/>
      <point x="867" y="1040"/>
      <point x="982" y="1163" type="curve" smooth="yes"/>
      <point x="1173" y="1367" type="line" smooth="yes"/>
      <point x="1248" y="1447"/>
      <point x="1316" y="1464"/>
      <point x="1393" y="1464" type="curve" smooth="yes"/>
      <point x="1544" y="1464" type="line"/>
      <point x="1525" y="1651" type="line"/>
      <point x="1368" y="1651" type="line" smooth="yes"/>
      <point x="1226" y="1651"/>
      <point x="1135" y="1603"/>
      <point x="1040" y="1501" type="curve" smooth="yes"/>
      <point x="815" y="1261" type="line" smooth="yes"/>
      <point x="743" y="1184"/>
      <point x="681" y="1142"/>
      <point x="598" y="1142" type="curve" smooth="yes"/>
      <point x="588" y="1142" type="line" smooth="yes"/>
      <point x="499" y="1142"/>
      <point x="435" y="1183"/>
      <point x="391" y="1267" type="curve" smooth="yes"/>
      <point x="313" y="1418" type="line"/>
      <point x="92" y="1418" type="line"/>
      <point x="197" y="1217" type="line" smooth="yes"/>
      <point x="286" y="1046"/>
      <point x="388" y="964"/>
    </contour>
    <contour>
      <point x="1563" y="509" type="line"/>
      <point x="1778" y="507" type="line"/>
      <point x="1778" y="515" type="line" smooth="yes"/>
      <point x="1778" y="919"/>
      <point x="1570" y="1142"/>
      <point x="1178" y="1142" type="curve"/>
      <point x="1161" y="1142" type="line"/>
      <point x="1127" y="957" type="line"/>
      <point x="1136" y="957" type="line"/>
      <point x="1419" y="957"/>
      <point x="1563" y="807"/>
      <point x="1563" y="518" type="curve" smooth="yes"/>
    </contour>
  </outline>
</glyph>
<glyph name="Avagraha.te" format="2">
  <advance width="1707"/>
  <unicode hex="0C3D"/>
  <outline>
    <contour>
      <point x="589" y="0" type="curve" smooth="yes"/>
      <point x="1654" y="0" type="line"/>
      <point x="1654" y="182" type="line"/>
      <point x="586" y="182" type="line" smooth="yes"/>
      <point x="413" y="182"/>
      <point x="333" y="219"/>
      <point x="333" y="306" type="curve" smooth="yes"/>
      <point x="333" y="308" type="line" smooth="yes"/>
      <point x="333" y="392"/>
      <point x="396" y="440"/>
      <point x="796" y="486" type="curve" smooth="yes"/>
      <point x="1284" y="542"/>
      <point x="1406" y="625"/>
      <point x="1406" y="819" type="curve" smooth="yes"/>
      <point x="1406" y="824" type="line" smooth="yes"/>
      <point x="1406" y="1047"/>
      <point x="1185" y="1152"/>
      <point x="788" y="1152" type="curve" smooth="yes"/>
      <point x="347" y="1152"/>
      <point x="160" y="1030"/>
      <point x="160" y="816" type="curve" smooth="yes"/>
      <point x="160" y="811" type="line" smooth="yes"/>
      <point x="160" y="789"/>
      <point x="162" y="769"/>
      <point x="168" y="737" type="curve"/>
      <point x="374" y="737" type="line"/>
      <point x="370" y="757"/>
      <point x="369" y="769"/>
      <point x="369" y="784" type="curve" smooth="yes"/>
      <point x="369" y="789" type="line" smooth="yes"/>
      <point x="369" y="904"/>
      <point x="493" y="972"/>
      <point x="788" y="972" type="curve" smooth="yes"/>
      <point x="1073" y="972"/>
      <point x="1196" y="921"/>
      <point x="1196" y="820" type="curve" smooth="yes"/>
      <point x="1196" y="817" type="line" smooth="yes"/>
      <point x="1196" y="728"/>
      <point x="1127" y="689"/>
      <point x="738" y="647" type="curve" smooth="yes"/>
      <point x="252" y="594"/>
      <point x="123" y="498"/>
      <point x="123" y="294" type="curve" smooth="yes"/>
      <point x="123" y="291" type="line" smooth="yes"/>
      <point x="123" y="111"/>
      <point x="258" y="0"/>
    </contour>
  </outline>
</glyph>
<glyph name="matraAa.te" format="2">
  <advance width="1299"/>
  <unicode hex="0C3E"/>
  <outline>
    <contour>
      <point x="713" y="140" type="curve" smooth="yes"/>
      <point x="1006" y="140"/>
      <point x="1171" y="317"/>
      <point x="1171" y="583" type="curve" smooth="yes"/>
      <point x="1171" y="591" type="line" smooth="yes"/>
      <point x="1171" y="915"/>
      <point x="967" y="1143"/>
      <point x="534" y="1143" type="curve" smooth="yes"/>
      <point x="-550" y="1143" type="line"/>
      <point x="-551" y="968" type="line"/>
      <point x="534" y="968" type="line" smooth="yes"/>
      <point x="845" y="968"/>
      <point x="973" y="817"/>
      <point x="973" y="626" type="curve" smooth="yes"/>
      <point x="973" y="621" type="line"/>
      <point x="965" y="621" type="line"/>
      <point x="966" y="552" type="line"/>
      <point x="966" y="550" type="line"/>
      <point x="966" y="411"/>
      <point x="873" y="325"/>
      <point x="715" y="325" type="curve" smooth="yes"/>
      <point x="567" y="325"/>
      <point x="494" y="392"/>
      <point x="494" y="486" type="curve" smooth="yes"/>
      <point x="494" y="489" type="line" smooth="yes"/>
      <point x="494" y="583"/>
      <point x="567" y="644"/>
      <point x="702" y="644" type="curve" smooth="yes"/>
      <point x="828" y="644"/>
      <point x="920" y="601"/>
      <point x="975" y="505" type="curve"/>
      <point x="969" y="614" type="line"/>
      <point x="929" y="736"/>
      <point x="832" y="819"/>
      <point x="650" y="819" type="curve" smooth="yes"/>
      <point x="429" y="819"/>
      <point x="294" y="691"/>
      <point x="294" y="489" type="curve" smooth="yes"/>
      <point x="294" y="485" type="line" smooth="yes"/>
      <point x="294" y="289"/>
      <point x="434" y="140"/>
    </contour>
  </outline>
</glyph>
<glyph name="matraI.te" format="2">
  <unicode hex="0C3F"/>
  <outline>
    <contour>
      <point x="-738" y="948" type="curve" smooth="yes"/>
      <point x="-410" y="948"/>
      <point x="-242" y="1106"/>
      <point x="-242" y="1410" type="curve" smooth="yes"/>
      <point x="-242" y="1412" type="line" smooth="yes"/>
      <point x="-242" y="1666"/>
      <point x="-396" y="1812"/>
      <point x="-701" y="1812" type="curve" smooth="yes"/>
      <point x="-976" y="1812"/>
      <point x="-1124" y="1710"/>
      <point x="-1124" y="1525" type="curve" smooth="yes"/>
      <point x="-1124" y="1523" type="line" smooth="yes"/>
      <point x="-1124" y="1369"/>
      <point x="-1015" y="1250"/>
      <point x="-766" y="1250" type="curve" smooth="yes"/>
      <point x="-569" y="1250"/>
      <point x="-479" y="1316"/>
      <point x="-434" y="1389" type="curve"/>
      <point x="-429" y="1523" type="line"/>
      <point x="-481" y="1462"/>
      <point x="-574" y="1415"/>
      <point x="-709" y="1415" type="curve" smooth="yes"/>
      <point x="-859" y="1415"/>
      <point x="-929" y="1453"/>
      <point x="-929" y="1527" type="curve" smooth="yes"/>
      <point x="-929" y="1528" type="line" smooth="yes"/>
      <point x="-929" y="1607"/>
      <point x="-859" y="1647"/>
      <point x="-703" y="1647" type="curve" smooth="yes"/>
      <point x="-525" y="1647"/>
      <point x="-437" y="1586"/>
      <point x="-437" y="1452" type="curve"/>
      <point x="-437" y="1448" type="line"/>
      <point x="-440" y="1386" type="line"/>
      <point x="-428" y="1386" type="line"/>
      <point x="-428" y="1385" type="line"/>
      <point x="-428" y="1218"/>
      <point x="-539" y="1123"/>
      <point x="-760" y="1123" type="curve" smooth="yes"/>
      <point x="-860" y="1123"/>
      <point x="-983" y="1138"/>
      <point x="-1093" y="1189" type="curve"/>
      <point x="-1070" y="1009" type="line"/>
      <point x="-966" y="965"/>
      <point x="-853" y="948"/>
    </contour>
  </outline>
</glyph>
<glyph name="matraU.te" format="2">
  <advance width="945"/>
  <unicode hex="0C41"/>
  <outline>
    <contour>
      <point x="292" y="-35" type="curve" smooth="yes"/>
      <point x="637" y="-35"/>
      <point x="817" y="159"/>
      <point x="817" y="517" type="curve"/>
      <point x="817" y="524" type="line"/>
      <point x="603" y="525" type="line"/>
      <point x="603" y="519" type="line"/>
      <point x="603" y="282"/>
      <point x="484" y="157"/>
      <point x="256" y="157" type="curve" smooth="yes"/>
      <point x="42" y="157"/>
      <point x="-88" y="261"/>
      <point x="-88" y="462" type="curve" smooth="yes"/>
      <point x="-88" y="502" type="line"/>
      <point x="-173" y="502" type="line"/>
      <point x="-173" y="353" type="line" smooth="yes"/>
      <point x="-173" y="105"/>
      <point x="5" y="-35"/>
    </contour>
    <component base="Terminals.te" xOffset="96"/>
  </outline>
</glyph>
<glyph name="matraUu.te" format="2">
  <advance width="2055"/>
  <unicode hex="0C42"/>
  <outline>
    <contour>
      <point x="309" y="-35" type="curve" smooth="yes"/>
      <point x="654" y="-35"/>
      <point x="834" y="158"/>
      <point x="834" y="500" type="curve"/>
      <point x="834" y="510" type="line"/>
      <point x="620" y="525" type="line"/>
      <point x="620" y="519" type="line"/>
      <point x="620" y="282"/>
      <point x="501" y="157"/>
      <point x="273" y="157" type="curve" smooth="yes"/>
      <point x="59" y="157"/>
      <point x="-71" y="261"/>
      <point x="-71" y="462" type="curve" smooth="yes"/>
      <point x="-71" y="502" type="line"/>
      <point x="-156" y="502" type="line"/>
      <point x="-156" y="353" type="line" smooth="yes"/>
      <point x="-156" y="105"/>
      <point x="22" y="-35"/>
    </contour>
    <contour>
      <point x="620" y="523" type="line"/>
      <point x="834" y="505" type="line"/>
      <point x="834" y="513" type="line"/>
      <point x="834" y="869"/>
      <point x="631" y="1075"/>
      <point x="248" y="1075" type="curve"/>
      <point x="200" y="1143" type="line"/>
      <point x="167" y="958" type="line"/>
      <point x="179" y="958" type="line"/>
      <point x="471" y="958"/>
      <point x="620" y="811"/>
      <point x="620" y="528" type="curve"/>
    </contour>
    <contour>
      <point x="1469" y="145" type="curve" smooth="yes"/>
      <point x="1762" y="145"/>
      <point x="1927" y="320"/>
      <point x="1927" y="583" type="curve" smooth="yes"/>
      <point x="1927" y="591" type="line" smooth="yes"/>
      <point x="1927" y="915"/>
      <point x="1723" y="1143"/>
      <point x="1290" y="1143" type="curve" smooth="yes"/>
      <point x="200" y="1143" type="line"/>
      <point x="206" y="1001" type="line"/>
      <point x="725" y="968" type="line"/>
      <point x="1290" y="968" type="line" smooth="yes"/>
      <point x="1601" y="968"/>
      <point x="1729" y="817"/>
      <point x="1729" y="626" type="curve" smooth="yes"/>
      <point x="1729" y="621" type="line"/>
      <point x="1721" y="621" type="line"/>
      <point x="1722" y="552" type="line"/>
      <point x="1722" y="550" type="line"/>
      <point x="1722" y="411"/>
      <point x="1629" y="325"/>
      <point x="1471" y="325" type="curve" smooth="yes"/>
      <point x="1323" y="325"/>
      <point x="1250" y="392"/>
      <point x="1250" y="486" type="curve" smooth="yes"/>
      <point x="1250" y="489" type="line" smooth="yes"/>
      <point x="1250" y="583"/>
      <point x="1323" y="644"/>
      <point x="1458" y="644" type="curve" smooth="yes"/>
      <point x="1584" y="644"/>
      <point x="1676" y="601"/>
      <point x="1731" y="505" type="curve"/>
      <point x="1725" y="614" type="line"/>
      <point x="1685" y="736"/>
      <point x="1588" y="819"/>
      <point x="1406" y="819" type="curve" smooth="yes"/>
      <point x="1185" y="819"/>
      <point x="1050" y="691"/>
      <point x="1050" y="489" type="curve" smooth="yes"/>
      <point x="1050" y="485" type="line" smooth="yes"/>
      <point x="1050" y="292"/>
      <point x="1190" y="145"/>
    </contour>
  </outline>
</glyph>
<glyph name="matraVocalicR.te" format="2">
  <advance width="458"/>
  <unicode hex="0C43"/>
  <outline>
    <contour>
      <point x="26" y="-724" type="curve" smooth="yes"/>
      <point x="340" y="-724"/>
      <point x="498" y="-543"/>
      <point x="498" y="-192" type="curve" smooth="yes"/>
      <point x="498" y="-187" type="line" smooth="yes"/>
      <point x="498" y="283"/>
      <point x="317" y="515"/>
      <point x="47" y="526" type="curve"/>
      <point x="19" y="370" type="line"/>
      <point x="199" y="360"/>
      <point x="318" y="191"/>
      <point x="318" y="-186" type="curve" smooth="yes"/>
      <point x="318" y="-192" type="line" smooth="yes"/>
      <point x="318" y="-429"/>
      <point x="240" y="-583"/>
      <point x="16" y="-583" type="curve" smooth="yes"/>
      <point x="-148" y="-583"/>
      <point x="-247" y="-522"/>
      <point x="-254" y="-409" type="curve"/>
      <point x="-254" y="-408" type="line"/>
      <point x="-246" y="-408" type="line"/>
      <point x="-251" y="-379" type="line"/>
      <point x="-251" y="-375" type="line"/>
      <point x="-247" y="-288"/>
      <point x="-202" y="-240"/>
      <point x="-121" y="-240" type="curve" smooth="yes"/>
      <point x="-58" y="-240"/>
      <point x="-24" y="-267"/>
      <point x="-24" y="-318" type="curve" smooth="yes"/>
      <point x="-24" y="-320" type="line" smooth="yes"/>
      <point x="-24" y="-367"/>
      <point x="-56" y="-396"/>
      <point x="-118" y="-396" type="curve" smooth="yes"/>
      <point x="-175" y="-396"/>
      <point x="-222" y="-376"/>
      <point x="-258" y="-323" type="curve"/>
      <point x="-252" y="-403" type="line"/>
      <point x="-223" y="-461"/>
      <point x="-162" y="-498"/>
      <point x="-70" y="-498" type="curve" smooth="yes"/>
      <point x="60" y="-498"/>
      <point x="128" y="-429"/>
      <point x="128" y="-319" type="curve" smooth="yes"/>
      <point x="128" y="-314" type="line" smooth="yes"/>
      <point x="128" y="-194"/>
      <point x="42" y="-116"/>
      <point x="-120" y="-116" type="curve" smooth="yes"/>
      <point x="-308" y="-116"/>
      <point x="-407" y="-228"/>
      <point x="-407" y="-393" type="curve" smooth="yes"/>
      <point x="-407" y="-395" type="line" smooth="yes"/>
      <point x="-407" y="-595"/>
      <point x="-251" y="-724"/>
    </contour>
  </outline>
</glyph>
<glyph name="matraVocalicRr.te" format="2">
  <advance width="1146"/>
  <unicode hex="0C44"/>
  <outline>
    <contour>
      <point x="26" y="-724" type="curve" smooth="yes"/>
      <point x="344" y="-724"/>
      <point x="498" y="-543"/>
      <point x="498" y="-192" type="curve" smooth="yes"/>
      <point x="498" y="-187" type="line" smooth="yes"/>
      <point x="498" y="176"/>
      <point x="388" y="422"/>
      <point x="78" y="472" type="curve"/>
      <point x="47" y="526" type="line"/>
      <point x="19" y="370" type="line"/>
      <point x="200" y="360"/>
      <point x="319" y="191"/>
      <point x="319" y="-186" type="curve" smooth="yes"/>
      <point x="319" y="-192" type="line" smooth="yes"/>
      <point x="319" y="-429"/>
      <point x="245" y="-583"/>
      <point x="16" y="-583" type="curve" smooth="yes"/>
      <point x="-148" y="-583"/>
      <point x="-247" y="-522"/>
      <point x="-254" y="-409" type="curve"/>
      <point x="-254" y="-408" type="line"/>
      <point x="-246" y="-408" type="line"/>
      <point x="-251" y="-379" type="line"/>
      <point x="-251" y="-375" type="line"/>
      <point x="-247" y="-288"/>
      <point x="-202" y="-240"/>
      <point x="-121" y="-240" type="curve" smooth="yes"/>
      <point x="-58" y="-240"/>
      <point x="-24" y="-267"/>
      <point x="-24" y="-318" type="curve" smooth="yes"/>
      <point x="-24" y="-320" type="line" smooth="yes"/>
      <point x="-24" y="-366"/>
      <point x="-55" y="-396"/>
      <point x="-118" y="-396" type="curve" smooth="yes"/>
      <point x="-172" y="-396"/>
      <point x="-220" y="-379"/>
      <point x="-258" y="-323" type="curve"/>
      <point x="-252" y="-403" type="line"/>
      <point x="-223" y="-461"/>
      <point x="-162" y="-498"/>
      <point x="-70" y="-498" type="curve" smooth="yes"/>
      <point x="60" y="-498"/>
      <point x="128" y="-429"/>
      <point x="128" y="-319" type="curve" smooth="yes"/>
      <point x="128" y="-314" type="line" smooth="yes"/>
      <point x="128" y="-194"/>
      <point x="42" y="-116"/>
      <point x="-120" y="-116" type="curve" smooth="yes"/>
      <point x="-308" y="-116"/>
      <point x="-407" y="-228"/>
      <point x="-407" y="-393" type="curve" smooth="yes"/>
      <point x="-407" y="-395" type="line" smooth="yes"/>
      <point x="-407" y="-595"/>
      <point x="-251" y="-724"/>
    </contour>
    <contour>
      <point x="837" y="-108" type="curve" smooth="yes"/>
      <point x="1016" y="-108"/>
      <point x="1117" y="-3"/>
      <point x="1117" y="174" type="curve" smooth="yes"/>
      <point x="1117" y="179" type="line" smooth="yes"/>
      <point x="1117" y="407"/>
      <point x="974" y="526"/>
      <point x="708" y="526" type="curve" smooth="yes"/>
      <point x="47" y="526" type="line"/>
      <point x="47" y="404" type="line"/>
      <point x="430" y="386" type="line"/>
      <point x="708" y="386" type="line" smooth="yes"/>
      <point x="902" y="386"/>
      <point x="964" y="307"/>
      <point x="964" y="196" type="curve" smooth="yes"/>
      <point x="964" y="194" type="line"/>
      <point x="956" y="194" type="line"/>
      <point x="959" y="150" type="line"/>
      <point x="959" y="144" type="line"/>
      <point x="959" y="66"/>
      <point x="920" y="20"/>
      <point x="842" y="20" type="curve" smooth="yes"/>
      <point x="778" y="20"/>
      <point x="740" y="49"/>
      <point x="740" y="99" type="curve" smooth="yes"/>
      <point x="740" y="101" type="line" smooth="yes"/>
      <point x="740" y="153"/>
      <point x="778" y="180"/>
      <point x="836" y="180" type="curve" smooth="yes"/>
      <point x="889" y="180"/>
      <point x="932" y="163"/>
      <point x="965" y="128" type="curve"/>
      <point x="960" y="193" type="line"/>
      <point x="939" y="249"/>
      <point x="883" y="293"/>
      <point x="788" y="293" type="curve" smooth="yes"/>
      <point x="664" y="293"/>
      <point x="586" y="222"/>
      <point x="586" y="101" type="curve" smooth="yes"/>
      <point x="586" y="97" type="line" smooth="yes"/>
      <point x="586" y="-27"/>
      <point x="679" y="-108"/>
    </contour>
  </outline>
</glyph>
<glyph name="matraE.te" format="2">
  <unicode hex="0C46"/>
  <outline>
    <contour>
      <point x="-362" y="1573" type="curve" smooth="yes"/>
      <point x="-1013" y="1573" type="line"/>
      <point x="-1038" y="1399" type="line"/>
      <point x="-372" y="1399" type="line" smooth="yes"/>
      <point x="-263" y="1399"/>
      <point x="-198" y="1364"/>
      <point x="-198" y="1272" type="curve" smooth="yes"/>
      <point x="-198" y="1185"/>
      <point x="-255" y="1143"/>
      <point x="-372" y="1143" type="curve" smooth="yes"/>
      <point x="-703" y="1143" type="line"/>
      <point x="-703" y="975" type="line"/>
      <point x="-361" y="975" type="line" smooth="yes"/>
      <point x="-120" y="975"/>
      <point x="2" y="1075"/>
      <point x="2" y="1273" type="curve" smooth="yes"/>
      <point x="2" y="1471"/>
      <point x="-120" y="1573"/>
    </contour>
  </outline>
</glyph>
<glyph name="matraO.te" format="2">
  <advance width="1232"/>
  <unicode hex="0C4A"/>
  <outline>
    <contour>
      <point x="691" y="455" type="curve" smooth="yes"/>
      <point x="988" y="455"/>
      <point x="1157" y="619"/>
      <point x="1157" y="927" type="curve" smooth="yes"/>
      <point x="1157" y="933" type="line" smooth="yes"/>
      <point x="1157" y="1268"/>
      <point x="978" y="1519"/>
      <point x="556" y="1519" type="curve" smooth="yes"/>
      <point x="314" y="1519"/>
      <point x="151" y="1424"/>
      <point x="105" y="1281" type="curve"/>
      <point x="99" y="1281" type="line"/>
      <point x="53" y="1500"/>
      <point x="-206" y="1598"/>
      <point x="-555" y="1598" type="curve" smooth="yes"/>
      <point x="-656" y="1598" type="line" smooth="yes"/>
      <point x="-1018" y="1598"/>
      <point x="-1193" y="1497"/>
      <point x="-1193" y="1295" type="curve" smooth="yes"/>
      <point x="-1193" y="1121"/>
      <point x="-1058" y="1032"/>
      <point x="-804" y="1032" type="curve" smooth="yes"/>
      <point x="-576" y="1032" type="line"/>
      <point x="-576" y="1143" type="line"/>
      <point x="-771" y="1143" type="line" smooth="yes"/>
      <point x="-909" y="1143"/>
      <point x="-983" y="1184"/>
      <point x="-983" y="1268" type="curve" smooth="yes"/>
      <point x="-983" y="1378"/>
      <point x="-863" y="1415"/>
      <point x="-651" y="1415" type="curve" smooth="yes"/>
      <point x="-549" y="1415" type="line" smooth="yes"/>
      <point x="-215" y="1415"/>
      <point x="-25" y="1319"/>
      <point x="-16" y="1109" type="curve" smooth="yes"/>
      <point x="-15" y="1085" type="line"/>
      <point x="198" y="1085" type="line"/>
      <point x="200" y="1102" type="line" smooth="yes"/>
      <point x="216" y="1237"/>
      <point x="330" y="1336"/>
      <point x="546" y="1336" type="curve" smooth="yes"/>
      <point x="832" y="1336"/>
      <point x="957" y="1177"/>
      <point x="957" y="942" type="curve" smooth="yes"/>
      <point x="957" y="940" type="line"/>
      <point x="950" y="940" type="line"/>
      <point x="951" y="880" type="line"/>
      <point x="951" y="874" type="line"/>
      <point x="951" y="719"/>
      <point x="859" y="635"/>
      <point x="691" y="635" type="curve" smooth="yes"/>
      <point x="554" y="635"/>
      <point x="479" y="694"/>
      <point x="479" y="796" type="curve" smooth="yes"/>
      <point x="479" y="799" type="line" smooth="yes"/>
      <point x="479" y="896"/>
      <point x="558" y="950"/>
      <point x="689" y="950" type="curve" smooth="yes"/>
      <point x="805" y="950"/>
      <point x="902" y="912"/>
      <point x="961" y="828" type="curve"/>
      <point x="954" y="933" type="line"/>
      <point x="915" y="1044"/>
      <point x="809" y="1120"/>
      <point x="636" y="1120" type="curve" smooth="yes"/>
      <point x="423" y="1120"/>
      <point x="282" y="1008"/>
      <point x="282" y="798" type="curve" smooth="yes"/>
      <point x="282" y="793" type="line" smooth="yes"/>
      <point x="282" y="585"/>
      <point x="435" y="455"/>
    </contour>
  </outline>
</glyph>
<glyph name="matraAu.te" format="2">
  <advance width="1255"/>
  <unicode hex="0C4C"/>
  <outline>
    <contour>
      <point x="749" y="576" type="curve" smooth="yes"/>
      <point x="1042" y="576"/>
      <point x="1207" y="751"/>
      <point x="1207" y="1014" type="curve" smooth="yes"/>
      <point x="1207" y="1022" type="line" smooth="yes"/>
      <point x="1207" y="1346"/>
      <point x="1003" y="1574"/>
      <point x="570" y="1574" type="curve" smooth="yes"/>
      <point x="-1061" y="1574" type="line"/>
      <point x="-1087" y="1398" type="line"/>
      <point x="-148" y="1398" type="line"/>
      <point x="-99" y="1411" type="line"/>
      <point x="120" y="1399" type="line"/>
      <point x="570" y="1399" type="line" smooth="yes"/>
      <point x="881" y="1399"/>
      <point x="1009" y="1248"/>
      <point x="1009" y="1057" type="curve" smooth="yes"/>
      <point x="1009" y="1052" type="line"/>
      <point x="1001" y="1052" type="line"/>
      <point x="1002" y="983" type="line"/>
      <point x="1002" y="981" type="line"/>
      <point x="1002" y="842"/>
      <point x="909" y="756"/>
      <point x="751" y="756" type="curve" smooth="yes"/>
      <point x="603" y="756"/>
      <point x="530" y="823"/>
      <point x="530" y="917" type="curve" smooth="yes"/>
      <point x="530" y="920" type="line" smooth="yes"/>
      <point x="530" y="1014"/>
      <point x="603" y="1075"/>
      <point x="738" y="1075" type="curve" smooth="yes"/>
      <point x="864" y="1075"/>
      <point x="956" y="1032"/>
      <point x="1011" y="936" type="curve"/>
      <point x="1005" y="1045" type="line"/>
      <point x="965" y="1167"/>
      <point x="868" y="1250"/>
      <point x="686" y="1250" type="curve" smooth="yes"/>
      <point x="465" y="1250"/>
      <point x="330" y="1122"/>
      <point x="330" y="920" type="curve" smooth="yes"/>
      <point x="330" y="916" type="line" smooth="yes"/>
      <point x="330" y="723"/>
      <point x="470" y="576"/>
    </contour>
    <contour>
      <point x="-550" y="1042" type="line"/>
      <point x="-284" y="1042" type="line" smooth="yes"/>
      <point x="-54" y="1042"/>
      <point x="72" y="1113"/>
      <point x="72" y="1270" type="curve" smooth="yes"/>
      <point x="72" y="1431"/>
      <point x="-51" y="1509"/>
      <point x="-275" y="1509" type="curve" smooth="yes"/>
      <point x="-530" y="1509" type="line"/>
      <point x="-563" y="1398" type="line"/>
      <point x="-296" y="1398" type="line" smooth="yes"/>
      <point x="-186" y="1398"/>
      <point x="-121" y="1363"/>
      <point x="-121" y="1270" type="curve" smooth="yes"/>
      <point x="-121" y="1185"/>
      <point x="-179" y="1143"/>
      <point x="-296" y="1143" type="curve" smooth="yes"/>
      <point x="-550" y="1143" type="line"/>
    </contour>
  </outline>
</glyph>
<glyph name="Halant.te" format="2">
  <unicode hex="0C4D"/>
  <outline>
    <contour>
      <point x="-736" y="981" type="curve" smooth="yes"/>
      <point x="-433" y="981" type="line"/>
      <point x="-433" y="1143" type="line"/>
      <point x="-731" y="1143" type="line" smooth="yes"/>
      <point x="-830" y="1143"/>
      <point x="-885" y="1170"/>
      <point x="-885" y="1248" type="curve" smooth="yes"/>
      <point x="-885" y="1319"/>
      <point x="-839" y="1353"/>
      <point x="-732" y="1353" type="curve" smooth="yes"/>
      <point x="-192" y="1353" type="line"/>
      <point x="-192" y="1515" type="line"/>
      <point x="-748" y="1515" type="line" smooth="yes"/>
      <point x="-853" y="1515"/>
      <point x="-914" y="1544"/>
      <point x="-914" y="1625" type="curve" smooth="yes"/>
      <point x="-914" y="1704"/>
      <point x="-856" y="1734"/>
      <point x="-748" y="1734" type="curve" smooth="yes"/>
      <point x="97" y="1734" type="line"/>
      <point x="72" y="1908" type="line"/>
      <point x="-756" y="1908" type="line" smooth="yes"/>
      <point x="-982" y="1908"/>
      <point x="-1115" y="1826"/>
      <point x="-1115" y="1654" type="curve" smooth="yes"/>
      <point x="-1115" y="1531"/>
      <point x="-1046" y="1460"/>
      <point x="-918" y="1437" type="curve"/>
      <point x="-918" y="1431" type="line"/>
      <point x="-1028" y="1409"/>
      <point x="-1086" y="1346"/>
      <point x="-1086" y="1228" type="curve" smooth="yes"/>
      <point x="-1086" y="1065"/>
      <point x="-972" y="981"/>
    </contour>
  </outline>
</glyph>
<glyph name="Lengthmark.te" format="2">
  <unicode hex="0C55"/>
  <outline>
    <contour>
      <point x="976" y="1978" type="curve"/>
      <point x="954" y="2143" type="line"/>
      <point x="889" y="2178"/>
      <point x="794" y="2206"/>
      <point x="676" y="2206" type="curve" smooth="yes"/>
      <point x="473" y="2206"/>
      <point x="361" y="2126"/>
      <point x="361" y="1986" type="curve" smooth="yes"/>
      <point x="361" y="1869"/>
      <point x="446" y="1799"/>
      <point x="627" y="1773" type="curve"/>
      <point x="701" y="1816" type="line"/>
      <point x="589" y="1833"/>
      <point x="546" y="1870"/>
      <point x="546" y="1933" type="curve" smooth="yes"/>
      <point x="546" y="2001"/>
      <point x="604" y="2042"/>
      <point x="724" y="2042" type="curve" smooth="yes"/>
      <point x="828" y="2042"/>
      <point x="912" y="2015"/>
    </contour>
  </outline>
</glyph>
<glyph name="matraAiLengthmark.te" format="2">
  <unicode hex="0C56"/>
  <anchor x="-104" y="-39" name="_bottom"/>
  <outline>
    <contour>
      <point x="-581" y="-684" type="curve" smooth="yes"/>
      <point x="529" y="-684" type="line"/>
      <point x="559" y="-522" type="line"/>
      <point x="-357" y="-522" type="line"/>
      <point x="-357" y="-517" type="line"/>
      <point x="-292" y="-487"/>
      <point x="-262" y="-432"/>
      <point x="-262" y="-362" type="curve" smooth="yes"/>
      <point x="-262" y="-359" type="line" smooth="yes"/>
      <point x="-262" y="-220"/>
      <point x="-381" y="-137"/>
      <point x="-581" y="-137" type="curve" smooth="yes"/>
      <point x="-784" y="-137"/>
      <point x="-901" y="-237"/>
      <point x="-901" y="-413" type="curve" smooth="yes"/>
      <point x="-901" y="-418" type="line" smooth="yes"/>
      <point x="-901" y="-586"/>
      <point x="-784" y="-684"/>
    </contour>
    <contour>
      <point x="-581" y="-522" type="curve" smooth="yes"/>
      <point x="-662" y="-522"/>
      <point x="-706" y="-483"/>
      <point x="-706" y="-413" type="curve" smooth="yes"/>
      <point x="-706" y="-409" type="line" smooth="yes"/>
      <point x="-706" y="-340"/>
      <point x="-660" y="-299"/>
      <point x="-581" y="-299" type="curve" smooth="yes"/>
      <point x="-502" y="-299"/>
      <point x="-455" y="-339"/>
      <point x="-455" y="-409" type="curve" smooth="yes"/>
      <point x="-455" y="-413" type="line" smooth="yes"/>
      <point x="-455" y="-484"/>
      <point x="-500" y="-522"/>
    </contour>
  </outline>
</glyph>
<glyph name="Tsa.te" format="2">
  <advance width="2043"/>
  <unicode hex="0C58"/>
  <anchor x="1041" y="-69" name="bottom"/>
  <outline>
    <contour>
      <point x="112" y="1523" type="line"/>
      <point x="1046" y="1523" type="line" smooth="yes"/>
      <point x="1292" y="1523"/>
      <point x="1407" y="1659"/>
      <point x="1407" y="1826" type="curve" smooth="yes"/>
      <point x="1407" y="1833" type="line" smooth="yes"/>
      <point x="1407" y="1993"/>
      <point x="1293" y="2134"/>
      <point x="1033" y="2134" type="curve" smooth="yes"/>
      <point x="798" y="2134"/>
      <point x="684" y="2022"/>
      <point x="684" y="1884" type="curve" smooth="yes"/>
      <point x="684" y="1880" type="line" smooth="yes"/>
      <point x="684" y="1788"/>
      <point x="739" y="1719"/>
      <point x="830" y="1685" type="curve"/>
      <point x="830" y="1679" type="line"/>
      <point x="78" y="1680" type="line"/>
    </contour>
    <contour>
      <point x="1046" y="1680" type="curve"/>
      <point x="933" y="1680"/>
      <point x="868" y="1747"/>
      <point x="868" y="1831" type="curve" smooth="yes"/>
      <point x="868" y="1836" type="line" smooth="yes"/>
      <point x="868" y="1924"/>
      <point x="925" y="1981"/>
      <point x="1046" y="1981" type="curve" smooth="yes"/>
      <point x="1161" y="1981"/>
      <point x="1226" y="1924"/>
      <point x="1226" y="1836" type="curve" smooth="yes"/>
      <point x="1226" y="1831" type="line" smooth="yes"/>
      <point x="1226" y="1744"/>
      <point x="1171" y="1680"/>
    </contour>
    <component base="Ca.te" xOffset="6"/>
  </outline>
</glyph>
<glyph name="Dza.te" format="2">
  <advance width="2009"/>
  <unicode hex="0C59"/>
  <anchor x="1018" y="-69" name="bottom"/>
  <outline>
    <contour>
      <point x="184" y="1301" type="line"/>
      <point x="1510" y="1301" type="line" smooth="yes"/>
      <point x="1757" y="1301"/>
      <point x="1871" y="1437"/>
      <point x="1871" y="1604" type="curve" smooth="yes"/>
      <point x="1871" y="1610" type="line" smooth="yes"/>
      <point x="1871" y="1770"/>
      <point x="1757" y="1911"/>
      <point x="1497" y="1911" type="curve" smooth="yes"/>
      <point x="1262" y="1911"/>
      <point x="1148" y="1800"/>
      <point x="1148" y="1662" type="curve" smooth="yes"/>
      <point x="1148" y="1657" type="line" smooth="yes"/>
      <point x="1148" y="1566"/>
      <point x="1202" y="1497"/>
      <point x="1294" y="1463" type="curve"/>
      <point x="1294" y="1456" type="line"/>
      <point x="149" y="1457" type="line"/>
    </contour>
    <contour>
      <point x="1510" y="1459" type="curve"/>
      <point x="1399" y="1459"/>
      <point x="1335" y="1525"/>
      <point x="1335" y="1608" type="curve" smooth="yes"/>
      <point x="1335" y="1613" type="line" smooth="yes"/>
      <point x="1335" y="1700"/>
      <point x="1391" y="1757"/>
      <point x="1510" y="1757" type="curve" smooth="yes"/>
      <point x="1624" y="1757"/>
      <point x="1690" y="1700"/>
      <point x="1690" y="1613" type="curve" smooth="yes"/>
      <point x="1690" y="1608" type="line" smooth="yes"/>
      <point x="1690" y="1522"/>
      <point x="1635" y="1459"/>
    </contour>
    <component base="Ja.te"/>
  </outline>
</glyph>
<glyph name="Rrr.te" format="2">
  <advance width="2006"/>
  <unicode hex="0C5A"/>
  <outline>
    <contour>
      <point x="299" y="548" type="line"/>
      <point x="1705" y="548" type="line"/>
      <point x="1705" y="713" type="line"/>
      <point x="299" y="713" type="line"/>
    </contour>
    <contour>
      <point x="599" y="-35" type="curve" smooth="yes"/>
      <point x="840" y="-35"/>
      <point x="977" y="82"/>
      <point x="1000" y="264" type="curve"/>
      <point x="1006" y="264" type="line"/>
      <point x="1029" y="82"/>
      <point x="1166" y="-35"/>
      <point x="1407" y="-35" type="curve" smooth="yes"/>
      <point x="1714" y="-35"/>
      <point x="1878" y="137"/>
      <point x="1878" y="454" type="curve" smooth="yes"/>
      <point x="1878" y="469" type="line" smooth="yes"/>
      <point x="1878" y="929"/>
      <point x="1572" y="1160"/>
      <point x="1003" y="1160" type="curve" smooth="yes"/>
      <point x="434" y="1160"/>
      <point x="128" y="929"/>
      <point x="128" y="469" type="curve" smooth="yes"/>
      <point x="128" y="454" type="line" smooth="yes"/>
      <point x="128" y="137"/>
      <point x="292" y="-35"/>
    </contour>
    <contour>
      <point x="631" y="161" type="curve" smooth="yes"/>
      <point x="440" y="161"/>
      <point x="342" y="264"/>
      <point x="342" y="468" type="curve" smooth="yes"/>
      <point x="342" y="484" type="line" smooth="yes"/>
      <point x="342" y="819"/>
      <point x="561" y="976"/>
      <point x="1003" y="976" type="curve" smooth="yes"/>
      <point x="1445" y="976"/>
      <point x="1664" y="819"/>
      <point x="1664" y="484" type="curve" smooth="yes"/>
      <point x="1664" y="468" type="line" smooth="yes"/>
      <point x="1664" y="264"/>
      <point x="1566" y="161"/>
      <point x="1375" y="161" type="curve" smooth="yes"/>
      <point x="1212" y="161"/>
      <point x="1131" y="246"/>
      <point x="1113" y="418" type="curve" smooth="yes"/>
      <point x="1110" y="446" type="line"/>
      <point x="896" y="446" type="line"/>
      <point x="893" y="418" type="line" smooth="yes"/>
      <point x="875" y="248"/>
      <point x="794" y="161"/>
    </contour>
  </outline>
</glyph>
<glyph name="vowelVocalicRr.te" format="2">
  <advance width="4937"/>
  <unicode hex="0C60"/>
  <anchor x="1009" y="0" name="_bottom"/>
  <outline>
    <contour>
      <point x="572" y="-35" type="curve" smooth="yes"/>
      <point x="837" y="-35"/>
      <point x="981" y="76"/>
      <point x="1012" y="254" type="curve"/>
      <point x="1018" y="254" type="line"/>
      <point x="1048" y="76"/>
      <point x="1184" y="-35"/>
      <point x="1439" y="-35" type="curve" smooth="yes"/>
      <point x="1686" y="-35"/>
      <point x="1851" y="101"/>
      <point x="1884" y="348" type="curve"/>
      <point x="1906" y="403"/>
      <point x="1918" y="452"/>
      <point x="1918" y="517" type="curve" smooth="yes"/>
      <point x="1918" y="524" type="line"/>
      <point x="1704" y="524" type="line"/>
      <point x="1704" y="519" type="line" smooth="yes"/>
      <point x="1704" y="281"/>
      <point x="1603" y="161"/>
      <point x="1406" y="161" type="curve" smooth="yes"/>
      <point x="1233" y="161"/>
      <point x="1141" y="250"/>
      <point x="1122" y="422" type="curve" smooth="yes"/>
      <point x="1118" y="459" type="line"/>
      <point x="912" y="459" type="line"/>
      <point x="908" y="421" type="line" smooth="yes"/>
      <point x="890" y="250"/>
      <point x="785" y="154"/>
      <point x="595" y="154" type="curve" smooth="yes"/>
      <point x="424" y="154"/>
      <point x="332" y="209"/>
      <point x="332" y="308" type="curve" smooth="yes"/>
      <point x="332" y="311" type="line" smooth="yes"/>
      <point x="332" y="400"/>
      <point x="384" y="443"/>
      <point x="637" y="514" type="curve" smooth="yes"/>
      <point x="923" y="595"/>
      <point x="1022" y="683"/>
      <point x="1022" y="849" type="curve" smooth="yes"/>
      <point x="1022" y="852" type="line" smooth="yes"/>
      <point x="1022" y="1050"/>
      <point x="863" y="1161"/>
      <point x="576" y="1161" type="curve" smooth="yes"/>
      <point x="291" y="1161"/>
      <point x="135" y="1050"/>
      <point x="135" y="845" type="curve"/>
      <point x="135" y="843" type="line"/>
      <point x="135" y="790"/>
      <point x="150" y="731"/>
      <point x="176" y="676" type="curve"/>
      <point x="372" y="676" type="line"/>
      <point x="346" y="726"/>
      <point x="335" y="771"/>
      <point x="335" y="816" type="curve"/>
      <point x="335" y="817" type="line"/>
      <point x="335" y="930"/>
      <point x="420" y="989"/>
      <point x="578" y="989" type="curve" smooth="yes"/>
      <point x="733" y="989"/>
      <point x="817" y="935"/>
      <point x="817" y="845" type="curve" smooth="yes"/>
      <point x="817" y="843" type="line" smooth="yes"/>
      <point x="817" y="760"/>
      <point x="755" y="723"/>
      <point x="527" y="657" type="curve" smooth="yes"/>
      <point x="208" y="565"/>
      <point x="115" y="471"/>
      <point x="115" y="291" type="curve" smooth="yes"/>
      <point x="115" y="286" type="line" smooth="yes"/>
      <point x="115" y="81"/>
      <point x="277" y="-35"/>
    </contour>
    <contour>
      <point x="1917" y="448" type="curve" smooth="yes"/>
      <point x="1917" y="502" type="line"/>
      <point x="1846" y="502" type="line"/>
      <point x="1846" y="348" type="line" smooth="yes"/>
      <point x="1846" y="114"/>
      <point x="2016" y="-33"/>
      <point x="2303" y="-33" type="curve" smooth="yes"/>
      <point x="2582" y="-33"/>
      <point x="2741" y="124"/>
      <point x="2777" y="347" type="curve"/>
      <point x="2789" y="403"/>
      <point x="2813" y="457"/>
      <point x="2813" y="519" type="curve" smooth="yes"/>
      <point x="2813" y="530" type="line"/>
      <point x="2599" y="527" type="line"/>
      <point x="2599" y="522" type="line" smooth="yes"/>
      <point x="2599" y="287"/>
      <point x="2478" y="159"/>
      <point x="2257" y="159" type="curve" smooth="yes"/>
      <point x="2045" y="159"/>
      <point x="1917" y="269"/>
    </contour>
    <contour>
      <point x="3197" y="-33" type="curve" smooth="yes"/>
      <point x="3529" y="-33"/>
      <point x="3707" y="168"/>
      <point x="3707" y="489" type="curve" smooth="yes"/>
      <point x="3707" y="505" type="line"/>
      <point x="3493" y="525" type="line"/>
      <point x="3493" y="520" type="line" smooth="yes"/>
      <point x="3493" y="286"/>
      <point x="3372" y="159"/>
      <point x="3152" y="159" type="curve" smooth="yes"/>
      <point x="2939" y="159"/>
      <point x="2812" y="269"/>
      <point x="2812" y="448" type="curve"/>
      <point x="2812" y="493" type="line"/>
      <point x="2741" y="493" type="line"/>
      <point x="2741" y="348" type="line"/>
      <point x="2741" y="114"/>
      <point x="2911" y="-33"/>
    </contour>
    <contour>
      <point x="3493" y="523" type="line"/>
      <point x="3707" y="503" type="line"/>
      <point x="3707" y="510" type="line" smooth="yes"/>
      <point x="3707" y="841"/>
      <point x="3515" y="1067"/>
      <point x="3127" y="1067" type="curve"/>
      <point x="3078" y="1143" type="line"/>
      <point x="3045" y="958" type="line"/>
      <point x="3058" y="958" type="line"/>
      <point x="3361" y="958"/>
      <point x="3493" y="796"/>
      <point x="3493" y="528" type="curve" smooth="yes"/>
    </contour>
    <contour>
      <point x="4351" y="140" type="curve" smooth="yes"/>
      <point x="4644" y="140"/>
      <point x="4809" y="317"/>
      <point x="4809" y="583" type="curve" smooth="yes"/>
      <point x="4809" y="591" type="line" smooth="yes"/>
      <point x="4809" y="915"/>
      <point x="4605" y="1143"/>
      <point x="4172" y="1143" type="curve" smooth="yes"/>
      <point x="3078" y="1143" type="line"/>
      <point x="3080" y="1001" type="line"/>
      <point x="3587" y="968" type="line"/>
      <point x="4172" y="968" type="line" smooth="yes"/>
      <point x="4483" y="968"/>
      <point x="4611" y="817"/>
      <point x="4611" y="626" type="curve" smooth="yes"/>
      <point x="4611" y="621" type="line"/>
      <point x="4603" y="621" type="line"/>
      <point x="4604" y="552" type="line"/>
      <point x="4604" y="550" type="line"/>
      <point x="4604" y="411"/>
      <point x="4511" y="325"/>
      <point x="4353" y="325" type="curve" smooth="yes"/>
      <point x="4205" y="325"/>
      <point x="4132" y="392"/>
      <point x="4132" y="486" type="curve" smooth="yes"/>
      <point x="4132" y="489" type="line" smooth="yes"/>
      <point x="4132" y="583"/>
      <point x="4205" y="644"/>
      <point x="4340" y="644" type="curve" smooth="yes"/>
      <point x="4466" y="644"/>
      <point x="4558" y="601"/>
      <point x="4613" y="505" type="curve"/>
      <point x="4607" y="614" type="line"/>
      <point x="4567" y="736"/>
      <point x="4470" y="819"/>
      <point x="4288" y="819" type="curve" smooth="yes"/>
      <point x="4067" y="819"/>
      <point x="3932" y="691"/>
      <point x="3932" y="489" type="curve" smooth="yes"/>
      <point x="3932" y="485" type="line" smooth="yes"/>
      <point x="3932" y="289"/>
      <point x="4072" y="140"/>
    </contour>
    <component base="Terminals.te" xOffset="2092"/>
    <component base="Terminals.te" xOffset="1197"/>
  </outline>
</glyph>
<glyph name="vowelVocalicLl.te" format="2">
  <advance width="3595"/>
  <unicode hex="0C61"/>
  <outline>
    <contour>
      <point x="1562" y="-39" type="curve" smooth="yes"/>
      <point x="2104" y="-39"/>
      <point x="2382" y="180"/>
      <point x="2382" y="579" type="curve" smooth="yes"/>
      <point x="2382" y="588" type="line" smooth="yes"/>
      <point x="2382" y="881"/>
      <point x="2198" y="1058"/>
      <point x="1866" y="1058" type="curve"/>
      <point x="1829" y="1143" type="line"/>
      <point x="1796" y="958" type="line"/>
      <point x="1808" y="958" type="line" smooth="yes"/>
      <point x="2046" y="958"/>
      <point x="2167" y="823"/>
      <point x="2167" y="598" type="curve" smooth="yes"/>
      <point x="2167" y="590" type="line" smooth="yes"/>
      <point x="2167" y="299"/>
      <point x="1962" y="145"/>
      <point x="1562" y="145" type="curve" smooth="yes"/>
      <point x="1260" y="145"/>
      <point x="1104" y="209"/>
      <point x="1104" y="320" type="curve" smooth="yes"/>
      <point x="1104" y="322" type="line" smooth="yes"/>
      <point x="1104" y="409"/>
      <point x="1174" y="450"/>
      <point x="1394" y="493" type="curve" smooth="yes"/>
      <point x="1670" y="547"/>
      <point x="1753" y="652"/>
      <point x="1753" y="825" type="curve" smooth="yes"/>
      <point x="1753" y="828" type="line" smooth="yes"/>
      <point x="1753" y="1042"/>
      <point x="1603" y="1161"/>
      <point x="1314" y="1161" type="curve" smooth="yes"/>
      <point x="1070" y="1161"/>
      <point x="949" y="1063"/>
      <point x="920" y="904" type="curve"/>
      <point x="914" y="904" type="line"/>
      <point x="884" y="1063"/>
      <point x="767" y="1161"/>
      <point x="532" y="1161" type="curve" smooth="yes"/>
      <point x="248" y="1161"/>
      <point x="100" y="1027"/>
      <point x="100" y="786" type="curve" smooth="yes"/>
      <point x="100" y="782" type="line" smooth="yes"/>
      <point x="100" y="751"/>
      <point x="106" y="708"/>
      <point x="118" y="668" type="curve"/>
      <point x="324" y="668" type="line"/>
      <point x="315" y="702"/>
      <point x="311" y="732"/>
      <point x="311" y="761" type="curve" smooth="yes"/>
      <point x="311" y="764" type="line" smooth="yes"/>
      <point x="311" y="903"/>
      <point x="390" y="977"/>
      <point x="560" y="977" type="curve" smooth="yes"/>
      <point x="737" y="977"/>
      <point x="796" y="884"/>
      <point x="814" y="746" type="curve" smooth="yes"/>
      <point x="818" y="715" type="line"/>
      <point x="1015" y="715" type="line"/>
      <point x="1019" y="746" type="line" smooth="yes"/>
      <point x="1038" y="896"/>
      <point x="1119" y="977"/>
      <point x="1293" y="977" type="curve" smooth="yes"/>
      <point x="1467" y="977"/>
      <point x="1547" y="919"/>
      <point x="1547" y="817" type="curve" smooth="yes"/>
      <point x="1547" y="812" type="line" smooth="yes"/>
      <point x="1547" y="742"/>
      <point x="1516" y="683"/>
      <point x="1295" y="641" type="curve" smooth="yes"/>
      <point x="1014" y="587"/>
      <point x="886" y="503"/>
      <point x="886" y="311" type="curve" smooth="yes"/>
      <point x="886" y="308" type="line" smooth="yes"/>
      <point x="886" y="90"/>
      <point x="1124" y="-39"/>
    </contour>
    <contour>
      <point x="3017" y="155" type="curve" smooth="yes"/>
      <point x="3306" y="155"/>
      <point x="3467" y="322"/>
      <point x="3467" y="583" type="curve" smooth="yes"/>
      <point x="3467" y="591" type="line" smooth="yes"/>
      <point x="3467" y="923"/>
      <point x="3266" y="1143"/>
      <point x="2838" y="1143" type="curve" smooth="yes"/>
      <point x="1829" y="1143" type="line"/>
      <point x="1837" y="1001" type="line"/>
      <point x="2269" y="968" type="line"/>
      <point x="2838" y="968" type="line" smooth="yes"/>
      <point x="3149" y="968"/>
      <point x="3277" y="821"/>
      <point x="3277" y="613" type="curve" smooth="yes"/>
      <point x="3277" y="608" type="line"/>
      <point x="3269" y="608" type="line"/>
      <point x="3270" y="552" type="line"/>
      <point x="3270" y="550" type="line"/>
      <point x="3270" y="411"/>
      <point x="3177" y="325"/>
      <point x="3019" y="325" type="curve" smooth="yes"/>
      <point x="2871" y="325"/>
      <point x="2798" y="392"/>
      <point x="2798" y="486" type="curve" smooth="yes"/>
      <point x="2798" y="489" type="line" smooth="yes"/>
      <point x="2798" y="583"/>
      <point x="2871" y="644"/>
      <point x="3006" y="644" type="curve" smooth="yes"/>
      <point x="3132" y="644"/>
      <point x="3224" y="601"/>
      <point x="3279" y="505" type="curve"/>
      <point x="3278" y="586" type="line"/>
      <point x="3239" y="719"/>
      <point x="3141" y="809"/>
      <point x="2954" y="809" type="curve" smooth="yes"/>
      <point x="2737" y="809"/>
      <point x="2598" y="685"/>
      <point x="2598" y="489" type="curve" smooth="yes"/>
      <point x="2598" y="485" type="line" smooth="yes"/>
      <point x="2598" y="296"/>
      <point x="2743" y="155"/>
    </contour>
  </outline>
</glyph>
<glyph name="VocalicLsmall1.te" format="2">
  <unicode hex="0C62"/>
  <anchor x="-18" y="-40" name="_bottom"/>
  <outline>
    <contour>
      <point x="181" y="-769" type="curve" smooth="yes"/>
      <point x="500" y="-769"/>
      <point x="652" y="-653"/>
      <point x="652" y="-435" type="curve" smooth="yes"/>
      <point x="652" y="-431" type="line" smooth="yes"/>
      <point x="652" y="-241"/>
      <point x="539" y="-126"/>
      <point x="351" y="-126" type="curve" smooth="yes"/>
      <point x="343" y="-126" type="line"/>
      <point x="316" y="-265" type="line"/>
      <point x="323" y="-265" type="line" smooth="yes"/>
      <point x="432" y="-265"/>
      <point x="491" y="-328"/>
      <point x="491" y="-432" type="curve" smooth="yes"/>
      <point x="491" y="-436" type="line" smooth="yes"/>
      <point x="491" y="-566"/>
      <point x="392" y="-637"/>
      <point x="177" y="-637" type="curve" smooth="yes"/>
      <point x="26" y="-637"/>
      <point x="-57" y="-612"/>
      <point x="-57" y="-566" type="curve" smooth="yes"/>
      <point x="-57" y="-565" type="line" smooth="yes"/>
      <point x="-57" y="-527"/>
      <point x="-22" y="-512"/>
      <point x="101" y="-491" type="curve" smooth="yes"/>
      <point x="258" y="-464"/>
      <point x="303" y="-403"/>
      <point x="303" y="-310" type="curve" smooth="yes"/>
      <point x="303" y="-308" type="line" smooth="yes"/>
      <point x="303" y="-190"/>
      <point x="214" y="-124"/>
      <point x="51" y="-124" type="curve" smooth="yes"/>
      <point x="-92" y="-124"/>
      <point x="-171" y="-174"/>
      <point x="-189" y="-271" type="curve"/>
      <point x="-196" y="-271" type="line"/>
      <point x="-212" y="-175"/>
      <point x="-294" y="-124"/>
      <point x="-422" y="-124" type="curve" smooth="yes"/>
      <point x="-590" y="-124"/>
      <point x="-681" y="-197"/>
      <point x="-681" y="-332" type="curve" smooth="yes"/>
      <point x="-681" y="-334" type="line" smooth="yes"/>
      <point x="-681" y="-349"/>
      <point x="-680" y="-367"/>
      <point x="-675" y="-388" type="curve"/>
      <point x="-517" y="-388" type="line"/>
      <point x="-520" y="-374"/>
      <point x="-521" y="-363"/>
      <point x="-521" y="-354" type="curve" smooth="yes"/>
      <point x="-521" y="-353" type="line" smooth="yes"/>
      <point x="-521" y="-290"/>
      <point x="-479" y="-258"/>
      <point x="-398" y="-258" type="curve" smooth="yes"/>
      <point x="-317" y="-258"/>
      <point x="-283" y="-295"/>
      <point x="-274" y="-357" type="curve" smooth="yes"/>
      <point x="-272" y="-371" type="line"/>
      <point x="-113" y="-371" type="line"/>
      <point x="-111" y="-357" type="line" smooth="yes"/>
      <point x="-102" y="-294"/>
      <point x="-65" y="-258"/>
      <point x="25" y="-258" type="curve" smooth="yes"/>
      <point x="105" y="-258"/>
      <point x="145" y="-283"/>
      <point x="145" y="-323" type="curve" smooth="yes"/>
      <point x="145" y="-324" type="line" smooth="yes"/>
      <point x="145" y="-359"/>
      <point x="114" y="-378"/>
      <point x="-11" y="-400" type="curve" smooth="yes"/>
      <point x="-177" y="-429"/>
      <point x="-218" y="-487"/>
      <point x="-218" y="-568" type="curve" smooth="yes"/>
      <point x="-218" y="-570" type="line" smooth="yes"/>
      <point x="-218" y="-700"/>
      <point x="-79" y="-769"/>
    </contour>
  </outline>
</glyph>
<glyph name="VocalicLlsmall1.te" format="2">
  <unicode hex="0C63"/>
  <anchor x="315" y="-40" name="_bottom"/>
  <outline>
    <contour>
      <point x="179" y="-769" type="curve" smooth="yes"/>
      <point x="496" y="-769"/>
      <point x="650" y="-660"/>
      <point x="650" y="-453" type="curve"/>
      <point x="650" y="-450" type="line"/>
      <point x="650" y="-291"/>
      <point x="543" y="-205"/>
      <point x="361" y="-205" type="curve"/>
      <point x="341" y="-126" type="line"/>
      <point x="314" y="-265" type="line"/>
      <point x="321" y="-265" type="line" smooth="yes"/>
      <point x="430" y="-265"/>
      <point x="489" y="-328"/>
      <point x="489" y="-432" type="curve"/>
      <point x="488" y="-436" type="line"/>
      <point x="488" y="-566"/>
      <point x="389" y="-637"/>
      <point x="175" y="-637" type="curve" smooth="yes"/>
      <point x="23" y="-637"/>
      <point x="-59" y="-612"/>
      <point x="-59" y="-566" type="curve" smooth="yes"/>
      <point x="-59" y="-565" type="line" smooth="yes"/>
      <point x="-59" y="-527"/>
      <point x="-24" y="-512"/>
      <point x="99" y="-491" type="curve" smooth="yes"/>
      <point x="256" y="-464"/>
      <point x="301" y="-403"/>
      <point x="301" y="-310" type="curve" smooth="yes"/>
      <point x="301" y="-308" type="line" smooth="yes"/>
      <point x="301" y="-190"/>
      <point x="212" y="-124"/>
      <point x="49" y="-124" type="curve" smooth="yes"/>
      <point x="-94" y="-124"/>
      <point x="-173" y="-174"/>
      <point x="-191" y="-271" type="curve"/>
      <point x="-198" y="-271" type="line"/>
      <point x="-214" y="-175"/>
      <point x="-296" y="-124"/>
      <point x="-424" y="-124" type="curve" smooth="yes"/>
      <point x="-593" y="-124"/>
      <point x="-683" y="-197"/>
      <point x="-683" y="-332" type="curve" smooth="yes"/>
      <point x="-683" y="-334" type="line" smooth="yes"/>
      <point x="-683" y="-349"/>
      <point x="-682" y="-367"/>
      <point x="-677" y="-388" type="curve"/>
      <point x="-519" y="-388" type="line"/>
      <point x="-522" y="-374"/>
      <point x="-523" y="-363"/>
      <point x="-523" y="-354" type="curve" smooth="yes"/>
      <point x="-523" y="-353" type="line" smooth="yes"/>
      <point x="-523" y="-290"/>
      <point x="-481" y="-258"/>
      <point x="-399" y="-258" type="curve" smooth="yes"/>
      <point x="-319" y="-258"/>
      <point x="-285" y="-295"/>
      <point x="-276" y="-357" type="curve" smooth="yes"/>
      <point x="-274" y="-371" type="line"/>
      <point x="-115" y="-371" type="line"/>
      <point x="-113" y="-357" type="line" smooth="yes"/>
      <point x="-104" y="-294"/>
      <point x="-68" y="-258"/>
      <point x="23" y="-258" type="curve" smooth="yes"/>
      <point x="103" y="-258"/>
      <point x="143" y="-283"/>
      <point x="143" y="-323" type="curve" smooth="yes"/>
      <point x="143" y="-324" type="line" smooth="yes"/>
      <point x="143" y="-359"/>
      <point x="112" y="-378"/>
      <point x="-13" y="-400" type="curve" smooth="yes"/>
      <point x="-179" y="-429"/>
      <point x="-220" y="-487"/>
      <point x="-220" y="-568" type="curve" smooth="yes"/>
      <point x="-220" y="-570" type="line" smooth="yes"/>
      <point x="-220" y="-700"/>
      <point x="-81" y="-769"/>
    </contour>
    <contour>
      <point x="986" y="-701" type="curve" smooth="yes"/>
      <point x="1158" y="-701"/>
      <point x="1255" y="-608"/>
      <point x="1255" y="-440" type="curve"/>
      <point x="1255" y="-436" type="line"/>
      <point x="1255" y="-233"/>
      <point x="1124" y="-126"/>
      <point x="880" y="-126" type="curve" smooth="yes"/>
      <point x="341" y="-126" type="line"/>
      <point x="343" y="-236" type="line"/>
      <point x="663" y="-255" type="line"/>
      <point x="880" y="-255" type="line" smooth="yes"/>
      <point x="1059" y="-255"/>
      <point x="1110" y="-326"/>
      <point x="1110" y="-425" type="curve" smooth="yes"/>
      <point x="1110" y="-427" type="line"/>
      <point x="1104" y="-427" type="line"/>
      <point x="1105" y="-464" type="line"/>
      <point x="1105" y="-469" type="line"/>
      <point x="1105" y="-540"/>
      <point x="1067" y="-585"/>
      <point x="991" y="-585" type="curve" smooth="yes"/>
      <point x="929" y="-585"/>
      <point x="893" y="-558"/>
      <point x="893" y="-511" type="curve" smooth="yes"/>
      <point x="893" y="-508" type="line" smooth="yes"/>
      <point x="893" y="-460"/>
      <point x="928" y="-434"/>
      <point x="984" y="-434" type="curve" smooth="yes"/>
      <point x="1037" y="-434"/>
      <point x="1078" y="-450"/>
      <point x="1110" y="-485" type="curve"/>
      <point x="1107" y="-428" type="line"/>
      <point x="1087" y="-373"/>
      <point x="1035" y="-329"/>
      <point x="940" y="-329" type="curve" smooth="yes"/>
      <point x="818" y="-329"/>
      <point x="743" y="-393"/>
      <point x="743" y="-509" type="curve" smooth="yes"/>
      <point x="743" y="-512" type="line" smooth="yes"/>
      <point x="743" y="-632"/>
      <point x="832" y="-701"/>
    </contour>
  </outline>
</glyph>
<glyph name="zero.te" format="2">
  <advance width="1689"/>
  <unicode hex="0C66"/>
  <outline>
    <contour>
      <point x="844" y="-39" type="curve" smooth="yes"/>
      <point x="1315" y="-39"/>
      <point x="1561" y="170"/>
      <point x="1561" y="555" type="curve" smooth="yes"/>
      <point x="1561" y="568" type="line" smooth="yes"/>
      <point x="1561" y="953"/>
      <point x="1315" y="1161"/>
      <point x="844" y="1161" type="curve" smooth="yes"/>
      <point x="374" y="1161"/>
      <point x="128" y="953"/>
      <point x="128" y="568" type="curve" smooth="yes"/>
      <point x="128" y="555" type="line" smooth="yes"/>
      <point x="128" y="170"/>
      <point x="374" y="-39"/>
    </contour>
    <contour>
      <point x="844" y="152" type="curve" smooth="yes"/>
      <point x="514" y="152"/>
      <point x="342" y="289"/>
      <point x="342" y="556" type="curve" smooth="yes"/>
      <point x="342" y="567" type="line" smooth="yes"/>
      <point x="342" y="831"/>
      <point x="514" y="971"/>
      <point x="844" y="971" type="curve" smooth="yes"/>
      <point x="1175" y="971"/>
      <point x="1347" y="831"/>
      <point x="1347" y="567" type="curve" smooth="yes"/>
      <point x="1347" y="556" type="line" smooth="yes"/>
      <point x="1347" y="289"/>
      <point x="1175" y="152"/>
    </contour>
  </outline>
</glyph>
<glyph name="one.te" format="2">
  <advance width="1603"/>
  <unicode hex="0C67"/>
  <outline>
    <contour>
      <point x="1085" y="0" type="curve"/>
      <point x="1322" y="0" type="line"/>
      <point x="1435" y="195"/>
      <point x="1475" y="363"/>
      <point x="1475" y="534" type="curve" smooth="yes"/>
      <point x="1475" y="550" type="line" smooth="yes"/>
      <point x="1475" y="948"/>
      <point x="1258" y="1180"/>
      <point x="801" y="1180" type="curve" smooth="yes"/>
      <point x="345" y="1180"/>
      <point x="128" y="949"/>
      <point x="128" y="551" type="curve" smooth="yes"/>
      <point x="128" y="535" type="line" smooth="yes"/>
      <point x="128" y="363"/>
      <point x="169" y="195"/>
      <point x="280" y="0" type="curve"/>
      <point x="517" y="0" type="line"/>
      <point x="395" y="197"/>
      <point x="346" y="364"/>
      <point x="346" y="534" type="curve" smooth="yes"/>
      <point x="346" y="549" type="line" smooth="yes"/>
      <point x="346" y="842"/>
      <point x="508" y="990"/>
      <point x="801" y="990" type="curve" smooth="yes"/>
      <point x="1095" y="990"/>
      <point x="1257" y="842"/>
      <point x="1257" y="549" type="curve" smooth="yes"/>
      <point x="1257" y="534" type="line" smooth="yes"/>
      <point x="1257" y="374"/>
      <point x="1214" y="206"/>
    </contour>
  </outline>
</glyph>
<glyph name="two.te" format="2">
  <advance width="1689"/>
  <unicode hex="0C68"/>
  <outline>
    <contour>
      <point x="52" y="1" type="line"/>
      <point x="793" y="1" type="line" smooth="yes"/>
      <point x="1306" y="1"/>
      <point x="1561" y="198"/>
      <point x="1561" y="583" type="curve" smooth="yes"/>
      <point x="1561" y="594" type="line" smooth="yes"/>
      <point x="1561" y="957"/>
      <point x="1314" y="1163"/>
      <point x="832" y="1163" type="curve" smooth="yes"/>
      <point x="447" y="1163"/>
      <point x="303" y="1010"/>
      <point x="303" y="803" type="curve" smooth="yes"/>
      <point x="303" y="798" type="line" smooth="yes"/>
      <point x="303" y="591"/>
      <point x="457" y="461"/>
      <point x="750" y="461" type="curve" smooth="yes"/>
      <point x="1041" y="461"/>
      <point x="1160" y="592"/>
      <point x="1160" y="758" type="curve" smooth="yes"/>
      <point x="1160" y="760" type="line" smooth="yes"/>
      <point x="1160" y="832"/>
      <point x="1125" y="915"/>
      <point x="1016" y="971" type="curve"/>
      <point x="1026" y="1005" type="line"/>
      <point x="829" y="1004" type="line"/>
      <point x="939" y="954"/>
      <point x="977" y="876"/>
      <point x="977" y="806" type="curve" smooth="yes"/>
      <point x="977" y="804" type="line" smooth="yes"/>
      <point x="977" y="694"/>
      <point x="906" y="626"/>
      <point x="748" y="626" type="curve" smooth="yes"/>
      <point x="591" y="626"/>
      <point x="509" y="691"/>
      <point x="509" y="802" type="curve" smooth="yes"/>
      <point x="509" y="807" type="line" smooth="yes"/>
      <point x="509" y="925"/>
      <point x="608" y="994"/>
      <point x="795" y="994" type="curve" smooth="yes"/>
      <point x="1189" y="994"/>
      <point x="1353" y="865"/>
      <point x="1353" y="599" type="curve" smooth="yes"/>
      <point x="1353" y="588" type="line" smooth="yes"/>
      <point x="1353" y="318"/>
      <point x="1168" y="183"/>
      <point x="776" y="183" type="curve" smooth="yes"/>
      <point x="20" y="183" type="line"/>
    </contour>
  </outline>
</glyph>
<glyph name="three.te" format="2">
  <advance width="1277"/>
  <unicode hex="0C69"/>
  <outline>
    <contour>
      <point x="623" y="-29" type="curve" smooth="yes"/>
      <point x="989" y="-29"/>
      <point x="1172" y="87"/>
      <point x="1172" y="299" type="curve" smooth="yes"/>
      <point x="1172" y="302" type="line" smooth="yes"/>
      <point x="1172" y="461"/>
      <point x="1064" y="560"/>
      <point x="864" y="576" type="curve"/>
      <point x="864" y="582" type="line"/>
      <point x="1060" y="597"/>
      <point x="1163" y="690"/>
      <point x="1163" y="848" type="curve" smooth="yes"/>
      <point x="1163" y="851" type="line" smooth="yes"/>
      <point x="1163" y="1056"/>
      <point x="983" y="1159"/>
      <point x="637" y="1159" type="curve" smooth="yes"/>
      <point x="438" y="1159"/>
      <point x="277" y="1125"/>
      <point x="148" y="1071" type="curve"/>
      <point x="127" y="881" type="line"/>
      <point x="251" y="939"/>
      <point x="408" y="976"/>
      <point x="596" y="976" type="curve" smooth="yes"/>
      <point x="845" y="976"/>
      <point x="953" y="927"/>
      <point x="953" y="820" type="curve" smooth="yes"/>
      <point x="953" y="816" type="line" smooth="yes"/>
      <point x="953" y="719"/>
      <point x="861" y="671"/>
      <point x="674" y="667" type="curve" smooth="yes"/>
      <point x="408" y="661" type="line"/>
      <point x="408" y="496" type="line"/>
      <point x="674" y="489" type="line" smooth="yes"/>
      <point x="867" y="484"/>
      <point x="962" y="432"/>
      <point x="962" y="331" type="curve" smooth="yes"/>
      <point x="962" y="328" type="line" smooth="yes"/>
      <point x="962" y="218"/>
      <point x="853" y="159"/>
      <point x="596" y="159" type="curve" smooth="yes"/>
      <point x="404" y="159"/>
      <point x="244" y="197"/>
      <point x="103" y="268" type="curve"/>
      <point x="123" y="71" type="line"/>
      <point x="257" y="9"/>
      <point x="424" y="-29"/>
    </contour>
  </outline>
</glyph>
<glyph name="four.te" format="2">
  <advance width="1682"/>
  <unicode hex="0C6A"/>
  <outline>
    <contour>
      <point x="638" y="384" type="curve"/>
      <point x="842" y="410" type="line"/>
      <point x="1040" y="384" type="line"/>
      <point x="1435" y="413"/>
      <point x="1582" y="578"/>
      <point x="1582" y="779" type="curve" smooth="yes"/>
      <point x="1582" y="786" type="line" smooth="yes"/>
      <point x="1582" y="1016"/>
      <point x="1408" y="1143"/>
      <point x="1118" y="1143" type="curve" smooth="yes"/>
      <point x="1097" y="1143" type="line"/>
      <point x="1063" y="970" type="line"/>
      <point x="1076" y="970" type="line" smooth="yes"/>
      <point x="1263" y="970"/>
      <point x="1374" y="907"/>
      <point x="1374" y="770" type="curve" smooth="yes"/>
      <point x="1374" y="762" type="line" smooth="yes"/>
      <point x="1374" y="633"/>
      <point x="1259" y="529"/>
      <point x="841" y="529" type="curve" smooth="yes"/>
      <point x="424" y="529"/>
      <point x="308" y="633"/>
      <point x="308" y="762" type="curve" smooth="yes"/>
      <point x="308" y="770" type="line" smooth="yes"/>
      <point x="308" y="907"/>
      <point x="418" y="970"/>
      <point x="606" y="970" type="curve" smooth="yes"/>
      <point x="619" y="970" type="line"/>
      <point x="585" y="1143" type="line"/>
      <point x="563" y="1143" type="line" smooth="yes"/>
      <point x="275" y="1143"/>
      <point x="100" y="1016"/>
      <point x="100" y="786" type="curve" smooth="yes"/>
      <point x="100" y="779" type="line" smooth="yes"/>
      <point x="100" y="578"/>
      <point x="246" y="413"/>
    </contour>
    <contour>
      <point x="841" y="-44" type="curve" smooth="yes"/>
      <point x="1180" y="-44"/>
      <point x="1288" y="73"/>
      <point x="1288" y="211" type="curve" smooth="yes"/>
      <point x="1288" y="217" type="line" smooth="yes"/>
      <point x="1288" y="381"/>
      <point x="1145" y="459"/>
      <point x="841" y="459" type="curve" smooth="yes"/>
      <point x="538" y="459"/>
      <point x="394" y="381"/>
      <point x="394" y="217" type="curve" smooth="yes"/>
      <point x="394" y="211" type="line" smooth="yes"/>
      <point x="394" y="73"/>
      <point x="502" y="-44"/>
    </contour>
    <contour>
      <point x="841" y="122" type="curve" smooth="yes"/>
      <point x="681" y="122"/>
      <point x="599" y="171"/>
      <point x="599" y="251" type="curve" smooth="yes"/>
      <point x="599" y="254" type="line" smooth="yes"/>
      <point x="599" y="339"/>
      <point x="683" y="381"/>
      <point x="841" y="381" type="curve" smooth="yes"/>
      <point x="1000" y="381"/>
      <point x="1083" y="339"/>
      <point x="1083" y="254" type="curve" smooth="yes"/>
      <point x="1083" y="251" type="line" smooth="yes"/>
      <point x="1083" y="171"/>
      <point x="1002" y="122"/>
    </contour>
  </outline>
</glyph>
<glyph name="five.te" format="2">
  <advance width="1980"/>
  <unicode hex="0C6B"/>
  <outline>
    <contour>
      <point x="180" y="-6" type="line"/>
      <point x="406" y="-6" type="line"/>
      <point x="406" y="11" type="line" smooth="yes"/>
      <point x="406" y="152"/>
      <point x="578" y="240"/>
      <point x="788" y="306" type="curve" smooth="yes"/>
      <point x="1038" y="385" type="line" smooth="yes"/>
      <point x="1161" y="424"/>
      <point x="1273" y="445"/>
      <point x="1370" y="445" type="curve" smooth="yes"/>
      <point x="1377" y="445" type="line" smooth="yes"/>
      <point x="1548" y="445"/>
      <point x="1625" y="373"/>
      <point x="1625" y="206" type="curve" smooth="yes"/>
      <point x="1625" y="183" type="line" smooth="yes"/>
      <point x="1625" y="122"/>
      <point x="1628" y="52"/>
      <point x="1659" y="-17" type="curve"/>
      <point x="1866" y="-17" type="line"/>
      <point x="1832" y="66"/>
      <point x="1822" y="140"/>
      <point x="1822" y="222" type="curve" smooth="yes"/>
      <point x="1822" y="246" type="line" smooth="yes"/>
      <point x="1822" y="497"/>
      <point x="1694" y="618"/>
      <point x="1431" y="618" type="curve" smooth="yes"/>
      <point x="1396" y="618" type="line" smooth="yes"/>
      <point x="1284" y="618"/>
      <point x="1114" y="587"/>
      <point x="973" y="544" type="curve" smooth="yes"/>
      <point x="712" y="464" type="line" smooth="yes"/>
      <point x="395" y="367"/>
      <point x="180" y="233"/>
      <point x="180" y="13" type="curve" smooth="yes"/>
    </contour>
    <contour>
      <point x="565" y="371" type="curve"/>
      <point x="751" y="379" type="line"/>
      <point x="787" y="476"/>
      <point x="804" y="565"/>
      <point x="804" y="651" type="curve" smooth="yes"/>
      <point x="804" y="658" type="line" smooth="yes"/>
      <point x="804" y="998"/>
      <point x="655" y="1165"/>
      <point x="362" y="1165" type="curve" smooth="yes"/>
      <point x="280" y="1165"/>
      <point x="196" y="1150"/>
      <point x="126" y="1117" type="curve"/>
      <point x="105" y="930" type="line"/>
      <point x="170" y="967"/>
      <point x="248" y="986"/>
      <point x="325" y="986" type="curve" smooth="yes"/>
      <point x="532" y="986"/>
      <point x="615" y="875"/>
      <point x="615" y="630" type="curve" smooth="yes"/>
      <point x="615" y="623" type="line" smooth="yes"/>
      <point x="615" y="550"/>
      <point x="600" y="454"/>
    </contour>
    <contour>
      <point x="1189" y="533" type="curve"/>
      <point x="1311" y="598" type="line"/>
      <point x="1216" y="650"/>
      <point x="1178" y="727"/>
      <point x="1178" y="796" type="curve" smooth="yes"/>
      <point x="1178" y="802" type="line" smooth="yes"/>
      <point x="1178" y="909"/>
      <point x="1256" y="990"/>
      <point x="1424" y="990" type="curve" smooth="yes"/>
      <point x="1590" y="990"/>
      <point x="1668" y="910"/>
      <point x="1668" y="802" type="curve" smooth="yes"/>
      <point x="1668" y="796" type="line" smooth="yes"/>
      <point x="1668" y="724"/>
      <point x="1628" y="647"/>
      <point x="1529" y="595" type="curve"/>
      <point x="1665" y="515" type="line"/>
      <point x="1806" y="600"/>
      <point x="1865" y="705"/>
      <point x="1865" y="824" type="curve" smooth="yes"/>
      <point x="1865" y="830" type="line" smooth="yes"/>
      <point x="1865" y="1038"/>
      <point x="1711" y="1164"/>
      <point x="1423" y="1164" type="curve" smooth="yes"/>
      <point x="1135" y="1164"/>
      <point x="981" y="1041"/>
      <point x="981" y="839" type="curve" smooth="yes"/>
      <point x="981" y="833" type="line" smooth="yes"/>
      <point x="981" y="710"/>
      <point x="1038" y="599"/>
    </contour>
  </outline>
</glyph>
<glyph name="six.te" format="2">
  <advance width="1702"/>
  <unicode hex="0C6C"/>
  <outline>
    <contour>
      <point x="557" y="0" type="curve" smooth="yes"/>
      <point x="1650" y="0" type="line"/>
      <point x="1650" y="182" type="line"/>
      <point x="563" y="182" type="line" smooth="yes"/>
      <point x="387" y="182"/>
      <point x="306" y="231"/>
      <point x="306" y="334" type="curve" smooth="yes"/>
      <point x="306" y="336" type="line" smooth="yes"/>
      <point x="306" y="437"/>
      <point x="395" y="489"/>
      <point x="552" y="489" type="curve" smooth="yes"/>
      <point x="1126" y="489" type="line"/>
      <point x="1126" y="661" type="line"/>
      <point x="556" y="661" type="line" smooth="yes"/>
      <point x="401" y="661"/>
      <point x="315" y="711"/>
      <point x="315" y="810" type="curve" smooth="yes"/>
      <point x="315" y="813" type="line" smooth="yes"/>
      <point x="315" y="914"/>
      <point x="394" y="961"/>
      <point x="567" y="961" type="curve" smooth="yes"/>
      <point x="793" y="961" type="line"/>
      <point x="760" y="1143" type="line"/>
      <point x="557" y="1143" type="line" smooth="yes"/>
      <point x="256" y="1143"/>
      <point x="109" y="1045"/>
      <point x="109" y="844" type="curve" smooth="yes"/>
      <point x="109" y="840" type="line" smooth="yes"/>
      <point x="109" y="684"/>
      <point x="208" y="594"/>
      <point x="383" y="578" type="curve"/>
      <point x="383" y="572" type="line"/>
      <point x="201" y="556"/>
      <point x="100" y="465"/>
      <point x="100" y="306" type="curve" smooth="yes"/>
      <point x="100" y="302" type="line" smooth="yes"/>
      <point x="100" y="105"/>
      <point x="253" y="0"/>
    </contour>
  </outline>
</glyph>
<glyph name="seven.te" format="2">
  <advance width="1510"/>
  <unicode hex="0C6D"/>
  <outline>
    <contour>
      <point x="1371" y="106" type="curve"/>
      <point x="1400" y="311" type="line"/>
      <point x="1215" y="218"/>
      <point x="1002" y="153"/>
      <point x="742" y="153" type="curve" smooth="yes"/>
      <point x="438" y="153"/>
      <point x="331" y="211"/>
      <point x="331" y="313" type="curve" smooth="yes"/>
      <point x="331" y="316" type="line" smooth="yes"/>
      <point x="331" y="411"/>
      <point x="431" y="457"/>
      <point x="775" y="499" type="curve" smooth="yes"/>
      <point x="1238" y="556"/>
      <point x="1359" y="649"/>
      <point x="1359" y="841" type="curve" smooth="yes"/>
      <point x="1359" y="843" type="line" smooth="yes"/>
      <point x="1359" y="1037"/>
      <point x="1195" y="1161"/>
      <point x="783" y="1161" type="curve" smooth="yes"/>
      <point x="555" y="1161"/>
      <point x="347" y="1113"/>
      <point x="202" y="1046" type="curve"/>
      <point x="173" y="852" type="line"/>
      <point x="342" y="933"/>
      <point x="559" y="982"/>
      <point x="773" y="982" type="curve" smooth="yes"/>
      <point x="1048" y="982"/>
      <point x="1149" y="921"/>
      <point x="1149" y="835" type="curve" smooth="yes"/>
      <point x="1149" y="833" type="line" smooth="yes"/>
      <point x="1149" y="748"/>
      <point x="1061" y="704"/>
      <point x="715" y="664" type="curve" smooth="yes"/>
      <point x="260" y="611"/>
      <point x="121" y="508"/>
      <point x="121" y="312" type="curve" smooth="yes"/>
      <point x="121" y="307" type="line" smooth="yes"/>
      <point x="121" y="92"/>
      <point x="307" y="-34"/>
      <point x="748" y="-34" type="curve" smooth="yes"/>
      <point x="1035" y="-34"/>
      <point x="1232" y="33"/>
    </contour>
  </outline>
</glyph>
<glyph name="eight.te" format="2">
  <advance width="1601"/>
  <unicode hex="0C6E"/>
  <outline>
    <contour>
      <point x="802" y="-36" type="curve" smooth="yes"/>
      <point x="1242" y="-36"/>
      <point x="1472" y="201"/>
      <point x="1472" y="553" type="curve" smooth="yes"/>
      <point x="1472" y="560" type="line" smooth="yes"/>
      <point x="1472" y="740"/>
      <point x="1413" y="883"/>
      <point x="1292" y="972" type="curve"/>
      <point x="1292" y="978" type="line"/>
      <point x="1536" y="973" type="line"/>
      <point x="1511" y="1153" type="line"/>
      <point x="1009" y="1142" type="line"/>
      <point x="1009" y="975" type="line"/>
      <point x="1101" y="967" type="line"/>
      <point x="1213" y="885"/>
      <point x="1257" y="750"/>
      <point x="1257" y="612" type="curve" smooth="yes"/>
      <point x="1257" y="597" type="line" smooth="yes"/>
      <point x="1257" y="316"/>
      <point x="1097" y="149"/>
      <point x="802" y="149" type="curve" smooth="yes"/>
      <point x="507" y="149"/>
      <point x="347" y="316"/>
      <point x="347" y="597" type="curve" smooth="yes"/>
      <point x="347" y="612" type="line" smooth="yes"/>
      <point x="347" y="782"/>
      <point x="396" y="949"/>
      <point x="518" y="1146" type="curve"/>
      <point x="286" y="1146" type="line"/>
      <point x="172" y="956"/>
      <point x="128" y="787"/>
      <point x="128" y="611" type="curve" smooth="yes"/>
      <point x="128" y="595" type="line" smooth="yes"/>
      <point x="128" y="201"/>
      <point x="360" y="-36"/>
    </contour>
  </outline>
</glyph>
